<svg width="401" height="147" viewBox="0 0 401 147" fill="none" xmlns="http://www.w3.org/2000/svg">
<path d="M385.001 70.4471C386.473 72.4628 387.449 74.6386 387.593 77.1983C387.881 82.4138 383.913 87.4852 378.778 88.3651C375.93 88.8611 373.306 88.3012 370.81 86.8453C363.995 82.8457 356.652 80.286 348.877 78.9262C343.341 77.9663 337.758 77.6783 332.159 78.1582C322.096 79.0061 312.657 81.8698 303.905 86.9573C300.13 89.1491 296.274 89.2131 292.547 86.9253C288.819 84.6375 287.155 81.1499 287.379 76.7984C287.491 74.4626 288.515 72.4468 289.843 70.575C290.019 70.559 290.083 70.4471 290.067 70.2711V70.2871C290.179 70.2711 290.227 70.2071 290.211 70.0951H290.195C291.315 69.4072 292.275 68.4953 293.443 67.8553C295.506 66.7195 297.618 65.6796 299.682 64.5437C301.202 63.9038 302.706 63.2478 304.225 62.6239C307.889 61.104 311.665 59.9522 315.488 58.9123C317.888 58.3683 320.288 57.8244 322.703 57.4244C332.59 55.8246 342.477 55.8246 352.364 57.4404C354.78 57.8244 357.148 58.4163 359.532 58.9123C359.66 58.9603 359.772 59.0243 359.9 59.0563C364.299 60.1762 368.571 61.68 372.762 63.4558C373.514 63.7758 374.202 64.2397 375.018 64.3677C375.034 64.5277 375.162 64.5117 375.274 64.5277C378.522 66.3355 382.041 67.6953 384.841 70.2551L384.809 70.2391C384.793 70.3671 384.873 70.4151 385.001 70.4471ZM372.938 81.5979C372.986 81.8059 373.146 81.8058 373.306 81.8058C374.282 82.5738 375.37 83.0217 376.602 83.0377C379.018 83.0857 381.337 81.3419 381.961 79.0381C382.617 76.6064 381.513 74.1267 379.225 72.8148C374.282 69.9671 369.115 67.6154 363.707 65.8235C362.747 65.5356 361.787 65.1996 360.827 64.9436C359.324 64.5437 357.852 63.9837 356.284 63.8718H356.3C356.3 63.7758 356.252 63.7438 356.156 63.7438C348.909 62.0799 341.581 61.408 334.158 61.712C328.991 61.92 323.887 62.5599 318.848 63.7438C318.752 63.7598 318.688 63.7918 318.704 63.8878C318.08 63.8078 317.504 64.0477 316.928 64.2077C314.992 64.7197 313.025 65.1196 311.201 65.9675C311.009 65.8875 310.833 65.9675 310.657 66.0315C305.329 67.8233 300.242 70.1751 295.394 73.0228C293.747 73.9987 292.851 75.5185 292.787 77.4383C292.723 79.6781 293.715 81.4219 295.714 82.4618C297.826 83.5657 299.826 83.1817 301.682 81.7738C301.794 81.7898 301.874 81.7418 301.89 81.6299C302.018 81.6139 302.162 81.6459 302.274 81.5819C305.041 80.014 307.937 78.7182 310.849 77.4703C311.073 77.4063 311.313 77.3583 311.537 77.2623C318.816 74.4626 326.367 72.8948 334.142 72.5428C344.061 72.0949 353.692 73.6147 363.019 77.1023C363.323 77.2143 363.611 77.4543 363.979 77.3263V77.3103C363.915 77.5023 364.075 77.4543 364.171 77.4863C366.619 78.5582 369.067 79.6141 371.434 80.8619C371.93 81.1339 372.362 81.5659 372.986 81.5979H372.938Z" fill="black"/>
<path d="M87.0313 120.568C86.8713 121.432 87.0153 122.152 87.0153 122.856C87.0153 130.247 87.0313 137.623 87.0473 145.014C87.0473 145.622 86.9193 145.814 86.2794 145.798C84.1516 145.75 82.0079 145.766 79.8801 145.798C79.3521 145.798 79.1602 145.718 79.1602 145.126C79.1762 132.119 79.1762 119.113 79.1602 106.106C79.1602 105.562 79.2881 105.37 79.8641 105.386C81.2239 105.434 82.5838 105.434 83.9436 105.386C84.4876 105.37 84.8075 105.562 85.1435 105.978C91.6868 114.041 98.2621 122.104 104.821 130.151C104.933 130.295 105.061 130.423 105.317 130.727C105.317 130.279 105.317 129.991 105.317 129.72C105.301 121.912 105.301 114.105 105.253 106.282C105.253 105.53 105.461 105.354 106.181 105.37C108.261 105.418 110.341 105.402 112.421 105.37C112.933 105.37 113.157 105.45 113.157 106.042C113.141 119.081 113.141 132.119 113.157 145.142C113.157 145.686 112.981 145.798 112.485 145.782C111.045 145.75 109.605 145.766 108.165 145.782C107.781 145.782 107.541 145.67 107.301 145.366C100.758 137.303 94.1825 129.24 87.6232 121.192C87.4473 121.016 87.2713 120.84 87.0313 120.568Z" fill="black"/>
<path d="M134.353 120.473C134.353 123.225 134.353 125.72 134.353 128.216C134.369 133.863 134.385 139.511 134.417 145.174C134.417 145.67 134.289 145.798 133.793 145.798C131.585 145.766 129.361 145.766 127.153 145.798C126.577 145.814 126.513 145.59 126.529 145.11C126.545 143.11 126.545 141.111 126.545 139.111C126.545 128.152 126.545 117.193 126.529 106.25C126.529 105.562 126.657 105.322 127.393 105.37C128.673 105.434 129.953 105.418 131.233 105.37C131.793 105.354 132.161 105.514 132.513 105.962C139.056 114.026 145.615 122.089 152.175 130.136C152.287 130.28 152.415 130.408 152.591 130.616C152.783 130.12 152.639 129.704 152.639 129.304C152.639 121.577 152.639 113.85 152.607 106.106C152.607 105.514 152.735 105.339 153.343 105.354C155.502 105.386 157.662 105.386 159.822 105.354C160.334 105.354 160.494 105.482 160.494 106.026C160.478 119.065 160.478 132.104 160.494 145.126C160.494 145.654 160.334 145.798 159.822 145.782C158.43 145.75 157.054 145.75 155.662 145.782C155.166 145.798 154.846 145.654 154.526 145.254C148.095 137.335 141.648 129.416 135.201 121.513C134.977 121.241 134.753 120.953 134.353 120.473Z" fill="black"/>
<path d="M170.718 124.552C170.798 121.433 171.182 118.073 172.446 114.841C174.301 110.074 177.629 106.922 182.588 105.578C187.164 104.347 191.771 104.363 196.315 105.706C201.53 107.258 204.762 110.842 206.394 115.961C207.722 120.137 207.866 124.44 207.578 128.776C207.418 131.288 206.97 133.735 206.09 136.103C204.154 141.335 200.475 144.598 195.051 145.83C191.02 146.742 186.956 146.742 182.94 145.718C177.021 144.214 173.485 140.279 171.838 134.503C170.91 131.352 170.686 128.12 170.718 124.552ZM199.739 125.688C199.707 123.625 199.627 121.689 199.179 119.769C198.363 116.281 196.523 113.706 192.891 112.73C191.196 112.282 189.468 112.234 187.74 112.346C183.356 112.65 180.477 114.905 179.421 119.129C178.349 123.433 178.365 127.8 179.437 132.104C180.269 135.447 182.333 137.671 185.756 138.503C187.212 138.855 188.7 138.951 190.204 138.871C195.227 138.599 198.155 136.103 199.227 131.192C199.627 129.336 199.675 127.448 199.739 125.688Z" fill="black"/>
<path d="M329.325 125.464C329.325 118.937 329.341 112.394 329.309 105.866C329.309 105.162 329.485 104.986 330.188 104.986C339.595 105.018 349.018 105.002 358.425 104.986C359.065 104.986 359.289 105.13 359.273 105.802C359.225 107.754 359.209 109.69 359.273 111.642C359.305 112.426 359.017 112.538 358.329 112.538C351.578 112.522 344.843 112.538 338.092 112.506C337.42 112.506 337.18 112.634 337.196 113.369C337.244 115.657 337.244 117.961 337.196 120.249C337.18 120.905 337.404 121.017 337.996 121.017C343.915 121.001 349.834 121.017 355.754 120.985C356.49 120.985 356.634 121.193 356.618 121.865C356.57 123.816 356.57 125.752 356.618 127.704C356.634 128.408 356.41 128.52 355.77 128.504C349.85 128.472 343.931 128.504 338.012 128.472C337.34 128.472 337.18 128.632 337.196 129.304C337.244 132.055 337.228 134.791 337.196 137.543C337.196 138.135 337.34 138.295 337.948 138.295C344.747 138.279 351.546 138.295 358.345 138.263C359.081 138.263 359.289 138.439 359.273 139.175C359.225 141.126 359.225 143.062 359.273 145.014C359.289 145.67 359.065 145.782 358.473 145.782C349.034 145.766 339.596 145.766 330.157 145.782C329.501 145.782 329.309 145.654 329.309 144.966C329.325 138.471 329.325 131.975 329.325 125.464Z" fill="black"/>
<path d="M322.684 57.3919C320.252 57.8079 317.852 58.3358 315.469 58.8797C315.565 58.6878 315.645 58.4958 315.757 58.3198C320.204 50.7526 324.668 43.1854 329.115 35.6182C330.875 32.6105 332.619 29.6029 334.379 26.5952C334.603 26.2432 334.843 25.8913 335.035 25.5393C335.835 24.1314 336.778 22.7876 337.45 21.2997C339.258 18.516 341.034 15.7003 342.474 12.7087C343.418 10.7569 342.906 8.77308 341.434 7.17325C339.978 5.58942 338.122 5.06148 336.059 5.68541C334.283 6.21335 333.067 7.46122 332.331 9.15704C331.419 10.4529 330.683 11.8608 329.883 13.2206C329.323 14.1965 328.603 15.0924 328.267 16.1963C327.915 16.2603 327.867 16.6122 327.723 16.8362C322.268 26.0832 316.829 35.3303 311.405 44.5773C307.486 51.2326 303.582 57.8879 299.678 64.5431C297.615 65.663 295.503 66.7189 293.439 67.8548C292.271 68.4947 291.327 69.4226 290.191 70.0946C291.023 68.3027 292.111 66.6709 293.103 64.9751C304.734 45.1692 316.397 25.3793 328.043 5.58942C331.435 -0.169967 338.746 -1.7538 343.978 2.13379C345.657 3.38165 346.825 5.04548 347.641 6.94928C347.689 7.12526 347.721 7.31724 347.769 7.49322C348.425 9.509 348.441 11.5408 347.929 13.6046C347.705 14.5325 347.113 15.3324 347.001 16.2923C346.649 16.3083 346.617 16.6282 346.489 16.8362C344.538 20.1319 342.602 23.4435 340.65 26.7552C339.578 28.563 338.506 30.3548 337.434 32.1626C337.354 32.3066 337.29 32.4506 337.21 32.5945C332.971 39.7938 328.731 46.977 324.508 54.1762C323.884 55.2161 323.164 56.24 322.684 57.3919Z" fill="black"/>
<path d="M398.199 114.138C395.623 113.354 393.079 112.81 390.472 112.586C386.888 112.282 383.288 111.994 379.737 112.842C377.177 113.45 375.961 114.986 375.977 117.306C375.993 118.586 376.569 119.482 377.705 120.042C379.193 120.761 380.809 120.969 382.425 121.145C385.592 121.497 388.792 121.705 391.88 122.601C393.063 122.937 394.199 123.369 395.271 123.961C397.927 125.417 399.383 127.673 399.799 130.632C400.215 133.672 400.071 136.648 398.599 139.431C396.759 142.903 393.639 144.679 389.992 145.623C386.072 146.647 382.089 146.631 378.089 146.199C375.289 145.895 372.49 145.495 369.77 144.711C369.13 144.519 368.906 144.231 368.922 143.559C368.97 141.559 368.954 139.559 368.938 137.56C368.938 137.048 369.018 136.952 369.562 137.096C374.793 138.52 380.105 139.207 385.512 138.744C386.952 138.616 388.36 138.328 389.64 137.624C391.704 136.52 392.647 134.104 391.88 131.88C391.496 130.792 390.664 130.168 389.64 129.752C387.896 129.033 386.04 128.841 384.184 128.665C380.953 128.345 377.721 128.009 374.633 126.937C370.218 125.385 368.298 122.649 368.266 117.994C368.25 115.178 368.714 112.522 370.378 110.203C372.25 107.563 374.969 106.235 378.025 105.483C381.833 104.555 385.688 104.635 389.544 104.923C392.279 105.131 394.983 105.579 397.575 106.555C398.055 106.731 398.215 106.939 398.215 107.467C398.183 109.659 398.199 111.866 398.199 114.138Z" fill="black"/>
<path d="M288.769 145.815C286.034 145.815 283.298 145.799 280.562 145.831C280.098 145.831 280.082 145.511 279.97 145.223C278.995 142.808 278.019 140.392 277.091 137.96C276.867 137.384 276.579 137.224 275.987 137.224C271.395 137.256 266.82 137.256 262.228 137.224C261.652 137.224 261.396 137.416 261.204 137.944C260.293 140.376 259.317 142.808 258.373 145.223C258.261 145.511 258.229 145.831 257.765 145.831C255.013 145.815 252.277 145.815 249.43 145.815C250.15 144.056 250.854 142.36 251.541 140.68C256.373 129.017 261.22 117.354 266.052 105.692C266.26 105.18 266.5 104.956 267.076 104.972C268.468 105.02 269.844 105.02 271.235 104.972C271.795 104.956 272.067 105.116 272.291 105.644C276.867 116.747 281.474 127.849 286.082 138.952C286.914 140.936 287.746 142.92 288.562 144.92C288.658 145.175 288.865 145.431 288.769 145.815ZM269.156 117.226C267.508 121.514 265.908 125.69 264.324 129.865C264.116 130.425 264.516 130.345 264.836 130.345C267.716 130.345 270.595 130.329 273.475 130.361C274.099 130.361 274.035 130.137 273.875 129.721C273.267 128.153 272.691 126.585 272.099 125.018C271.139 122.458 270.179 119.898 269.156 117.226Z" fill="black"/>
<path d="M108.837 69.6141C113.172 72.1738 114.676 76.0614 114.596 80.7649C114.564 82.0767 114.404 83.3726 114.02 84.6205C112.852 88.5081 110.116 90.6518 106.277 91.5157C104.789 91.8517 103.285 91.9957 101.765 91.9797C96.2939 91.9637 90.8385 91.9637 85.3671 91.9957C84.7111 91.9957 84.5352 91.8197 84.5352 91.1638C84.5512 78.2691 84.5512 65.3585 84.5352 52.4639C84.5352 51.744 84.7271 51.584 85.4311 51.584C90.5985 51.616 95.766 51.584 100.949 51.6C102.757 51.6 104.565 51.808 106.309 52.3199C109.812 53.3438 111.924 55.5836 112.516 59.2472C112.996 62.2229 112.692 65.0226 110.948 67.5663C110.388 68.3982 109.7 69.0541 108.837 69.6141ZM89.8306 79.789C89.8306 82.0287 89.8466 84.2685 89.8146 86.5083C89.8146 86.9882 89.9426 87.1482 90.4385 87.1482C94.0381 87.1322 97.6378 87.1482 101.237 87.1322C102.085 87.1322 102.933 87.0682 103.781 86.9242C106.773 86.4283 108.389 84.7805 108.821 81.7728C108.997 80.4929 108.965 79.229 108.789 77.9492C108.405 75.2295 106.853 73.5017 104.197 72.8617C103.333 72.6537 102.469 72.5418 101.589 72.5418C97.9097 72.5258 94.2301 72.5578 90.5505 72.5258C89.9106 72.5258 89.8146 72.7657 89.8306 73.3097C89.8466 75.4694 89.8306 77.6292 89.8306 79.789ZM96.7419 56.5115C94.4061 56.5115 92.4863 56.5275 90.5665 56.4955C89.9906 56.4795 89.7986 56.6075 89.8146 57.2314C89.8466 60.447 89.8466 63.6787 89.8146 66.8944C89.8146 67.5343 90.0066 67.6943 90.6145 67.6783C94.2301 67.6463 97.8617 67.6783 101.477 67.6623C102.085 67.6623 102.709 67.5983 103.301 67.5023C105.621 67.1343 106.821 65.9345 107.221 63.6307C107.349 62.9108 107.317 62.1909 107.317 61.4869C107.301 58.5912 105.973 57.0554 103.093 56.6554C100.853 56.3355 98.5977 56.6075 96.7419 56.5115Z" fill="black"/>
<path d="M197.818 91.9965C195.866 91.9965 193.931 91.9965 191.995 91.9965C191.643 91.9965 191.563 91.7405 191.451 91.5166C188.907 86.6051 186.347 81.7096 183.868 76.7661C183.404 75.8542 182.908 75.5343 181.884 75.5503C178.588 75.6303 175.277 75.5983 171.965 75.5663C171.277 75.5663 171.149 75.7582 171.149 76.4142C171.181 81.3256 171.149 86.2211 171.181 91.1326C171.181 91.9005 170.941 92.0605 170.237 92.0285C169.069 91.9805 167.885 91.9645 166.718 92.0285C165.982 92.0765 165.854 91.8205 165.854 91.1486C165.87 78.9419 165.87 66.7352 165.87 54.5285C165.87 53.8086 165.918 53.0887 165.854 52.3687C165.806 51.7448 166.046 51.6328 166.622 51.6328C171.533 51.6488 176.428 51.6488 181.34 51.6488C183.708 51.6488 186.075 51.6648 188.379 52.3527C192.731 53.6326 195.354 56.8163 195.818 61.3438C196.09 63.9675 195.994 66.5592 195.051 69.055C194.027 71.7587 192.091 73.5505 189.435 74.5904C188.539 74.9423 188.539 74.9423 189.019 75.8062C191.835 80.9257 194.667 86.0611 197.482 91.1806C197.61 91.4046 197.818 91.6286 197.818 91.9965ZM171.149 63.5995C171.149 65.7273 171.181 67.8711 171.133 69.9989C171.117 70.6228 171.309 70.7668 171.901 70.7348C172.909 70.6868 173.933 70.7348 174.941 70.7188C178.06 70.6548 181.18 70.8788 184.284 70.5908C187.339 70.3028 189.371 68.703 189.995 66.0793C190.347 64.6394 190.331 63.1676 190.107 61.7117C189.707 59.136 188.187 57.5682 185.724 56.8963C184.876 56.6723 183.996 56.5123 183.116 56.5123C179.324 56.4963 175.549 56.5123 171.757 56.4963C171.261 56.4963 171.133 56.6243 171.133 57.1202C171.165 59.28 171.149 61.4398 171.149 63.5995Z" fill="black"/>
<path d="M212.586 105.114C215.45 105.114 218.217 105.13 220.985 105.098C221.449 105.098 221.465 105.418 221.577 105.706C223.977 112.106 226.376 118.489 228.776 124.888C229.864 127.768 230.936 130.648 232.024 133.543C232.328 133.383 232.328 133.079 232.424 132.839C235.799 123.864 239.175 114.889 242.535 105.898C242.743 105.322 242.999 105.082 243.655 105.098C246.262 105.146 248.87 105.114 251.606 105.114C251.238 106.01 250.918 106.81 250.582 107.626C245.446 120.105 240.311 132.599 235.192 145.078C234.984 145.59 234.744 145.814 234.168 145.798C232.776 145.75 231.4 145.75 230.008 145.798C229.48 145.814 229.24 145.654 229.032 145.142C224.121 133.143 219.177 121.161 214.234 109.162C213.69 107.85 213.162 106.522 212.586 105.114Z" fill="black"/>
<path d="M125.235 71.7895C125.235 65.3421 125.251 58.8948 125.219 52.4315C125.219 51.7596 125.395 51.5996 126.067 51.5996C135.186 51.6156 144.305 51.6156 153.424 51.5996C154.096 51.5996 154.288 51.7756 154.256 52.4315C154.192 53.5514 154.192 54.6713 154.256 55.7912C154.288 56.4151 154.064 56.5111 153.504 56.5111C146.145 56.4951 138.785 56.5111 131.426 56.4791C130.706 56.4791 130.514 56.6551 130.514 57.391C130.562 60.9426 130.546 64.4782 130.514 68.0299C130.514 68.6858 130.658 68.8618 131.33 68.8618C137.761 68.8298 144.177 68.8618 150.608 68.8298C151.264 68.8298 151.488 68.9738 151.456 69.6617C151.392 70.7816 151.408 71.9014 151.456 73.0213C151.488 73.6133 151.312 73.7732 150.704 73.7732C144.273 73.7572 137.857 73.7732 131.426 73.7412C130.706 73.7412 130.498 73.9012 130.514 74.6532C130.562 78.5727 130.546 82.4923 130.514 86.4119C130.514 87.0198 130.674 87.1638 131.266 87.1638C138.625 87.1478 145.985 87.1638 153.344 87.1318C154.08 87.1318 154.288 87.3238 154.256 88.0437C154.192 89.0996 154.192 90.1715 154.256 91.2434C154.288 91.8993 154.08 92.0273 153.456 92.0273C146.608 92.0113 139.761 92.0113 132.898 92.0113C130.61 92.0113 128.306 91.9793 126.019 92.0273C125.379 92.0433 125.235 91.8513 125.235 91.2274C125.251 84.7481 125.235 78.2688 125.235 71.7895Z" fill="black"/>
<path d="M309.007 129.16C309.007 134.407 308.991 139.671 309.023 144.918C309.023 145.67 308.783 145.782 308.127 145.766C305.967 145.718 303.807 145.718 301.648 145.766C300.944 145.782 300.768 145.606 300.768 144.886C300.8 134.375 300.784 123.88 300.8 113.369C300.8 112.634 300.608 112.458 299.888 112.474C296.336 112.506 292.801 112.474 289.249 112.506C288.657 112.506 288.481 112.378 288.497 111.77C288.545 109.738 288.529 107.722 288.497 105.69C288.481 105.114 288.673 104.986 289.217 104.986C299.664 105.002 310.111 105.002 320.574 104.986C321.134 104.986 321.294 105.146 321.278 105.706C321.246 107.754 321.246 109.818 321.278 111.866C321.294 112.41 321.102 112.522 320.606 112.506C316.974 112.49 313.358 112.506 309.727 112.474C309.103 112.474 308.991 112.65 308.991 113.225C309.023 118.553 309.007 123.864 309.007 129.16Z" fill="black"/>
<path d="M37.292 91.9961C35.4362 91.9961 33.7084 91.9641 31.9806 92.0121C31.4686 92.0281 31.3567 91.7241 31.2287 91.3722C30.1888 88.6365 29.1329 85.9167 28.109 83.165C27.917 82.6691 27.693 82.4771 27.1331 82.4771C21.4537 82.4931 15.7743 82.4931 10.0949 82.4771C9.53498 82.4771 9.31101 82.6851 9.13503 83.165C8.12713 85.9167 7.08725 88.6364 6.07935 91.3882C5.91937 91.8361 5.69539 91.9961 5.21544 91.9801C3.51962 91.9481 1.80781 91.9641 0 91.9641C0.735922 90.1403 1.45584 88.4125 2.15977 86.6687C6.87927 75.1979 11.6148 63.7111 16.3183 52.2243C16.5422 51.6804 16.7982 51.4404 17.4221 51.4884C18.2381 51.5524 19.07 51.5364 19.9019 51.4884C20.4618 51.4564 20.7338 51.6484 20.9418 52.1763C23.7575 59.0716 26.5892 65.9509 29.4209 72.8301C31.9326 78.9575 34.4603 85.0688 36.9721 91.1962C37.084 91.4682 37.164 91.6921 37.292 91.9961ZM18.654 58.2237C16.0783 64.991 13.5666 71.6143 11.0228 78.2696C11.2308 78.3015 11.3588 78.3335 11.4868 78.3335C16.1743 78.3335 20.8618 78.3335 25.5493 78.3495C26.0932 78.3495 26.1892 78.2216 25.9972 77.7096C25.1493 75.5338 24.3494 73.3421 23.5175 71.1503C21.9177 66.8948 20.3178 62.6552 18.654 58.2237Z" fill="black"/>
<path d="M272.581 91.9969C270.741 91.9969 269.013 91.9809 267.285 92.0129C266.773 92.0289 266.677 91.7249 266.533 91.3729C265.493 88.6372 264.438 85.9175 263.414 83.1818C263.222 82.6859 262.998 82.5099 262.438 82.5099C256.758 82.5259 251.079 82.5259 245.4 82.5099C244.84 82.5099 244.616 82.7178 244.44 83.2138C243.448 85.9335 242.408 88.6372 241.416 91.3729C241.224 91.8849 240.984 92.0609 240.44 92.0449C238.76 91.9969 237.096 92.0289 235.305 92.0289C236.041 90.237 236.729 88.5252 237.432 86.8134C242.168 75.3106 246.919 63.8079 251.639 52.2891C251.863 51.7292 252.135 51.5212 252.743 51.5692C253.623 51.6332 254.503 51.6012 255.383 51.5852C255.767 51.5692 255.99 51.6652 256.15 52.0651C261.558 65.2477 266.997 78.4143 272.421 91.5969C272.501 91.6609 272.517 91.7889 272.581 91.9969ZM253.959 58.2245C251.431 64.8797 248.967 71.3591 246.503 77.8384C246.296 78.3663 246.567 78.3503 246.919 78.3503C251.559 78.3503 256.198 78.3343 260.822 78.3503C261.414 78.3503 261.494 78.2063 261.286 77.6624C260.502 75.6306 259.75 73.5828 258.982 71.551C257.334 67.1515 255.671 62.752 253.959 58.2245Z" fill="black"/>
<path d="M222.056 74.2388C222.056 79.8862 222.04 85.5336 222.072 91.197C222.072 91.8689 221.896 92.0449 221.24 92.0129C219.912 91.9649 218.568 91.9489 217.24 92.0129C216.553 92.0449 216.345 91.8689 216.345 91.149C216.377 83.5818 216.361 76.0146 216.361 68.4474C216.361 64.7198 216.345 60.9922 216.377 57.2486C216.377 56.6567 216.249 56.4967 215.641 56.4967C211.753 56.5287 207.865 56.4967 203.962 56.5287C203.274 56.5287 203.13 56.3367 203.146 55.6968C203.194 54.5609 203.178 53.409 203.146 52.2571C203.13 51.7772 203.242 51.6172 203.754 51.6172C214.073 51.6332 224.392 51.6332 234.695 51.6172C235.223 51.6172 235.303 51.8252 235.287 52.2731C235.255 53.473 235.255 54.6729 235.287 55.8727C235.303 56.4167 235.111 56.5287 234.615 56.5287C230.663 56.5127 226.727 56.5287 222.776 56.4967C222.12 56.4967 222.008 56.7046 222.008 57.2966C222.072 62.944 222.056 68.5914 222.056 74.2388Z" fill="black"/>
<path d="M346.988 16.2766C347.1 15.3167 347.692 14.5168 347.916 13.5889C348.428 11.5251 348.412 9.49332 347.756 7.47754C347.692 7.30155 347.676 7.12557 347.628 6.93359C348.252 7.57353 348.588 8.37344 349.02 9.12536C360.827 29.2032 372.618 49.2971 384.408 69.3909C384.568 69.6629 384.824 69.8869 384.792 70.2388C381.993 67.6791 378.473 66.3353 375.225 64.5115C375.161 64.4155 375.145 64.2555 374.969 64.3515C375.161 64.0155 374.841 63.8235 374.713 63.5996C367.338 51.0089 359.947 38.4342 352.556 25.8436C350.7 22.6759 348.86 19.4603 346.988 16.2766Z" fill="black"/>
<path d="M46.4105 71.8388C46.4105 65.3915 46.4265 58.9282 46.3945 52.4809C46.3945 51.777 46.5705 51.569 47.2744 51.601C48.4743 51.665 49.6742 51.665 50.8741 51.601C51.546 51.569 51.722 51.761 51.722 52.4329C51.69 57.7123 51.706 62.9918 51.706 68.2712C51.706 74.2706 51.722 80.2699 51.69 86.2693C51.69 86.9572 51.834 87.1652 52.5539 87.1652C59.8811 87.1332 67.2083 87.1492 74.5515 87.1332C75.2075 87.1332 75.4314 87.2772 75.3994 87.9651C75.3354 89.085 75.3514 90.2049 75.3994 91.3248C75.4154 91.8847 75.2395 92.0287 74.6795 92.0287C70.312 92.0127 65.9284 92.0127 61.5609 92.0127C56.7934 92.0127 52.0099 91.9967 47.2424 92.0287C46.5865 92.0287 46.3945 91.8847 46.3945 91.1968C46.4265 84.7495 46.4105 78.2862 46.4105 71.8388Z" fill="black"/>
<path d="M57.6097 125.624C57.6097 119.145 57.6257 112.682 57.5938 106.202C57.5938 105.546 57.7537 105.338 58.4257 105.354C60.5374 105.402 62.6332 105.386 64.745 105.37C65.2089 105.37 65.4489 105.418 65.4489 106.01C65.4329 119.065 65.4329 132.12 65.4489 145.174C65.4489 145.67 65.3369 145.798 64.841 145.798C62.6812 145.766 60.5214 145.766 58.3617 145.798C57.7697 145.814 57.6097 145.654 57.6097 145.062C57.6257 138.583 57.6097 132.104 57.6097 125.624Z" fill="black"/>
<path d="M290.048 70.2539C290.064 70.4139 290 70.5259 289.824 70.5579C289.872 70.4299 289.888 70.3019 290.048 70.2539Z" fill="black"/>
<path d="M385.001 70.4458C384.889 70.4298 384.809 70.3658 384.793 70.2379C384.921 70.2219 384.953 70.3339 385.001 70.4458Z" fill="black"/>
<path d="M290.175 70.0781C290.191 70.1901 290.143 70.2541 290.031 70.2701C290.031 70.1741 290.047 70.0781 290.175 70.0781Z" fill="black"/>
<path d="M352.332 57.4234C351.196 55.1996 349.853 53.0878 348.589 50.9281C345.053 44.8807 341.501 38.8494 337.95 32.818C337.806 32.578 337.71 32.2741 337.422 32.1301C338.494 30.3223 339.566 28.5305 340.638 26.7227C346.029 35.8737 351.404 45.0407 356.78 54.1917C357.692 55.7436 358.588 57.3274 359.5 58.8952C357.116 58.3833 354.748 57.8073 352.332 57.4234Z" fill="black"/>
<path d="M301.871 81.6287C304.671 77.4532 307.007 73.0216 309.614 68.7181C310.158 67.8062 310.67 66.8783 311.182 65.9504C313.006 65.1025 314.974 64.6865 316.909 64.1906C317.485 64.0466 318.061 63.7906 318.685 63.8706C317.773 65.7424 316.622 67.4702 315.598 69.262C314.03 72.0137 312.43 74.7335 310.83 77.4692C307.918 78.717 305.023 80.0129 302.255 81.5807C302.159 81.6287 301.999 81.6127 301.871 81.6287Z" fill="black"/>
<path d="M363.689 65.8229C364.585 67.6307 365.689 69.3265 366.697 71.0703C368.472 74.126 370.264 77.1657 372.072 80.2054C372.344 80.6693 372.648 81.1333 372.952 81.5972C372.328 81.5812 371.896 81.1333 371.4 80.8613C369.032 79.6134 366.585 78.5575 364.137 77.4856C364.121 77.3897 364.105 77.2777 363.945 77.3097V77.3257C364.009 76.9417 363.721 76.7017 363.545 76.4138C361.209 72.4142 358.857 68.4306 356.522 64.447C356.41 64.2711 356.346 64.0631 356.266 63.8711C357.833 63.9831 359.305 64.543 360.809 64.943C361.785 65.1989 362.729 65.5349 363.689 65.8229Z" fill="black"/>
<path d="M356.281 63.8721C356.233 63.8241 356.185 63.7761 356.137 63.7441C356.233 63.7441 356.281 63.7761 356.281 63.8721Z" fill="black"/>
<path d="M318.831 63.7266C318.783 63.7746 318.735 63.8226 318.688 63.8705C318.688 63.7746 318.751 63.7426 318.831 63.7266Z" fill="black"/>
<path d="M374.984 64.3519C375.16 64.2719 375.176 64.4319 375.24 64.5119C375.144 64.4959 375 64.5279 374.984 64.3519Z" fill="black"/>
<path d="M301.68 81.7573C301.744 81.7093 301.824 81.6613 301.888 81.6133C301.872 81.7413 301.792 81.7733 301.68 81.7573Z" fill="black"/>
<path d="M332.301 9.14062C331.758 11.2524 332.525 13.0122 333.613 14.756C334.957 16.8838 336.173 19.1076 337.437 21.2833C336.765 22.7712 335.821 24.115 335.021 25.5229C334.813 25.8908 334.573 26.2268 334.365 26.5788C332.27 23.1391 330.222 19.6675 328.254 16.1639C328.59 15.06 329.294 14.1641 329.87 13.1882C330.654 11.8443 331.39 10.4365 332.301 9.14062Z" fill="black"/>
</svg>
