<svg width="400" height="353" viewBox="0 0 400 353" fill="none" xmlns="http://www.w3.org/2000/svg">
<path d="M262.832 39.3536C275.57 36.9772 288.307 34.6008 301.235 37.8327C314.638 41.1597 319.201 51.4258 313.117 63.7833C309.79 70.5323 304.372 75.6654 298.383 79.943C261.406 106.844 218.821 124.905 173.763 132.7C152.376 136.502 130.703 138.118 109.03 135.837C101.71 135.171 94.4859 133.46 87.6418 130.894C74.4289 125.665 71.1969 112.643 79.657 101.141C86.1209 92.3954 95.1513 86.692 104.372 81.3688C106.938 79.943 109.6 78.7072 112.262 77.3764C113.687 80.7034 112.452 82.0342 109.98 83.6502C103.516 88.1179 96.7673 92.4905 91.349 98.0989C83.6494 105.894 86.4061 114.544 97.2426 116.16C108.554 117.776 120.056 118.346 131.463 117.966C165.589 116.635 198.098 107.605 229.562 94.6768C249.619 86.4068 269.201 77.0913 287.167 64.8289C291.539 61.597 295.532 57.8897 298.954 53.7072C300.57 51.9011 301.14 48.7643 301.235 46.1027C301.425 43.4411 299.429 41.2547 296.767 41.0646C296.577 41.0646 296.482 41.0646 296.292 41.0646C288.878 40.9696 281.368 41.1597 273.954 41.3498C271.767 41.4449 269.676 42.2053 267.49 42.2053C265.779 42.2053 264.163 41.4449 262.452 41.0646C262.547 40.4943 262.737 39.9239 262.832 39.3536Z" fill="black"/>
<path d="M239.45 86.4067C237.358 82.6044 236.123 78.3268 233.461 75.4751C228.328 70.0568 221.199 70.1519 214.354 74.5245C213.214 75.285 212.263 76.6158 211.027 76.901C209.412 77.2812 207.605 76.901 205.894 76.8059C206.085 74.9998 205.514 72.3382 206.56 71.4827C209.887 68.8211 213.689 66.7298 217.586 64.2584C213.119 55.0378 214.069 46.3876 222.339 38.7831C215.78 33.3648 208.271 31.3686 200.476 33.2698C194.392 34.7907 188.784 38.1177 182.891 40.5892C180.894 41.4447 178.708 42.1101 176.522 42.3953C170.153 43.4409 163.499 43.631 157.32 45.342C151.142 47.053 146.769 51.8059 144.583 58.3648C146.959 58.9352 149.24 59.6956 151.522 60.5511C157.891 63.1177 160.932 68.1557 159.412 74.8097C158.366 78.8972 156.655 82.6994 154.469 86.3116C153.803 87.4523 151.142 87.2622 149.335 87.7375C149.05 86.0264 148.1 84.2203 148.575 82.6994C149.335 80.0378 151.142 77.5664 152.092 74.9048C153.518 70.8173 152.187 68.4409 148.1 67.015C142.396 65.1139 136.598 65.0188 131.845 69.2013C126.807 73.574 127.662 79.6576 129.373 85.1709C130.324 88.2127 130.039 89.8287 127.472 91.92C120.723 97.4333 120.533 106.559 126.617 112.737C127.092 113.213 127.472 113.593 128.423 114.639C124.24 114.639 120.723 114.924 117.206 114.544C115.78 114.163 114.545 113.213 113.879 111.882C110.932 103.802 111.788 96.0074 116.731 88.9732C118.252 87.0721 118.917 84.6956 118.632 82.3192C117.301 71.6728 120.913 61.4067 132.415 57.4143C133.366 56.939 134.031 56.0835 134.412 55.1329C140.115 41.4447 151.046 34.9808 165.115 32.9846C168.632 32.5093 172.149 32.6994 175.666 32.3192C177.092 32.034 178.423 31.5588 179.659 30.7032C193.632 22.5283 208.176 19.2964 223.1 27.4713C228.138 30.228 233.556 32.2241 239.164 33.3648C251.712 35.7413 260.267 43.631 265.4 55.1329C266.826 58.2698 268.252 60.7413 271.484 62.2622C273.48 63.2127 275.001 65.1139 277.187 67.015C273.86 68.9162 271.104 70.5321 268.727 71.8629C265.97 70.7222 263.404 69.9618 261.313 68.7261C259.982 67.7755 258.936 66.4447 258.461 64.8287C255.609 56.2736 251.237 48.8591 242.586 45.0568C239.164 43.726 235.552 42.8705 231.94 42.3953C228.708 41.92 223.86 46.5778 222.529 50.8553C220.723 56.8439 224.05 63.2127 229.944 65.304C236.598 67.5854 241.446 71.7679 243.917 78.612C245.248 82.2242 245.248 84.8857 240.78 85.9314C240.305 86.0264 239.83 86.2165 239.45 86.4067Z" fill="black"/>
<path d="M94.5812 187.357C87.642 191.445 83.7447 198.954 74.9044 198.004C66.5394 197.148 62.547 190.399 57.5089 184.886C57.1287 184.981 56.7485 185.076 56.4633 185.266C57.0336 192.205 57.699 199.144 58.2694 206.083C58.7447 212.737 59.22 219.391 59.5051 226.045C59.6002 227.661 58.7447 230.323 57.8892 230.608C55.988 231.083 53.1363 231.083 51.9006 229.848C49.9994 228.042 48.7637 225.57 48.2884 223.004C46.5774 206.749 45.2466 190.494 43.6306 174.239C42.9652 167.871 46.1971 162.833 52.566 162.072C54.5622 161.787 57.2238 163.308 58.7447 164.829C61.5013 167.585 63.4025 171.293 66.2542 173.954C69.296 176.711 72.5279 179.087 76.0451 181.083C78.4215 182.509 80.5127 181.559 81.9386 179.182C83.3644 176.806 84.7903 174.239 86.4063 171.863C90.1135 166.064 94.8663 163.878 100.094 165.399C104.847 166.73 110.551 174.334 109.98 179.658C108.46 193.346 106.558 206.939 104.657 220.532C104.277 223.384 103.041 226.141 99.4291 226.426C96.007 226.616 93.5355 224.525 93.3454 220.722C93.2504 217.49 93.4405 214.163 93.7257 210.931C93.9158 203.137 94.296 195.247 94.5812 187.357Z" fill="black"/>
<path d="M241.444 116.54C243.916 115.399 245.912 114.544 247.813 113.688C253.136 119.201 264.068 121.483 269.391 118.346C275.57 114.734 277.566 108.65 274.904 99.7146C277.471 98.1937 280.228 96.5777 282.889 94.8667C288.403 103.042 287.452 113.688 280.893 121.578C279.562 123.289 278.612 125.38 278.422 127.566C277.566 137.642 268.631 147.243 257.129 148.004C243.916 148.859 230.703 148.764 217.49 147.909C212.357 147.528 207.319 144.391 202.661 141.825C199.144 139.829 197.338 136.217 197.053 131.654C200.475 130.703 203.707 129.753 207.129 128.802C211.121 136.502 218.155 138.498 225.95 138.593C234.695 138.688 243.441 138.593 252.186 138.593C256.844 138.688 261.406 136.977 264.828 133.745C266.539 132.034 267.49 129.563 269.106 126.806C257.889 126.901 247.718 127.376 241.444 116.54Z" fill="black"/>
<path d="M234.791 213.403C240.114 213.403 244.962 213.308 249.81 213.403C252.661 213.498 254.848 214.639 254.943 217.966C255.038 221.293 252.471 222.528 249.81 222.528C244.676 222.528 239.543 222.053 234.22 221.768V237.262C234.22 244.201 228.137 249.049 221.387 247.148C220.152 246.483 219.391 245.247 219.201 243.916C219.962 234.03 221.292 224.239 221.958 214.354C222.433 207.034 222.053 199.62 222.528 192.3C223.194 180.608 230.608 174.62 242.015 177.091C246.958 178.137 251.711 180.418 256.464 182.509C258.175 183.365 259.505 184.791 260.361 186.502C262.167 189.639 260.361 192.395 256.749 192.015C254.372 191.73 251.996 191.16 249.619 190.494C241.635 188.783 237.547 191.35 236.311 199.335C235.551 203.992 235.266 208.65 234.791 213.403Z" fill="black"/>
<path d="M204.563 225.475C201.521 226.711 198.954 228.137 196.293 228.802C186.787 231.369 178.802 223.574 181.464 214.068C182.604 210.266 184.411 206.749 186.882 203.707C190.114 199.715 194.582 197.718 200.285 200C200.855 194.677 201.331 189.448 202.091 184.22C202.376 181.369 203.137 178.612 204.182 175.95C204.848 174.334 206.749 173.289 208.175 171.958C208.935 173.574 210.266 175.095 210.266 176.806C210.741 187.737 210.931 198.574 211.217 209.506C211.312 214.544 211.787 219.582 211.692 224.62C211.692 226.331 210.361 227.947 209.601 229.658C208.175 228.517 206.654 227.471 205.228 226.236C204.943 226.045 204.753 225.76 204.563 225.475ZM199.81 207.795C193.251 210.076 191.54 215.779 195.342 221.578C199.239 217.775 199.335 213.023 199.81 207.795Z" fill="black"/>
<path d="M308.46 210.456C304.943 217.966 307.51 223.384 315.304 224.81C317.586 225.19 319.867 225.19 322.244 225.38C325.476 225.57 325.856 227.661 324.05 229.372C322.149 231.274 319.772 232.699 317.206 233.365C303.517 236.121 295.152 228.422 296.293 214.544C297.434 199.525 311.502 188.688 325 192.68C329.183 193.916 332.7 196.198 334.221 200.57C336.027 205.798 334.506 209.315 329.373 211.407C324.145 213.498 318.346 213.688 312.928 211.977C311.597 211.597 310.171 211.026 308.46 210.456ZM310.361 203.327C313.498 205.703 319.677 207.319 322.814 206.369C323.955 205.988 324.905 205.323 325.476 204.277C325.761 203.612 325.095 202.186 324.43 201.426C321.293 198.099 313.118 199.144 310.361 203.327Z" fill="black"/>
<path d="M151.332 189.544C153.613 188.403 155.609 187.262 157.795 186.407C164.83 183.46 171.484 185.741 173.575 193.061C175.286 199.049 175.096 205.608 175.476 211.882C175.571 212.833 174.05 214.639 173.385 214.639C171.959 214.449 170.628 213.783 169.773 212.642C168.917 211.407 168.917 209.601 168.537 207.985C168.062 205.323 167.396 202.661 166.541 200.095C166.065 198.859 164.545 197.433 163.499 197.338C162.453 197.243 160.742 198.669 160.267 199.81C159.031 203.042 157.891 206.369 157.035 209.791C156.655 211.217 156.75 213.213 155.894 214.068C154.088 215.779 151.807 217.68 149.43 218.156C146.674 218.726 144.487 216.35 144.012 213.593C143.252 208.935 143.252 204.087 142.301 199.429C141.541 195.437 140.02 191.635 138.879 187.737C138.689 187.262 138.404 186.407 138.594 186.312C141.065 184.601 143.347 182.509 146.103 181.559C147.054 181.274 149.24 183.745 150.381 185.361C151.141 186.312 151.046 187.833 151.332 189.544Z" fill="black"/>
<path d="M354.469 183.175C353.613 191.54 352.092 199.81 351.997 208.175C351.997 214.544 353.898 220.912 354.849 227.186C355.229 229.943 355.514 232.604 352.187 234.125C347.339 236.312 344.298 235.266 343.632 229.943C342.587 221.768 342.111 213.403 341.731 205.133C341.256 195.247 341.351 185.361 338.879 175.57C337.358 169.582 339.26 167.49 344.203 166.825C349.336 166.16 353.043 169.106 353.518 174.525C353.803 177.376 353.898 180.228 354.089 183.08C354.279 183.08 354.374 183.08 354.469 183.175Z" fill="black"/>
<path d="M154.277 111.692C157.985 101.996 164.163 95.0569 173.099 90.6842C169.106 79.8477 169.582 69.8667 177.091 60.9314C182.794 54.0873 190.209 50.8553 199.144 51.6158C200.475 51.7109 202.186 51.8059 203.042 52.5664C204.372 53.8021 205.038 55.6082 206.083 57.1291C204.467 57.8896 202.566 59.6956 201.236 59.4105C192.775 57.4143 186.502 60.6462 181.654 67.1101C176.806 73.574 176.996 80.7983 180.133 87.7375C185.361 87.7375 190.399 87.5474 195.342 87.8325C197.148 88.0226 198.859 88.8782 200 90.304C201.616 92.8706 199.334 95.0569 195.722 95.1519C190.589 95.247 185.361 95.0569 180.323 96.0074C174.144 97.0531 168.726 100.76 165.494 106.179C163.023 110.741 159.601 111.977 154.277 111.692Z" fill="black"/>
<path d="M259.315 218.631C259.315 217.11 259.22 215.589 259.315 214.163C259.601 209.981 263.213 206.749 267.395 206.939C267.585 206.939 267.776 206.939 268.061 207.034C272.243 207.604 274.525 211.502 273.764 216.254C273.004 220.247 272.528 224.239 272.243 228.327C272.053 230.893 273.004 233.365 276.046 233.84C279.468 234.41 280.133 231.749 280.703 229.372C281.464 226.235 281.844 222.908 282.319 219.772C282.604 218.156 282.224 216.159 283.08 215.019C284.22 213.403 285.836 212.357 287.738 211.882C288.498 211.692 290.589 213.973 290.779 215.304C291.73 224.619 289.924 233.365 283.27 240.209C277.947 245.722 267.68 243.916 263.688 236.312C260.931 231.083 259.886 224.905 258.175 219.106C258.555 218.821 258.935 218.726 259.315 218.631Z" fill="black"/>
<path d="M303.707 124.43C308.175 121.863 313.593 119.962 317.205 116.35C320.817 112.738 322.718 107.224 325.095 103.042C326.901 113.973 334.03 121.198 346.102 123.954C333.84 126.426 326.996 133.84 324.62 145.817C322.148 133.745 315.304 126.426 303.707 124.43Z" fill="black"/>
<path d="M103.517 59.3154C101.235 48.0987 95.0565 42.5854 84.4102 40.7793C95.4368 38.593 101.806 32.8896 103.422 21.958C105.228 32.4143 110.741 38.688 122.053 40.7793C111.882 43.3458 105.513 48.4789 103.517 59.3154Z" fill="black"/>
<path d="M134.03 212.357C133.079 215.684 132.794 219.297 131.083 222.148C128.707 226.141 124.334 225.665 122.528 221.388C119.391 214.068 118.916 205.894 121.007 198.194C122.053 194.297 124.049 193.821 127.376 196.008C130.323 198.004 132.414 200.57 132.604 204.278C132.794 206.844 132.984 209.411 133.269 211.977C133.459 212.167 133.745 212.262 134.03 212.357Z" fill="black"/>
<path d="M235.267 12.9278C242.206 11.7871 245.723 7.31939 247.434 0C248.575 7.41445 252.282 11.1217 259.411 12.9278C253.042 14.7338 249.05 17.9658 247.244 24.0494C245.533 17.7757 241.35 14.3536 235.267 12.9278Z" fill="black"/>
<path d="M126.33 181.559C122.813 181.654 119.867 178.897 119.771 175.38C119.771 175.19 119.771 175 119.771 174.81C119.962 171.483 122.433 170.722 125.19 170.627C128.897 170.532 132.319 172.718 132.319 175.19C132.319 178.517 129.657 181.369 126.33 181.559Z" fill="black"/>
<path d="M20.4373 306.844C19.962 308.175 19.2966 309.316 18.346 310.171C17.3954 311.027 16.2548 311.692 14.8289 312.072C13.403 312.453 11.7871 312.643 9.88593 312.643C8.26996 312.643 6.65399 312.453 5.13308 312.072C3.61217 311.692 2.18631 311.217 0.95057 310.551L2.94677 306.274C3.9924 306.844 5.03802 307.319 6.17871 307.605C7.22433 307.89 8.46008 308.08 9.79087 308.08C11.7871 308.08 13.2129 307.605 14.1635 306.654C15.1141 305.704 15.5894 304.373 15.5894 302.567V301.616C14.7338 302.662 13.7833 303.422 12.8327 303.992C11.7871 304.563 10.5513 304.848 9.03042 304.848C7.88973 304.848 6.74905 304.658 5.60837 304.183C4.56274 303.802 3.61217 303.137 2.75665 302.377C1.90114 301.616 1.23574 300.57 0.760456 299.43C0.285171 298.289 0 296.958 0 295.437V295.342C0 293.821 0.285171 292.491 0.760456 291.35C1.23574 290.209 1.90114 289.164 2.75665 288.403C3.61217 287.643 4.56274 286.977 5.60837 286.597C6.65399 286.217 7.79468 285.932 8.93536 285.932C10.4563 285.932 11.7871 286.217 12.8327 286.787C13.8783 287.357 14.7338 288.118 15.4943 288.973V286.312H21.1977V301.996C21.1977 303.897 20.9125 305.513 20.4373 306.844ZM15.4943 295.342C15.4943 294.677 15.3992 294.011 15.1141 293.441C14.8289 292.871 14.5437 292.396 14.0684 291.92C13.5932 291.54 13.1179 291.16 12.5475 290.97C11.9772 290.78 11.3118 290.589 10.5513 290.589C9.88593 290.589 9.22053 290.685 8.65019 290.97C8.07985 291.16 7.50951 291.54 7.12928 291.92C6.65399 292.3 6.36882 292.871 6.08365 293.441C5.79848 294.011 5.70342 294.677 5.70342 295.342V295.437C5.70342 296.863 6.17871 298.004 7.12928 298.859C8.07985 299.715 9.22053 300.19 10.6464 300.19C11.3118 300.19 11.9772 300.095 12.6426 299.81C13.2129 299.62 13.7833 299.24 14.1635 298.859C14.6388 298.479 14.924 297.909 15.2091 297.338C15.3992 296.768 15.4943 296.103 15.4943 295.342Z" fill="black"/>
<path d="M45.1521 297.719C45.1521 297.909 45.1521 298.194 45.057 298.479H31.0836C31.3688 299.81 31.9391 300.761 32.7946 301.426C33.6502 302.091 34.6958 302.472 36.0266 302.472C36.9772 302.472 37.8327 302.281 38.5931 301.996C39.3536 301.711 40.114 301.141 40.9696 300.38L44.2966 303.327C43.346 304.468 42.2053 305.418 40.7794 306.084C39.4486 306.749 37.8327 307.129 36.0266 307.129C34.5057 307.129 33.0798 306.844 31.8441 306.369C30.5133 305.894 29.4677 305.133 28.5171 304.183C27.5665 303.232 26.8061 302.186 26.3308 300.856C25.7604 299.62 25.5703 298.194 25.5703 296.578V296.483C25.5703 295.057 25.8555 293.726 26.3308 292.396C26.8061 291.065 27.4715 290.019 28.422 289.069C29.2775 288.118 30.3232 287.357 31.5589 286.787C32.7946 286.217 34.1254 285.932 35.6464 285.932C37.3574 285.932 38.7832 286.217 40.019 286.882C41.2547 287.453 42.3004 288.308 43.0608 289.354C43.9163 290.399 44.4867 291.54 44.8669 292.871C45.2471 294.202 45.4372 295.532 45.4372 297.053V297.148C45.2471 297.243 45.2471 297.529 45.1521 297.719ZM38.2129 291.73C37.4524 290.97 36.5019 290.494 35.2661 290.494C34.0304 290.494 33.0798 290.875 32.3194 291.635C31.5589 292.396 31.0836 293.441 30.8935 294.772H39.5437C39.4486 293.536 38.9734 292.491 38.2129 291.73Z" fill="black"/>
<path d="M68.3458 297.719C68.3458 297.909 68.3458 298.194 68.2507 298.479H54.1823C54.4674 299.81 55.0378 300.761 55.8933 301.426C56.7488 302.091 57.7944 302.472 59.1252 302.472C60.0758 302.472 60.9313 302.281 61.6918 301.996C62.4522 301.711 63.2127 301.141 64.0682 300.38L67.3952 303.327C66.4446 304.468 65.3039 305.418 63.8781 306.084C62.5473 306.749 60.9313 307.129 59.1252 307.129C57.6043 307.129 56.1785 306.844 54.9427 306.369C53.6119 305.894 52.5663 305.133 51.6157 304.183C50.6651 303.232 49.9047 302.186 49.4294 300.856C48.8591 299.62 48.6689 298.194 48.6689 296.578V296.483C48.6689 295.057 48.9541 293.726 49.4294 292.396C49.9047 291.065 50.5701 290.019 51.5207 289.069C52.3762 288.118 53.4218 287.357 54.6575 286.787C55.8933 286.217 57.2241 285.932 58.745 285.932C60.456 285.932 61.8819 286.217 63.1176 286.882C64.3534 287.453 65.399 288.308 66.1594 289.354C67.015 290.399 67.5853 291.54 67.9655 292.871C68.3458 294.202 68.5359 295.532 68.5359 297.053V297.148C68.3457 297.243 68.3458 297.529 68.3458 297.719ZM61.4066 291.73C60.6461 290.97 59.6956 290.494 58.4598 290.494C57.2241 290.494 56.2735 290.875 55.5131 291.635C54.7526 292.396 54.2773 293.441 54.0872 294.772H62.7374C62.6423 293.536 62.167 292.491 61.4066 291.73Z" fill="black"/>
<path d="M85.6468 306.559L80.3236 298.289L78.3274 300.38V306.559H72.624V278.992H78.3274V293.726L85.0765 286.312H91.9206L84.221 294.297L92.2058 306.559H85.6468V306.559Z" fill="black"/>
<path d="M113.973 302.281C113.498 303.327 112.833 304.183 111.977 304.848C111.122 305.513 110.076 306.084 108.935 306.464C107.795 306.844 106.464 307.034 105.038 307.034C103.042 307.034 101.046 306.654 99.1445 305.989C97.2433 305.323 95.4373 304.278 93.8213 302.757L97.2433 298.669C98.4791 299.62 99.7148 300.475 100.951 301.046C102.186 301.616 103.612 301.901 105.133 301.901C106.369 301.901 107.319 301.711 107.985 301.236C108.65 300.761 109.03 300.19 109.03 299.43V299.335C109.03 298.954 108.935 298.669 108.84 298.289C108.745 298.004 108.46 297.719 108.08 297.434C107.7 297.148 107.129 296.958 106.464 296.673C105.798 296.388 104.848 296.198 103.802 295.913C102.471 295.627 101.236 295.247 100.19 294.772C99.1445 294.392 98.1939 293.916 97.4335 293.251C96.673 292.681 96.1027 291.92 95.6274 291.065C95.2471 290.209 94.962 289.069 94.962 287.738V287.643C94.962 286.407 95.1521 285.361 95.6274 284.411C96.1027 283.46 96.673 282.605 97.5285 281.939C98.384 281.274 99.3346 280.704 100.475 280.323C101.616 279.943 102.852 279.753 104.183 279.753C106.084 279.753 107.89 280.038 109.506 280.608C111.122 281.179 112.643 282.034 113.973 283.08L110.932 287.453C109.791 286.692 108.555 286.027 107.414 285.551C106.274 285.076 105.133 284.886 103.992 284.886C102.852 284.886 101.996 285.076 101.426 285.551C100.856 286.027 100.57 286.502 100.57 287.167V287.262C100.57 287.738 100.665 288.023 100.856 288.403C101.046 288.688 101.331 288.973 101.711 289.259C102.186 289.544 102.757 289.734 103.517 290.019C104.278 290.209 105.228 290.494 106.369 290.78C107.7 291.16 108.935 291.54 109.981 292.015C111.027 292.491 111.882 292.966 112.643 293.631C113.403 294.202 113.878 294.962 114.259 295.818C114.639 296.673 114.829 297.624 114.829 298.764V298.859C114.734 300.095 114.449 301.236 113.973 302.281Z" fill="black"/>
<path d="M128.517 306.559C127.757 306.749 126.901 306.844 125.951 306.844C125.095 306.844 124.24 306.749 123.574 306.559C122.814 306.369 122.243 306.084 121.768 305.513C121.293 305.038 120.818 304.373 120.532 303.612C120.247 302.852 120.057 301.901 120.057 300.666V291.065H117.681V286.122H120.057V280.989H125.761V286.122H130.513V291.065H125.761V299.715C125.761 301.046 126.331 301.711 127.567 301.711C128.612 301.711 129.563 301.426 130.418 300.951V305.513C129.943 306.084 129.278 306.369 128.517 306.559Z" fill="black"/>
<path d="M146.767 306.559V304.373C146.102 305.133 145.246 305.798 144.201 306.274C143.25 306.749 142.014 306.939 140.589 306.939C139.638 306.939 138.687 306.844 137.927 306.559C137.071 306.274 136.311 305.894 135.741 305.323C135.075 304.753 134.6 304.182 134.22 303.422C133.84 302.662 133.649 301.806 133.649 300.76V300.665C133.649 299.525 133.84 298.574 134.22 297.814C134.6 297.053 135.17 296.293 135.931 295.817C136.691 295.247 137.547 294.867 138.497 294.582C139.448 294.297 140.589 294.202 141.824 294.202C142.87 294.202 143.725 294.297 144.486 294.392C145.246 294.582 146.007 294.772 146.767 294.962V294.582C146.767 293.346 146.387 292.49 145.627 291.825C144.866 291.16 143.821 290.875 142.395 290.875C141.254 290.875 140.303 290.97 139.448 291.16C138.592 291.35 137.737 291.635 136.786 292.015L135.36 287.643C136.501 287.167 137.642 286.787 138.878 286.502C140.113 286.217 141.539 286.027 143.25 286.027C146.387 286.027 148.668 286.787 150.094 288.308C151.52 289.829 152.281 292.015 152.281 294.772V306.559H146.767V306.559ZM146.862 298.384C146.387 298.194 145.817 298.004 145.151 297.814C144.486 297.624 143.916 297.624 143.155 297.624C141.919 297.624 140.969 297.909 140.208 298.384C139.543 298.859 139.163 299.525 139.163 300.475V300.57C139.163 301.331 139.448 301.996 140.018 302.376C140.589 302.852 141.349 303.042 142.3 303.042C143.63 303.042 144.771 302.757 145.532 302.091C146.387 301.426 146.767 300.57 146.767 299.525V298.384H146.862Z" fill="black"/>
<path d="M169.107 291.92C167.206 291.92 165.685 292.49 164.544 293.631C163.403 294.772 162.928 296.578 162.928 299.049V306.559H157.225V286.312H162.928V290.399C163.498 288.973 164.259 287.928 165.304 287.072C166.35 286.217 167.681 285.836 169.392 285.931V291.92H169.107Z" fill="black"/>
<path d="M182.415 306.559C181.654 306.749 180.799 306.844 179.848 306.844C178.993 306.844 178.137 306.749 177.472 306.559C176.711 306.369 176.141 306.084 175.666 305.513C175.19 305.038 174.715 304.373 174.43 303.612C174.145 302.852 173.955 301.901 173.955 300.666V291.065H171.578V286.122H173.955V280.989H179.658V286.122H184.411V291.065H179.658V299.715C179.658 301.046 180.228 301.711 181.464 301.711C182.51 301.711 183.46 301.426 184.316 300.951V305.513C183.84 306.084 183.175 306.369 182.415 306.559Z" fill="black"/>
<path d="M207.605 297.719C207.605 297.909 207.605 298.194 207.509 298.479H193.441C193.726 299.81 194.297 300.761 195.152 301.426C196.008 302.091 197.053 302.472 198.384 302.472C199.335 302.472 200.19 302.281 200.951 301.996C201.711 301.711 202.471 301.141 203.327 300.38L206.654 303.327C205.703 304.468 204.563 305.418 203.137 306.084C201.806 306.749 200.19 307.129 198.384 307.129C196.863 307.129 195.437 306.844 194.201 306.369C192.871 305.894 191.825 305.133 190.874 304.183C189.924 303.232 189.163 302.186 188.688 300.856C188.118 299.62 187.928 298.194 187.928 296.578V296.483C187.928 295.057 188.213 293.726 188.688 292.396C189.163 291.065 189.829 290.019 190.779 289.069C191.635 288.118 192.681 287.357 193.916 286.787C195.152 286.217 196.483 285.932 198.004 285.932C199.715 285.932 201.141 286.217 202.376 286.882C203.612 287.453 204.658 288.308 205.418 289.354C206.274 290.399 206.844 291.54 207.224 292.871C207.605 294.202 207.795 295.532 207.795 297.053V297.148C207.605 297.243 207.605 297.529 207.605 297.719ZM200.665 291.73C199.905 290.97 198.954 290.494 197.719 290.494C196.483 290.494 195.532 290.875 194.772 291.635C194.011 292.396 193.536 293.441 193.346 294.772H201.996C201.806 293.536 201.426 292.491 200.665 291.73Z" fill="black"/>
<path d="M223.765 291.92C221.864 291.92 220.343 292.49 219.202 293.631C218.062 294.772 217.586 296.578 217.586 299.049V306.559H211.883V286.312H217.586V290.399C218.157 288.973 218.917 287.928 219.963 287.072C221.008 286.217 222.339 285.836 224.05 285.931V291.92H223.765Z" fill="black"/>
<path d="M259.506 300.951C259.03 302.281 258.27 303.327 257.509 304.278C256.654 305.133 255.703 305.798 254.563 306.274C253.422 306.749 252.281 306.939 251.046 306.939C249.525 306.939 248.289 306.654 247.243 306.084C246.198 305.513 245.437 304.753 244.772 303.992V312.643H239.068V286.312H244.772V289.163C245.437 288.213 246.293 287.452 247.338 286.787C248.289 286.217 249.62 285.836 251.141 285.836C252.281 285.836 253.517 286.027 254.563 286.502C255.703 286.977 256.654 287.643 257.509 288.498C258.365 289.354 259.03 290.494 259.601 291.825C260.076 293.156 260.361 294.582 260.361 296.293V296.388C260.266 298.194 259.981 299.62 259.506 300.951ZM254.563 296.388C254.563 295.532 254.468 294.772 254.182 294.106C253.897 293.441 253.517 292.776 253.137 292.3C252.662 291.825 252.186 291.445 251.616 291.16C251.046 290.874 250.38 290.779 249.715 290.779C249.049 290.779 248.384 290.874 247.814 291.16C247.243 291.445 246.673 291.825 246.293 292.3C245.817 292.776 245.532 293.346 245.247 294.106C244.962 294.772 244.867 295.532 244.867 296.388V296.483C244.867 297.338 244.962 298.099 245.247 298.764C245.532 299.43 245.817 300.095 246.293 300.57C246.768 301.046 247.243 301.426 247.814 301.711C248.384 301.996 249.049 302.091 249.715 302.091C250.38 302.091 251.046 301.996 251.616 301.711C252.186 301.426 252.757 301.046 253.137 300.57C253.612 300.095 253.992 299.525 254.182 298.764C254.373 298.004 254.563 297.338 254.563 296.388Z" fill="black"/>
<path d="M276.426 291.92C274.525 291.92 273.004 292.49 271.863 293.631C270.723 294.772 270.247 296.578 270.247 299.049V306.559H264.544V286.312H270.247V290.399C270.818 288.973 271.578 287.928 272.624 287.072C273.669 286.217 275 285.836 276.711 285.931V291.92H276.426Z" fill="black"/>
<path d="M300.38 300.57C299.81 301.806 299.049 302.947 298.099 303.897C297.148 304.848 295.912 305.608 294.582 306.179C293.251 306.749 291.825 307.034 290.209 307.034C288.688 307.034 287.167 306.749 285.836 306.179C284.505 305.608 283.365 304.848 282.414 303.992C281.464 303.042 280.703 301.901 280.133 300.665C279.563 299.43 279.277 298.004 279.277 296.578V296.483C279.277 295.057 279.563 293.631 280.133 292.396C280.703 291.16 281.464 290.019 282.414 289.069C283.365 288.118 284.601 287.357 285.931 286.787C287.262 286.217 288.688 285.932 290.304 285.932C291.825 285.932 293.346 286.217 294.677 286.787C296.007 287.357 297.148 288.118 298.099 288.973C299.049 289.924 299.81 291.065 300.38 292.3C300.95 293.536 301.236 294.962 301.236 296.388V296.483C301.236 297.909 300.95 299.335 300.38 300.57ZM295.532 296.483C295.532 295.723 295.437 295.057 295.152 294.392C294.867 293.726 294.582 293.156 294.011 292.586C293.536 292.11 292.966 291.635 292.3 291.35C291.635 291.065 290.969 290.875 290.114 290.875C289.258 290.875 288.593 291.065 287.928 291.35C287.262 291.635 286.692 292.015 286.312 292.586C285.836 293.061 285.551 293.631 285.266 294.297C284.981 294.962 284.886 295.723 284.886 296.388V296.483C284.886 297.243 284.981 297.909 285.266 298.574C285.551 299.24 285.836 299.81 286.407 300.38C286.882 300.856 287.452 301.331 288.118 301.616C288.783 301.901 289.448 302.091 290.304 302.091C291.159 302.091 291.92 301.901 292.49 301.616C293.061 301.331 293.726 300.951 294.106 300.38C294.582 299.905 294.867 299.335 295.152 298.669C295.437 298.004 295.532 297.338 295.532 296.483Z" fill="black"/>
<path d="M325.095 306.844C324.62 308.175 323.955 309.316 323.004 310.171C322.054 311.027 320.913 311.692 319.487 312.072C318.061 312.453 316.445 312.643 314.544 312.643C312.928 312.643 311.312 312.453 309.791 312.072C308.27 311.692 306.845 311.217 305.609 310.551L307.605 306.274C308.651 306.844 309.696 307.319 310.837 307.605C311.883 307.89 313.118 308.08 314.449 308.08C316.445 308.08 317.871 307.605 318.822 306.654C319.772 305.704 320.248 304.373 320.248 302.567V301.616C319.392 302.662 318.441 303.422 317.491 303.992C316.445 304.563 315.21 304.848 313.689 304.848C312.548 304.848 311.407 304.658 310.267 304.183C309.221 303.802 308.27 303.137 307.415 302.377C306.559 301.616 305.894 300.57 305.419 299.43C304.943 298.289 304.658 296.958 304.658 295.437V295.342C304.658 293.821 304.943 292.491 305.419 291.35C305.894 290.209 306.559 289.164 307.415 288.403C308.27 287.643 309.221 286.977 310.267 286.597C311.312 286.217 312.453 285.932 313.594 285.932C315.114 285.932 316.445 286.217 317.491 286.787C318.537 287.357 319.392 288.118 320.152 288.973V286.312H325.856V301.996C325.761 303.897 325.571 305.513 325.095 306.844ZM320.057 295.342C320.057 294.677 319.962 294.011 319.677 293.441C319.392 292.871 319.107 292.396 318.632 291.92C318.156 291.54 317.681 291.16 317.111 290.97C316.54 290.78 315.875 290.589 315.114 290.589C314.449 290.589 313.784 290.685 313.213 290.97C312.643 291.16 312.073 291.54 311.692 291.92C311.217 292.3 310.932 292.871 310.647 293.441C310.362 294.011 310.267 294.677 310.267 295.342V295.437C310.267 296.863 310.742 298.004 311.692 298.859C312.643 299.715 313.784 300.19 315.21 300.19C315.875 300.19 316.54 300.095 317.206 299.81C317.871 299.525 318.346 299.24 318.727 298.859C319.107 298.479 319.487 297.909 319.772 297.338C319.962 296.768 320.057 296.103 320.057 295.342Z" fill="black"/>
<path d="M342.776 291.92C340.875 291.92 339.354 292.49 338.213 293.631C337.072 294.772 336.597 296.578 336.597 299.049V306.559H330.894V286.312H336.597V290.399C337.167 288.973 337.928 287.928 338.973 287.072C340.019 286.217 341.35 285.836 343.061 285.931V291.92H342.776Z" fill="black"/>
<path d="M358.555 306.559V304.373C357.89 305.133 357.034 305.798 355.989 306.274C355.038 306.749 353.803 306.939 352.377 306.939C351.426 306.939 350.476 306.844 349.715 306.559C348.86 306.274 348.099 305.894 347.529 305.323C346.863 304.753 346.388 304.182 346.008 303.422C345.628 302.662 345.438 301.806 345.438 300.76V300.665C345.438 299.525 345.628 298.574 346.008 297.814C346.388 297.053 346.958 296.293 347.719 295.817C348.479 295.247 349.335 294.867 350.285 294.582C351.236 294.297 352.377 294.202 353.612 294.202C354.658 294.202 355.514 294.297 356.274 294.392C357.034 294.582 357.795 294.772 358.555 294.962V294.582C358.555 293.346 358.175 292.49 357.415 291.825C356.654 291.16 355.609 290.875 354.183 290.875C353.042 290.875 352.091 290.97 351.236 291.16C350.38 291.35 349.525 291.635 348.574 292.015L347.149 287.643C348.289 287.167 349.43 286.787 350.666 286.502C351.901 286.217 353.327 286.027 355.038 286.027C358.175 286.027 360.457 286.787 361.882 288.308C363.308 289.829 364.069 292.015 364.069 294.772V306.559H358.555V306.559ZM358.65 298.384C358.175 298.194 357.605 298.004 356.939 297.814C356.274 297.719 355.704 297.624 354.943 297.624C353.707 297.624 352.757 297.909 351.996 298.384C351.331 298.859 350.951 299.525 350.951 300.475V300.57C350.951 301.331 351.236 301.996 351.806 302.376C352.377 302.852 353.137 303.042 354.088 303.042C355.418 303.042 356.559 302.757 357.32 302.091C358.08 301.426 358.555 300.57 358.555 299.525V298.384H358.65Z" fill="black"/>
<path d="M394.201 306.559V295.247C394.201 293.916 393.916 292.871 393.346 292.205C392.776 291.54 391.92 291.16 390.875 291.16C389.829 291.16 388.973 291.54 388.308 292.205C387.643 292.871 387.357 293.916 387.357 295.247V306.559H381.654V295.247C381.654 293.916 381.369 292.871 380.798 292.205C380.228 291.54 379.373 291.16 378.327 291.16C377.281 291.16 376.426 291.54 375.76 292.205C375.095 292.871 374.81 293.916 374.81 295.247V306.559H369.106V286.312H374.81V289.163C375.095 288.688 375.475 288.308 375.856 287.928C376.236 287.547 376.711 287.167 377.186 286.882C377.662 286.597 378.232 286.312 378.802 286.122C379.373 285.932 380.038 285.836 380.798 285.836C382.129 285.836 383.27 286.122 384.221 286.692C385.171 287.262 385.932 288.023 386.502 289.068C387.357 288.023 388.403 287.167 389.449 286.692C390.494 286.217 391.73 285.836 393.156 285.836C395.342 285.836 396.958 286.502 398.194 287.738C399.43 288.973 400 290.874 400 293.251V306.464H394.201V306.559Z" fill="black"/>
<path d="M87.1677 351.901V349.715C86.5023 350.475 85.6468 351.141 84.6011 351.616C83.6506 352.091 82.4148 352.281 80.989 352.281C80.0384 352.281 79.0878 352.186 78.3274 351.901C77.4719 351.616 76.7114 351.236 76.1411 350.665C75.4757 350.095 75.0004 349.525 74.6201 348.764C74.2399 348.004 74.0498 347.148 74.0498 346.102V346.007C74.0498 344.867 74.2399 343.916 74.6201 343.156C75.0004 342.395 75.5707 341.635 76.3312 341.16C77.0916 340.589 77.9471 340.209 78.8977 339.924C79.8483 339.639 80.989 339.544 82.2247 339.544C83.2703 339.544 84.1259 339.639 84.8863 339.734C85.6468 339.924 86.4072 340.114 87.1677 340.304V339.924C87.1677 338.688 86.7874 337.833 86.027 337.167C85.2665 336.502 84.2209 336.217 82.795 336.217C81.6544 336.217 80.7038 336.312 79.8483 336.502C78.9928 336.692 78.1373 336.977 77.1867 337.357L75.7608 332.985C76.9015 332.509 78.0422 332.129 79.2779 331.844C80.5137 331.559 81.9395 331.369 83.6506 331.369C86.7874 331.369 89.0688 332.129 90.4947 333.65C91.9205 335.171 92.681 337.357 92.681 340.114V351.901H87.1677V351.901ZM87.2627 343.726C86.7874 343.536 86.2171 343.346 85.5517 343.156C84.8863 342.966 84.316 342.966 83.5555 342.966C82.3198 342.966 81.3692 343.251 80.6087 343.726C79.9433 344.201 79.5631 344.867 79.5631 345.817V345.912C79.5631 346.673 79.8483 347.338 80.4186 347.718C80.989 348.194 81.7494 348.384 82.7 348.384C84.0308 348.384 85.1715 348.099 85.9319 347.433C86.7874 346.768 87.1677 345.912 87.1677 344.867V343.726H87.2627Z" fill="black"/>
<path d="M110.457 351.901V340.589C110.457 339.259 110.172 338.213 109.506 337.548C108.936 336.882 108.08 336.502 106.94 336.502C105.799 336.502 104.943 336.882 104.278 337.548C103.613 338.213 103.327 339.259 103.327 340.589V351.901H97.624V331.654H103.327V334.506C103.613 334.03 103.993 333.65 104.373 333.27C104.753 332.89 105.229 332.51 105.704 332.224C106.179 331.939 106.749 331.654 107.32 331.464C107.89 331.274 108.556 331.179 109.316 331.179C111.502 331.179 113.213 331.844 114.354 333.175C115.59 334.506 116.16 336.312 116.16 338.688V351.806H110.457V351.901Z" fill="black"/>
<path d="M135.836 351.901V349.049C135.171 350 134.316 350.76 133.27 351.426C132.319 351.996 130.989 352.376 129.468 352.376C128.327 352.376 127.091 352.186 126.046 351.711C124.905 351.236 123.954 350.57 123.099 349.715C122.243 348.859 121.578 347.719 121.008 346.388C120.532 345.057 120.247 343.631 120.247 341.92V341.825C120.247 340.114 120.532 338.688 121.008 337.357C121.483 336.027 122.243 334.981 123.004 334.03C123.859 333.175 124.81 332.509 125.95 332.034C127.091 331.559 128.232 331.369 129.468 331.369C130.989 331.369 132.224 331.654 133.27 332.224C134.22 332.795 135.076 333.555 135.741 334.315V324.334H141.445V351.901H135.836V351.901ZM135.836 341.73C135.836 340.874 135.741 340.114 135.456 339.449C135.171 338.783 134.886 338.118 134.411 337.642C133.935 337.167 133.46 336.787 132.89 336.502C132.319 336.217 131.654 336.122 130.989 336.122C130.323 336.122 129.658 336.217 129.087 336.502C128.517 336.787 127.947 337.167 127.566 337.642C127.186 338.118 126.711 338.688 126.521 339.449C126.331 340.209 126.141 340.874 126.141 341.73V341.825C126.141 342.681 126.236 343.441 126.521 344.106C126.806 344.772 127.186 345.437 127.566 345.912C127.947 346.388 128.517 346.768 129.087 347.053C129.658 347.338 130.323 347.433 130.989 347.433C131.654 347.433 132.319 347.338 132.89 347.053C133.46 346.768 134.03 346.388 134.411 345.912C134.886 345.437 135.171 344.867 135.456 344.106C135.741 343.346 135.836 342.68 135.836 341.73Z" fill="black"/>
<path d="M168.061 329.087C167.681 328.992 167.206 328.992 166.73 328.992C165.304 328.992 164.639 329.753 164.639 331.179V331.939H169.297V336.597H164.734V351.901H159.031V336.597H156.654V331.844H159.031V330.513C159.031 328.232 159.601 326.616 160.647 325.57C161.692 324.525 163.308 324.049 165.304 324.049C166.255 324.049 167.016 324.144 167.586 324.239C168.251 324.334 168.822 324.525 169.297 324.62V329.373C168.917 329.277 168.536 329.087 168.061 329.087Z" fill="black"/>
<path d="M185.076 351.901V349.049C184.791 349.525 184.41 349.905 184.03 350.285C183.65 350.665 183.175 351.045 182.699 351.331C182.224 351.616 181.654 351.901 181.083 352.091C180.513 352.281 179.848 352.376 179.087 352.376C176.901 352.376 175.19 351.711 174.049 350.38C172.814 349.049 172.243 347.243 172.243 344.867V331.654H177.947V342.966C177.947 344.296 178.232 345.342 178.897 346.007C179.467 346.673 180.323 347.053 181.464 347.053C182.604 347.053 183.46 346.673 184.125 346.007C184.791 345.342 185.076 344.296 185.076 342.966V331.654H190.779V351.901H185.076Z" fill="black"/>
<path d="M208.841 351.901V340.589C208.841 339.259 208.555 338.213 207.89 337.548C207.32 336.882 206.464 336.502 205.323 336.502C204.183 336.502 203.327 336.882 202.662 337.548C201.996 338.213 201.711 339.259 201.711 340.589V351.901H196.008V331.654H201.711V334.506C201.996 334.03 202.377 333.65 202.757 333.27C203.137 332.89 203.612 332.51 204.088 332.224C204.563 331.939 205.133 331.654 205.704 331.464C206.274 331.274 206.939 331.179 207.7 331.179C209.886 331.179 211.597 331.844 212.738 333.175C213.974 334.506 214.544 336.312 214.544 338.688V351.806H208.841V351.901Z" fill="black"/>
<path d="M234.125 351.901V349.049C233.46 350 232.605 350.76 231.559 351.426C230.608 351.996 229.278 352.376 227.757 352.376C226.616 352.376 225.38 352.186 224.335 351.711C223.194 351.236 222.243 350.57 221.388 349.715C220.532 348.859 219.867 347.719 219.297 346.388C218.821 345.057 218.536 343.631 218.536 341.92V341.825C218.536 340.114 218.821 338.688 219.297 337.357C219.772 336.027 220.532 334.981 221.293 334.03C222.148 333.175 223.099 332.509 224.24 332.034C225.38 331.559 226.521 331.369 227.757 331.369C229.278 331.369 230.513 331.654 231.559 332.224C232.51 332.795 233.365 333.555 234.03 334.315V324.334H239.734V351.901H234.125V351.901ZM234.221 341.73C234.221 340.874 234.125 340.114 233.84 339.449C233.555 338.783 233.27 338.118 232.795 337.642C232.319 337.167 231.844 336.787 231.274 336.502C230.703 336.217 230.038 336.122 229.373 336.122C228.707 336.122 228.042 336.217 227.471 336.502C226.901 336.787 226.331 337.167 225.951 337.642C225.57 338.118 225.095 338.688 224.905 339.449C224.715 340.209 224.525 340.874 224.525 341.73V341.825C224.525 342.681 224.62 343.441 224.905 344.106C225.19 344.772 225.57 345.437 225.951 345.912C226.331 346.388 226.901 346.768 227.471 347.053C228.042 347.338 228.707 347.433 229.373 347.433C230.038 347.433 230.703 347.338 231.274 347.053C231.844 346.768 232.414 346.388 232.795 345.912C233.27 345.437 233.555 344.867 233.84 344.106C234.125 343.346 234.221 342.68 234.221 341.73Z" fill="black"/>
<path d="M263.879 343.061C263.879 343.251 263.879 343.536 263.784 343.821H249.715C250.001 345.152 250.571 346.103 251.426 346.768C252.282 347.433 253.328 347.814 254.658 347.814C255.609 347.814 256.465 347.623 257.225 347.338C257.985 347.053 258.746 346.483 259.601 345.722L262.928 348.669C261.978 349.81 260.837 350.76 259.411 351.426C258.08 352.091 256.465 352.471 254.658 352.471C253.138 352.471 251.712 352.186 250.476 351.711C249.145 351.236 248.099 350.475 247.149 349.525C246.198 348.574 245.438 347.528 244.963 346.198C244.392 344.962 244.202 343.536 244.202 341.92V341.825C244.202 340.399 244.487 339.068 244.963 337.738C245.438 336.407 246.103 335.361 247.054 334.411C247.909 333.46 248.955 332.7 250.191 332.129C251.426 331.559 252.757 331.274 254.278 331.274C255.989 331.274 257.415 331.559 258.651 332.224C259.887 332.795 260.932 333.65 261.693 334.696C262.548 335.741 263.118 336.882 263.499 338.213C263.879 339.544 264.069 340.874 264.069 342.395V342.49C263.974 342.681 263.879 342.871 263.879 343.061ZM256.94 337.072C256.179 336.312 255.229 335.836 253.993 335.836C252.757 335.836 251.807 336.217 251.046 336.977C250.286 337.738 249.811 338.783 249.62 340.114H258.271C258.176 338.878 257.7 337.928 256.94 337.072Z" fill="black"/>
<path d="M280.133 337.262C278.232 337.262 276.711 337.832 275.57 338.973C274.43 340.114 273.954 341.92 273.954 344.391V351.901H268.251V331.654H273.954V335.741C274.525 334.315 275.285 333.27 276.331 332.414C277.376 331.559 278.707 331.178 280.418 331.274V337.262H280.133V337.262Z" fill="black"/>
<path d="M298.289 348.669C297.909 349.525 297.339 350.19 296.673 350.665C296.008 351.236 295.152 351.616 294.202 351.901C293.251 352.186 292.206 352.281 291.16 352.281C289.734 352.281 288.213 351.996 286.787 351.521C285.361 351.045 283.841 350.285 282.51 349.239L284.981 345.437C286.122 346.198 287.168 346.863 288.308 347.243C289.449 347.623 290.4 347.814 291.35 347.814C292.206 347.814 292.776 347.718 293.156 347.433C293.536 347.148 293.727 346.768 293.727 346.293V346.198C293.727 345.912 293.631 345.627 293.346 345.437C293.156 345.247 292.776 345.057 292.396 344.867C292.015 344.677 291.54 344.582 291.065 344.391C290.59 344.201 290.019 344.106 289.449 343.916C288.784 343.726 288.023 343.441 287.358 343.156C286.597 342.871 286.027 342.49 285.457 342.015C284.886 341.54 284.411 340.969 284.031 340.304C283.65 339.639 283.46 338.783 283.46 337.833V337.737C283.46 336.692 283.65 335.836 284.031 334.981C284.411 334.22 284.981 333.555 285.647 332.985C286.312 332.414 287.073 332.034 288.023 331.749C288.879 331.464 289.924 331.369 290.875 331.369C292.206 331.369 293.441 331.559 294.772 332.034C296.103 332.414 297.339 332.985 298.384 333.745L296.198 337.737C295.152 337.167 294.202 336.692 293.251 336.312C292.301 335.931 291.445 335.836 290.685 335.836C290.019 335.836 289.449 335.931 289.069 336.217C288.688 336.502 288.498 336.787 288.498 337.262V337.357C288.498 337.642 288.593 337.833 288.879 338.118C289.069 338.308 289.449 338.498 289.829 338.688C290.209 338.878 290.685 339.068 291.16 339.258C291.635 339.448 292.206 339.639 292.681 339.829C293.346 340.019 294.107 340.304 294.867 340.684C295.628 340.969 296.293 341.35 296.863 341.825C297.434 342.3 297.909 342.871 298.289 343.441C298.669 344.106 298.86 344.867 298.86 345.817V345.912C298.86 346.863 298.669 347.909 298.289 348.669Z" fill="black"/>
</svg>
