<svg width="400" height="483" viewBox="0 0 400 483" fill="none" xmlns="http://www.w3.org/2000/svg">
<path d="M3.74609 18.8311V0.45874H10.5507V18.6043C10.5507 23.8212 13.0457 26.543 17.2419 26.543C21.438 26.543 23.9331 23.9346 23.9331 18.8311V0.45874H30.7377V18.4909C30.7377 28.2442 25.4074 33.0074 17.1285 33.0074C8.84954 33.0074 3.74609 28.3576 3.74609 18.8311Z" fill="black"/>
<path d="M40.4912 0.572266H46.8422L61.3586 20.3056V0.572266H68.1632V32.6673H62.3793L47.2958 12.2535V32.6673H40.4912V0.572266Z" fill="black"/>
<path d="M78.5957 0.572266H85.4003V32.6673H78.5957V0.572266Z" fill="black"/>
<path d="M93.2266 0.572266H100.825L108.991 23.1408L117.156 0.572266H124.528L111.939 32.8941H105.928L93.2266 0.572266Z" fill="black"/>
<path d="M131.786 0.572266H155.262V6.80981H138.591V13.2742H153.221V19.5117H138.591V26.2029H155.489V32.4405H131.786V0.572266V0.572266Z" fill="black"/>
<path d="M166.035 0.572266H180.212C184.181 0.572266 187.243 1.70636 189.284 3.86115C191.099 5.90253 192.12 8.51096 192.006 11.2328V11.3462C192.233 15.7692 189.511 19.8519 185.315 21.3263L192.913 32.7807H184.861L178.17 22.5738H172.726V32.7807H165.922L166.035 0.572266ZM179.871 16.1094C183.16 16.1094 185.088 14.2949 185.088 11.573V11.4596C185.088 8.39755 183.047 6.92322 179.758 6.92322H172.953V16.1094H179.871Z" fill="black"/>
<path d="M200.512 27.9043L204.594 22.9143C207.089 25.2959 210.378 26.6568 213.894 26.7702C216.729 26.7702 218.43 25.6361 218.43 23.7082V23.5947C218.43 21.7802 217.41 20.8729 212.193 19.512C205.955 17.8108 201.873 16.1097 201.873 9.75874C201.873 3.97483 206.409 0.118896 212.76 0.118896C216.956 0.118896 221.039 1.47982 224.328 4.20165L220.812 9.53192C218.09 7.60395 215.368 6.35644 212.76 6.35644C210.152 6.35644 208.791 7.60395 208.791 9.19169V9.3051C208.791 11.4599 210.152 12.1403 215.482 13.5013C221.833 15.2024 225.348 17.584 225.348 23.1411V23.2545C225.348 29.6055 220.585 33.2346 213.894 33.2346C208.904 33.2346 204.141 31.3066 200.512 27.9043Z" fill="black"/>
<path d="M234.876 0.572266H241.681V32.6673H234.876V0.572266Z" fill="black"/>
<path d="M259.485 7.03663H250.072V0.572266H275.816V7.03663H266.29V32.5539H259.485V7.03663V7.03663Z" fill="black"/>
<path d="M293.282 19.9654L281.374 0.572266H289.426L296.798 13.3876L304.396 0.572266H312.221L300.313 19.852V32.6673H293.509V19.9654H293.282Z" fill="black"/>
<path d="M333.883 16.6765C333.77 7.60372 340.915 0.118665 349.987 0.00525514C350.101 0.00525514 350.328 0.00525514 350.441 0.00525514C359.287 -0.221565 366.659 6.92326 366.885 15.7692C366.885 15.9961 366.885 16.2229 366.885 16.4497V16.5631C366.999 25.6359 359.741 33.0075 350.668 33.1209C350.554 33.1209 350.441 33.1209 350.328 33.1209C341.368 33.2344 333.997 26.2029 333.883 17.2436C333.883 17.0167 333.883 16.9033 333.883 16.6765ZM359.854 16.6765C359.854 11.1194 355.998 6.46962 350.441 6.46962C344.884 6.46962 341.141 11.006 341.141 16.4497V16.5631C341.141 22.0068 344.997 26.6566 350.554 26.6566C356.112 26.6566 359.854 22.1202 359.854 16.6765Z" fill="black"/>
<path d="M374.596 0.572266H398.298V7.03663H381.514V13.8412H396.37V20.3056H381.514V32.6673H374.709L374.596 0.572266Z" fill="black"/>
<path d="M29.83 45.4827C12.8185 45.4827 0.00315316 58.7516 0.00315316 76.4436V76.6704C-0.110257 84.7225 2.8384 92.5478 8.39549 98.4451C13.8392 104.229 21.4376 107.518 29.3763 107.404C39.0162 107.404 45.7073 104.342 52.7388 96.9708L46.5012 90.393C41.5112 95.1562 36.9748 98.1049 29.7166 98.1049C18.8292 98.1049 10.21 88.5784 10.21 76.3302V76.1033C10.21 63.8551 18.6024 54.5555 29.7166 54.5555C35.6139 54.5555 40.6039 56.8237 46.0476 61.9271L52.2851 54.4421C47.6353 50.0191 41.2844 45.4827 29.83 45.4827Z" fill="black"/>
<path d="M105.815 106.27H116.589L91.0715 46.0498H80.978L55.5742 106.27H66.0079L72.0187 91.754H99.9175L105.815 106.27ZM96.4018 82.7946H75.5344L85.9681 57.731L96.4018 82.7946Z" fill="black"/>
<path d="M276.382 106.27H287.156L261.639 46.0498H251.545L226.142 106.27H236.575L242.586 91.754H270.485L276.382 106.27ZM266.856 82.7946H245.988L256.422 57.731L266.856 82.7946Z" fill="black"/>
<path d="M122.939 106.27H164.107V97.1976H133.487V46.5034H123.053V106.27H122.939Z" fill="black"/>
<path d="M195.522 45.4827C178.624 45.5961 165.015 59.4321 165.129 76.3302V76.4436V76.6704C165.129 94.816 178.057 107.404 195.749 107.404C206.977 107.404 215.029 102.414 220.813 98.1049V73.1547H196.883V81.8872H210.493V93.5685L210.379 93.6819C206.296 96.7439 201.193 98.3317 196.09 98.3317C184.295 98.3317 176.016 89.3723 176.016 76.557V76.3302C176.016 64.4221 184.635 54.7823 195.182 54.7823C202.667 54.7823 207.09 57.2773 211.513 61.1332L217.637 53.5348C211.06 47.7509 204.595 45.4827 195.522 45.4827Z" fill="black"/>
<path d="M331.841 106.27H343.295L327.645 83.5885L327.985 83.475C336.831 80.8666 342.728 74.5157 342.728 65.4429V65.2161C342.728 60.1126 340.006 55.6896 336.944 52.4007C333.088 48.5448 327.305 46.5034 320.273 46.5034H293.849V106.27H304.282V85.2896H317.551L331.841 106.27ZM319.479 76.3302H304.169V55.5762H319.366C327.191 55.5762 331.728 59.3187 331.728 65.8965V66.1233C331.728 72.3609 326.964 76.3302 319.479 76.3302Z" fill="black"/>
<path d="M365.863 106.27H377.091V83.2482L400 46.5034H388.432L371.761 73.495L355.316 46.5034H343.521L365.75 83.2482V106.27H365.863Z" fill="black"/>
<path d="M200.058 148.913C152.653 148.913 133.033 164.79 133.033 164.79V236.125C133.033 275.591 185.315 316.646 200.058 320.615C214.915 316.532 267.084 275.591 267.084 236.125V164.79C267.084 164.903 247.464 148.913 200.058 148.913Z" fill="black"/>
<path d="M191.78 237.259C192.12 237.599 192.347 238.166 192.347 238.62C192.347 239.981 191.326 241.001 189.965 241.001C188.604 241.001 187.584 239.981 187.584 238.62C187.584 237.939 187.924 237.372 188.377 236.919C187.017 236.578 185.769 236.238 184.521 235.671C184.975 237.032 185.882 242.249 189.285 242.589C191.666 242.929 193.935 241.455 194.615 239.187C193.935 238.166 192.914 237.486 191.78 237.259Z" fill="white"/>
<path d="M211.853 236.919C212.306 237.372 212.647 237.939 212.647 238.62C212.647 239.867 211.626 240.888 210.378 240.888H210.265C209.018 240.888 207.883 239.867 207.883 238.62C207.883 238.053 208.11 237.599 208.45 237.259C207.316 237.486 206.296 238.166 205.615 239.073C206.296 241.342 208.564 242.816 210.945 242.476C214.348 242.135 215.368 236.919 215.709 235.558C214.575 236.238 213.214 236.692 211.853 236.919Z" fill="white"/>
<path d="M215.823 224.897C214.463 223.763 212.648 225.237 214.009 226.712C215.143 227.959 215.937 228.866 215.37 229.774C214.689 231.021 208.338 230.681 200.059 233.856C191.894 230.794 185.43 231.135 184.749 229.774C184.296 228.866 184.976 227.959 186.11 226.712C187.471 225.124 185.656 223.763 184.296 224.897C183.161 225.804 181.007 228.753 181.801 230.681C183.048 233.856 190.306 232.836 199.946 236.805C209.586 232.836 216.958 233.743 218.092 230.681C219.112 228.753 216.958 225.918 215.823 224.897Z" fill="white"/>
<path d="M207.203 265.611C205.275 264.931 203.687 263.456 203.007 261.528C202.439 259.487 203.233 258.013 204.141 257.786C205.048 257.559 205.955 258.126 205.615 259.26C205.388 260.054 204.481 260.508 204.141 260.734C203.574 261.075 204.027 261.755 204.708 261.642C206.069 261.302 206.976 260.054 206.976 258.58C206.862 256.765 204.934 256.425 203.8 256.652C202.099 256.992 200.852 258.693 201.532 261.642C202.213 263.797 203.8 265.611 205.955 266.518C204.027 267.085 202.099 267.426 200.058 267.539C198.016 267.426 196.089 267.085 194.161 266.518C196.315 265.611 197.903 263.797 198.584 261.642C199.264 258.693 198.016 256.992 196.315 256.652C195.181 256.425 193.14 256.879 193.14 258.58C193.14 260.054 194.047 261.302 195.408 261.642C196.089 261.755 196.542 261.075 195.975 260.734C195.635 260.508 194.728 260.167 194.501 259.26C194.161 258.126 195.068 257.559 195.975 257.786C196.882 258.013 197.676 259.487 197.109 261.528C196.429 263.456 194.841 264.931 192.913 265.611C191.892 266.065 191.666 267.085 192.346 267.539C194.728 268.673 197.223 269.127 199.831 269.127H200.058C202.666 269.127 205.161 268.673 207.543 267.539C208.45 267.199 208.223 266.065 207.203 265.611Z" fill="white"/>
<path d="M200.172 171.594C200.853 171.481 201.42 171.254 201.987 170.914L202.214 170.687C203.121 169.78 203.915 168.646 204.482 167.512C204.595 167.398 204.595 167.171 204.482 167.058C204.368 166.718 204.142 166.491 203.801 166.264C201.306 166.037 198.925 166.037 196.43 166.264H196.316C196.09 166.491 195.523 167.058 195.636 167.512C196.316 168.646 197.11 169.78 198.018 170.687C198.698 171.141 199.378 171.481 200.172 171.594Z" fill="white"/>
<path d="M195.409 174.543C195.522 173.863 195.522 173.182 195.295 172.615C195.295 172.502 195.182 172.388 195.182 172.275C194.501 171.141 193.707 170.12 192.8 169.213C192.687 169.1 192.46 169.1 192.347 169.1C192.006 169.1 191.553 169.326 191.326 169.553C190.419 171.708 189.625 174.09 189.058 176.358V176.471C189.171 176.811 189.511 177.492 190.078 177.379C191.439 177.152 192.687 176.698 193.934 176.131C194.615 175.791 195.068 175.224 195.409 174.543Z" fill="white"/>
<path d="M196.883 179.873C196.316 179.647 195.636 179.42 194.955 179.42H194.615C193.368 179.646 192.007 180.214 190.873 180.781L190.532 181.121C190.419 181.461 190.419 181.801 190.646 182.142C192.574 183.729 194.502 185.09 196.657 186.338H196.77C197.11 186.338 197.904 186.224 198.018 185.657C198.131 184.296 198.131 183.049 198.018 181.688C197.791 181.007 197.337 180.44 196.883 179.873Z" fill="white"/>
<path d="M202.554 180.214C202.1 180.667 201.646 181.234 201.42 181.801C201.42 181.915 201.306 182.028 201.306 182.142C201.079 183.389 201.193 184.75 201.42 185.998C201.42 186.224 201.533 186.338 201.76 186.451C202.1 186.565 202.44 186.678 202.781 186.678C204.822 185.43 206.863 183.956 208.791 182.482V182.368C208.905 182.028 209.018 181.234 208.564 181.007C207.317 180.44 206.069 179.987 204.709 179.76C203.915 179.647 203.234 179.873 202.554 180.214Z" fill="white"/>
<path d="M204.594 174.997C204.935 175.564 205.388 176.017 205.842 176.471C205.955 176.471 206.069 176.585 206.182 176.585C207.43 177.152 208.677 177.492 210.038 177.719C210.151 177.719 210.378 177.719 210.492 177.605C210.832 177.378 210.945 177.038 211.059 176.698C210.492 174.43 209.698 172.048 208.79 169.893L208.677 169.78C208.337 169.553 207.656 169.213 207.316 169.553C206.409 170.46 205.615 171.594 204.935 172.729C204.594 173.409 204.481 174.203 204.594 174.997Z" fill="white"/>
<path d="M203.574 175.45C203.461 175.11 203.234 174.883 202.894 174.77C202.894 174.543 203.007 174.316 202.894 174.09C202.781 173.522 202.554 173.069 202.1 172.729C201.306 172.275 200.285 172.275 199.605 172.842C198.925 172.502 198.131 172.502 197.45 172.955C196.997 173.296 196.656 173.749 196.656 174.316C196.543 174.657 196.656 174.997 196.77 175.337L196.316 175.791C196.089 176.244 195.976 176.811 196.203 177.265C196.543 178.059 197.223 178.626 198.131 178.626H198.244C198.584 179.306 199.265 179.76 200.059 179.76C201.306 178.853 202.554 177.945 203.688 176.925C203.915 176.471 203.915 175.904 203.574 175.45ZM198.358 177.719C198.017 177.832 197.564 177.605 197.45 177.265C197.337 176.925 197.564 176.585 197.904 176.471C198.244 176.358 198.698 176.585 198.811 176.925C198.925 177.265 198.698 177.605 198.358 177.719ZM198.698 175.337C198.358 175.564 197.904 175.45 197.677 175.224C197.45 174.883 197.564 174.543 197.79 174.316C198.131 174.09 198.584 174.203 198.811 174.43C199.038 174.657 199.038 174.997 198.698 175.337C198.698 175.337 198.811 175.337 198.698 175.337ZM200.285 178.626C199.945 178.626 199.605 178.286 199.605 177.945C199.605 177.605 199.945 177.265 200.285 177.265C200.626 177.265 200.966 177.605 200.966 177.945C200.966 178.286 200.739 178.626 200.512 178.626C200.399 178.626 200.399 178.626 200.285 178.626ZM200.285 174.77C200.059 174.543 199.945 174.203 200.059 173.976C200.059 173.976 200.059 173.976 200.172 173.863C200.399 173.522 200.853 173.522 201.193 173.749C201.42 173.976 201.533 174.316 201.42 174.543C201.42 174.543 201.42 174.543 201.306 174.657C201.079 174.997 200.626 174.997 200.285 174.77ZM201.646 176.925C201.306 176.811 201.079 176.471 201.193 176.131C201.306 175.791 201.76 175.564 202.1 175.677C202.44 175.791 202.667 176.131 202.554 176.471C202.44 176.811 201.987 176.925 201.646 176.925Z" fill="white"/>
<path d="M163.087 168.306C161.159 166.491 160.025 166.037 159.458 166.037C159.117 166.037 158.777 166.151 158.097 166.831C157.87 166.945 157.756 167.171 157.643 167.398C156.736 168.419 155.602 169.78 153.56 169.78C152.766 169.78 151.973 169.553 151.179 169.213V184.41C151.973 185.771 152.766 186.451 153.333 186.451C153.674 186.451 154.354 186.224 155.261 185.204C157.189 182.822 160.478 182.368 162.973 183.956V168.306H163.087Z" fill="white"/>
<path d="M175.109 169.893C173.408 169.78 171.934 168.873 171.027 167.512C170.913 167.285 170.686 167.172 170.573 166.945C169.892 166.264 169.552 166.151 169.212 166.151C168.645 166.151 167.624 166.605 165.696 168.419V184.183C166.604 183.616 167.738 183.276 168.872 183.276C170.573 183.276 172.274 184.07 173.408 185.431C174.315 186.451 174.996 186.678 175.336 186.678C176.017 186.678 176.81 185.884 177.491 184.637V169.44C176.697 169.667 175.903 169.893 175.109 169.893Z" fill="white"/>
<path d="M237.029 184.183C239.524 182.595 242.813 183.049 244.741 185.431C245.649 186.451 246.329 186.678 246.669 186.678C247.35 186.678 248.144 185.884 248.824 184.637V169.44C248.03 169.78 247.236 170.007 246.442 170.007C244.401 170.007 243.267 168.646 242.36 167.625C242.246 167.398 242.019 167.285 241.906 167.058C241.226 166.378 240.885 166.264 240.545 166.264C239.978 166.264 238.844 166.718 236.916 168.533L237.029 184.183Z" fill="white"/>
<path d="M225.009 169.893C224.215 169.893 223.421 169.666 222.627 169.326V184.523C223.421 185.884 224.101 186.565 224.782 186.565C225.122 186.565 225.802 186.338 226.71 185.317C227.844 183.956 229.545 183.162 231.246 183.162C232.38 183.162 233.401 183.502 234.422 184.07V168.306C232.494 166.491 231.473 166.037 230.906 166.037C230.566 166.037 230.225 166.151 229.545 166.831C229.318 166.945 229.205 167.171 229.091 167.398C228.071 168.532 226.937 169.893 225.009 169.893Z" fill="white"/>
<path d="M184.408 216.278C179.532 214.577 169.438 209.587 165.242 197.792C164.108 194.73 162.52 195.184 162.86 198.472C163.994 208.906 170.686 217.979 180.325 222.062C185.202 223.99 187.924 217.525 184.408 216.278Z" fill="white"/>
<path d="M215.823 216.278C220.7 214.577 230.793 209.587 234.989 197.792C236.123 194.73 237.711 195.184 237.371 198.472C236.237 208.906 229.546 217.979 219.906 222.062C215.142 223.99 212.421 217.525 215.823 216.278Z" fill="white"/>
<path d="M212.761 213.896C213.668 213.783 214.576 213.443 215.483 213.102C220.473 211.174 224.782 207.999 228.071 203.803C218.885 201.988 209.586 201.081 200.173 200.968C190.76 201.081 181.346 201.988 172.047 203.916C175.336 208.226 179.872 211.515 184.976 213.329C185.883 213.556 186.677 213.783 187.357 213.896C188.832 214.35 190.533 214.01 191.78 212.989C193.481 211.515 193.822 210.721 200.059 210.721C206.297 210.721 206.637 211.515 208.338 212.989C209.586 214.01 211.287 214.35 212.761 213.896Z" fill="white"/>
<path d="M245.423 229.093L231.474 252.115C236.69 249.847 244.629 243.837 245.423 229.093Z" fill="white"/>
<path d="M168.643 252.229L154.693 229.207C155.487 243.837 163.426 249.847 168.643 252.229Z" fill="white"/>
<path d="M238.844 206.298C236.69 212.195 232.947 217.299 227.957 221.155C232.38 222.515 237.824 222.629 241.68 220.02C240.432 223.309 236.349 227.619 233.514 230.341C232.947 230.001 232.494 229.547 232.04 229.093C230.906 227.846 229.772 228.98 230.566 230.001C231.019 230.568 231.473 231.135 231.926 231.702C231.359 232.269 230.792 232.722 230.225 233.176C229.658 232.836 229.091 232.382 228.638 231.815C227.503 230.568 226.369 231.702 227.163 232.722C227.503 233.403 228.071 233.97 228.638 234.424C227.957 234.991 227.163 235.671 226.483 236.125C225.008 234.31 223.421 232.382 221.039 233.516C218.657 234.65 221.039 236.465 221.039 238.96C221.039 248.94 214.802 252.683 213.214 256.879C211.626 261.075 210.152 268.673 208.904 270.715C207.657 272.756 202.44 275.024 200.058 273.096C197.677 275.024 192.346 272.756 191.212 270.715C190.078 268.673 188.377 261.075 186.789 256.879C185.202 252.683 179.077 248.94 179.077 238.96C179.077 236.465 181.572 234.764 179.077 233.516C176.582 232.269 175.108 234.197 173.634 236.125C172.953 235.671 172.159 234.991 171.479 234.424C172.046 233.856 172.5 233.289 172.953 232.722C173.747 231.702 172.726 230.568 171.479 231.815C171.025 232.382 170.458 232.836 169.891 233.176C169.324 232.722 168.757 232.269 168.19 231.702C168.757 231.248 169.211 230.568 169.551 230.001C170.345 228.98 169.324 227.846 168.077 229.093C167.623 229.547 167.169 230.001 166.602 230.341C163.654 227.506 159.684 223.309 158.437 220.02C162.406 222.629 167.51 222.515 171.933 220.928C167.056 217.185 163.313 212.082 161.272 206.298C153.333 208.339 145.622 211.401 138.363 215.371V236.692C138.363 271.055 187.583 310.862 200.172 314.378C212.76 310.862 261.64 271.055 261.64 236.692V215.144C254.382 211.288 246.783 208.339 238.844 206.298ZM241.793 269.921C239.071 272.076 237.03 273.55 235.329 274.797C231.586 277.406 230.225 278.54 230.339 280.468L231.019 288.747L226.143 286.479C222.287 284.778 220.585 282.509 220.245 278.767C219.678 272.983 223.307 267.086 229.772 262.776C231.359 261.755 232.72 261.075 233.741 260.508C234.762 259.941 235.896 259.374 235.896 259.033C236.123 258.353 234.875 257.332 231.359 255.745C231.019 255.631 230.339 255.291 229.772 255.064L200.058 303.944L170.345 255.064C169.778 255.291 169.097 255.631 168.757 255.745C165.241 257.332 163.994 258.353 164.221 259.033C164.334 259.374 165.355 259.941 166.376 260.508C167.736 261.188 169.097 261.869 170.345 262.776C176.809 267.086 180.325 273.096 179.871 278.767C179.531 282.509 177.717 284.778 173.974 286.479L169.097 288.747L169.778 280.468C169.891 278.54 168.53 277.406 164.788 274.797C163.087 273.663 161.045 272.076 158.323 269.921C141.766 256.538 141.199 239.754 146.075 232.609C148.003 230.001 150.045 227.506 152.313 225.124L151.519 223.99C149.818 223.876 148.57 222.402 148.57 220.701C148.457 218.886 149.818 217.299 151.632 217.185C153.447 217.072 155.035 218.433 155.148 220.247C155.148 220.701 155.148 221.268 154.921 221.722C155.035 221.722 155.035 221.722 155.035 221.835L200.058 297.253L245.082 221.835C245.082 221.722 245.082 221.722 245.195 221.722C244.628 220.02 245.536 218.206 247.237 217.525C248.938 216.958 250.753 217.866 251.433 219.567C251.546 219.907 251.66 220.361 251.66 220.701C251.66 222.402 250.412 223.763 248.711 223.99L247.917 225.124C247.917 225.124 252.454 230.227 254.155 232.609C258.918 239.754 258.351 256.652 241.793 269.921Z" fill="white"/>
<path d="M199.945 154.129C154.467 154.129 138.363 168.079 138.363 168.079V209.02C145.168 205.617 152.426 203.009 159.798 201.194L159.458 198.813C159.117 196.998 159.571 195.184 160.705 193.823C161.385 193.029 162.406 192.575 163.54 192.575C164.674 192.575 166.829 193.142 168.19 196.771C168.417 197.565 168.757 198.359 169.211 199.039C179.304 196.885 189.738 195.864 200.058 195.751C210.492 195.864 220.812 196.885 231.019 198.926C231.359 198.246 231.7 197.452 231.926 196.658C233.287 193.029 235.442 192.462 236.576 192.462C237.597 192.462 238.618 192.915 239.412 193.709C240.546 195.07 240.999 196.885 240.659 198.699L240.319 201.081C247.69 202.895 254.949 205.504 261.753 208.906V167.965C261.64 167.965 245.536 154.129 199.945 154.129ZM181.232 190.08L174.995 189.173H174.654L166.489 187.925V189.286H162.179V187.925L147.436 191.101V168.532L148.57 168.192V164.563L150.725 166.151C151.519 166.831 152.54 167.398 153.56 167.512C154.241 167.512 154.808 166.944 155.602 166.037C155.828 165.81 155.942 165.584 156.169 165.47C156.963 164.449 158.21 163.882 159.458 163.882C160.932 163.882 162.406 164.676 164.334 166.377C166.262 164.676 167.736 163.882 169.211 163.882C170.458 163.882 171.706 164.449 172.5 165.47C172.726 165.697 172.84 165.924 173.067 166.037C173.861 166.944 174.428 167.512 175.108 167.512C176.129 167.398 177.149 166.831 177.943 166.151L180.098 164.563V168.192L181.232 168.532V190.08V190.08ZM214.121 180.44C213.894 181.121 213.1 181.461 211.966 181.461C211.966 182.028 211.853 182.482 211.626 182.935C209.018 185.203 206.182 187.131 203.12 188.833H202.78C202.44 188.833 202.1 188.833 201.759 188.719C201.419 189.74 200.852 190.534 200.058 190.534C199.264 190.534 198.697 189.853 198.357 188.833C197.903 188.946 197.563 189.059 197.11 189.059H196.656C195.635 188.719 188.831 183.956 188.264 183.049C188.037 182.708 187.923 182.255 187.923 181.801C186.789 181.801 185.995 181.461 185.769 180.78C185.542 180.1 185.995 179.306 186.903 178.739C186.562 178.285 186.222 177.832 186.109 177.265C186.903 173.976 187.923 170.8 189.398 167.738C189.738 167.398 190.192 167.171 190.645 167.058C190.305 166.037 190.418 165.243 190.985 164.79C191.779 164.449 192.573 164.563 193.254 165.13C193.594 164.676 193.934 164.223 194.501 163.996C196.089 163.769 197.563 163.769 199.151 163.769C200.966 163.769 204.254 163.882 204.935 163.996C205.389 164.223 205.842 164.563 206.069 165.017C206.976 164.449 207.884 164.223 208.451 164.676C209.018 165.13 209.131 165.924 208.791 166.831C209.358 166.944 209.812 167.285 210.152 167.625C210.832 168.419 213.327 176.244 213.327 177.265C213.214 177.718 213.1 178.172 212.76 178.626C213.781 178.966 214.348 179.76 214.121 180.44ZM252.68 190.987L237.937 187.812V189.173H233.628V187.812L225.462 189.059H225.122L218.884 189.967V168.305L220.018 167.965V164.336L222.173 165.924C222.967 166.604 223.988 167.171 225.008 167.285C225.689 167.285 226.256 166.718 227.05 165.81C227.277 165.584 227.39 165.357 227.617 165.243C228.411 164.223 229.658 163.656 230.906 163.656C232.38 163.656 233.854 164.449 235.782 166.151C237.71 164.449 239.185 163.656 240.659 163.656C241.907 163.656 243.154 164.223 243.948 165.243C244.175 165.47 244.288 165.697 244.515 165.81C245.309 166.718 245.876 167.285 246.556 167.285C247.577 167.171 248.598 166.604 249.392 165.924L251.546 164.336V167.965L252.68 168.305V190.987Z" fill="white"/>
<path d="M235.329 254.043C237.37 255.178 239.525 256.765 239.525 259.033C239.525 261.302 237.597 262.436 235.442 263.456C234.195 264.024 232.947 264.704 231.813 265.498C229.772 266.859 223.194 271.735 223.761 278.427C223.988 280.808 224.895 281.942 227.163 283.076L226.823 280.128C226.71 277.179 229.318 274.684 233.174 271.962C234.875 270.828 236.917 269.354 239.525 267.312C253.815 255.858 255.402 240.888 251.093 234.537C250.526 233.743 249.619 232.496 248.825 231.248C247.577 244.29 240.886 250.868 235.329 254.043Z" fill="white"/>
<path d="M151.292 231.248C150.385 232.496 149.591 233.63 149.024 234.537C144.714 240.888 146.302 255.858 160.592 267.312C163.2 269.354 165.242 270.828 166.943 271.962C170.799 274.684 173.52 277.179 173.294 280.128L172.953 283.076C175.222 281.942 176.129 280.695 176.356 278.427C176.923 271.735 170.345 266.859 168.304 265.498C166.943 264.591 165.695 264.024 164.675 263.456C162.52 262.322 160.592 261.415 160.592 259.033C160.592 256.652 162.747 255.178 164.788 254.043C159.231 250.868 152.54 244.29 151.292 231.248Z" fill="white"/>
<path d="M17.9228 439.128C18.4898 440.149 19.2837 441.056 20.191 441.623C21.5519 442.531 23.0262 443.211 24.614 443.665C26.9956 444.459 29.3772 445.139 31.8722 445.706C34.8209 446.387 37.6561 447.294 40.378 448.428C42.6462 449.222 44.6875 450.469 46.5021 452.057C48.0898 453.418 49.3373 455.119 50.2446 457.047C51.1519 459.202 51.4921 461.47 51.4921 463.738C51.4921 466.46 51.0385 469.068 49.9044 471.564C48.8837 473.832 47.4094 475.76 45.4814 477.347C43.44 478.935 41.0584 480.183 38.5634 480.977C35.7282 481.77 32.6661 482.224 29.7174 482.224C20.3044 482.337 11.1182 478.822 4.2002 472.471L10.6646 464.759C13.3864 467.141 16.3351 469.182 19.6239 470.656C22.9128 472.017 26.4285 472.811 29.9442 472.698C32.7795 472.811 35.5013 472.131 37.8829 470.656C39.8109 469.409 40.8316 467.254 40.8316 464.986C40.8316 463.965 40.6048 462.944 40.2645 462.037C39.8109 461.016 39.017 460.223 38.1098 459.655C36.7488 458.862 35.3879 458.181 33.9136 457.614C31.6454 456.82 29.3772 456.14 26.9956 455.573C23.7067 454.779 20.8715 453.985 18.263 453.078C15.9948 452.284 13.84 451.15 11.9121 449.562C10.2109 448.201 8.85 446.5 7.94272 444.459C6.92203 442.19 6.46839 439.695 6.5818 437.2C6.5818 434.705 7.14885 432.21 8.16954 429.942C10.3243 425.406 14.2937 422.117 19.0569 420.642C21.7787 419.849 24.614 419.395 27.4492 419.395C35.5013 419.168 43.44 421.89 49.6776 426.993L43.8937 435.159C41.3986 433.231 38.5634 431.643 35.6147 430.509C33.0063 429.488 30.1711 428.921 27.3358 428.921C24.7274 428.695 22.119 429.488 19.9642 431.076C18.3764 432.324 17.3557 434.252 17.3557 436.293C17.2423 437.314 17.4692 438.221 17.9228 439.128Z" fill="black"/>
<path d="M112.393 475.873C110.692 477.234 108.877 478.368 106.836 479.275C104.794 480.296 102.639 480.977 100.371 481.43C97.7629 481.997 95.1544 482.224 92.546 482.224C88.3498 482.338 84.0402 481.43 80.1843 479.729C76.4418 478.141 73.1529 475.873 70.3177 473.038C67.4824 470.203 65.3276 466.8 63.8533 463.058C62.2655 459.088 61.4717 454.892 61.4717 450.696C61.4717 446.5 62.2655 442.304 63.7399 438.334C65.2142 434.592 67.4824 431.19 70.2042 428.241C73.0395 425.406 76.4418 423.024 80.1843 421.436C84.1537 419.735 88.5766 418.828 92.8862 418.941C95.3812 418.941 97.9897 419.168 100.485 419.622C102.639 420.075 104.794 420.756 106.836 421.55C108.764 422.344 110.578 423.364 112.166 424.612C113.754 425.746 115.341 427.107 116.816 428.468L109.898 436.406C107.516 434.252 104.908 432.324 102.072 430.849C99.1238 429.488 95.9483 428.808 92.7728 428.808C90.051 428.808 87.2157 429.375 84.7207 430.509C82.3391 431.643 80.0709 433.231 78.2563 435.159C76.4418 437.087 74.9675 439.469 74.0602 441.964C72.1322 447.407 72.1322 453.531 74.0602 458.975C74.9675 461.584 76.4418 463.852 78.2563 465.893C80.0709 467.821 82.3391 469.409 84.7207 470.543C87.2157 471.677 90.051 472.244 92.7728 472.244C96.0617 472.357 99.464 471.564 102.413 470.089C105.248 468.502 107.97 466.574 110.351 464.305L117.269 471.337C115.795 473.038 114.207 474.626 112.393 475.873Z" fill="black"/>
<path d="M139.952 420.075V481.203H129.291V420.075H139.952Z" fill="black"/>
<path d="M201.533 429.715H166.943V445.479H197.563V455.233H166.943V471.564H201.986V481.203H156.282V420.075H201.533V429.715V429.715Z" fill="black"/>
<path d="M257.443 420.075H268.103V481.203H259.144L225.461 437.654V481.203H214.801V420.075H224.781L257.443 462.377V420.075Z" fill="black"/>
<path d="M332.181 475.873C330.48 477.234 328.665 478.368 326.624 479.275C324.582 480.296 322.428 480.977 320.159 481.43C317.551 481.997 314.943 482.224 312.334 482.224C308.138 482.338 303.828 481.43 299.972 479.729C296.23 478.141 292.941 475.873 290.106 473.038C287.27 470.203 285.116 466.8 283.641 463.058C282.054 459.088 281.26 454.892 281.26 450.696C281.26 446.5 282.054 442.304 283.528 438.334C285.002 434.592 287.27 431.19 289.992 428.241C292.828 425.406 296.23 423.024 299.972 421.436C303.942 419.735 308.365 418.828 312.674 418.941C315.169 418.941 317.778 419.168 320.273 419.622C322.428 420.075 324.582 420.756 326.624 421.55C328.552 422.344 330.366 423.364 331.954 424.612C333.542 425.746 335.129 427.107 336.604 428.468L329.686 436.406C327.304 434.252 324.696 432.324 321.861 430.849C318.912 429.488 315.736 428.808 312.561 428.808C309.839 428.808 307.004 429.375 304.509 430.509C302.127 431.643 299.859 433.231 298.044 435.159C296.23 437.087 294.756 439.469 293.848 441.964C291.92 447.407 291.92 453.531 293.848 458.975C294.756 461.584 296.23 463.852 298.044 465.893C299.859 467.821 302.127 469.409 304.509 470.543C307.004 471.677 309.839 472.244 312.561 472.244C315.85 472.357 319.252 471.564 322.201 470.089C325.036 468.502 327.758 466.574 330.139 464.305L337.057 471.337C335.583 473.038 333.995 474.512 332.181 475.873Z" fill="black"/>
<path d="M393.537 429.715H358.947V445.479H389.567V455.233H358.947V471.564H393.99V481.203H348.286V420.075H393.537V429.715Z" fill="black"/>
<path d="M36.1807 369.948H11.6841V381.856H33.3454V388.661H11.6841V406.126H4.3125V363.144H36.2941V369.948H36.1807Z" fill="black"/>
<path d="M80.8642 406.126H72.9255L68.6159 395.692H48.3155L43.8925 406.126H36.1807L55.1201 362.803H62.1515L80.8642 406.126ZM58.2956 371.876L50.924 389.115H65.7807L58.2956 371.876Z" fill="black"/>
<path d="M119.537 402.497C118.289 403.404 117.042 404.198 115.681 404.879C114.206 405.559 112.732 406.126 111.144 406.466C109.33 406.807 107.515 407.033 105.701 407.033C102.752 407.033 99.6899 406.466 96.968 405.332C94.3596 404.198 92.0914 402.61 90.05 400.683C88.1221 398.641 86.5343 396.26 85.5136 393.651C84.3795 390.929 83.8125 387.867 83.8125 384.919C83.8125 381.97 84.3796 379.021 85.4002 376.299C86.4209 373.691 88.0087 371.196 89.9366 369.155C91.8646 367.113 94.3596 365.412 96.968 364.391C99.8033 363.257 102.865 362.69 105.927 362.69C107.742 362.69 109.557 362.804 111.258 363.144C112.732 363.484 114.206 363.938 115.681 364.505C117.042 365.072 118.289 365.752 119.423 366.66C120.557 367.453 121.691 368.361 122.712 369.381L117.835 374.938C116.248 373.464 114.32 372.103 112.392 371.083C110.35 370.062 108.082 369.495 105.814 369.608C103.886 369.608 101.958 370.062 100.144 370.856C98.4424 371.65 96.8546 372.784 95.6071 374.145C94.2462 375.506 93.3389 377.207 92.6585 379.021C91.978 380.949 91.6378 382.991 91.6378 385.032C91.6378 387.073 91.978 389.115 92.6585 391.043C93.3389 392.857 94.3596 394.445 95.6071 395.919C98.2156 398.755 101.958 400.456 105.814 400.456C108.196 400.569 110.464 400.002 112.619 398.981C114.66 397.847 116.475 396.486 118.176 394.899L123.052 399.775C121.805 400.569 120.671 401.476 119.537 402.497Z" fill="black"/>
<path d="M167.055 387.527C167.055 390.362 166.601 393.197 165.694 395.919C164.9 398.187 163.653 400.229 161.952 401.93C160.364 403.518 158.322 404.765 156.168 405.559C153.673 406.353 151.178 406.807 148.569 406.807C145.961 406.807 143.466 406.353 140.971 405.559C138.816 404.765 136.775 403.518 135.187 401.93C133.599 400.229 132.238 398.187 131.444 396.033C130.537 393.424 130.083 390.589 130.197 387.867V363.144H137.682V387.64C137.682 391.61 138.703 394.672 140.631 396.827C142.785 398.981 145.621 400.115 148.683 400.002C151.631 400.115 154.58 399.095 156.621 396.94C158.549 394.899 159.57 391.95 159.57 387.981V363.257H167.055V387.527Z" fill="black"/>
<path d="M177.376 363.144H184.861V399.322H207.43V406.126H177.376V363.144Z" fill="black"/>
<path d="M227.503 406.126H219.904V370.175H206.295V363.144H241.225V370.175H227.616L227.503 406.126Z" fill="black"/>
<path d="M269.352 406.126H261.754V389.115L244.629 363.031H253.588L265.61 382.083L277.745 363.031H286.364L269.239 388.888L269.352 406.126Z" fill="black"/>
<path d="M352.935 393.197C351.914 395.919 350.326 398.301 348.285 400.342C346.244 402.384 343.749 404.085 341.14 405.219C335.356 407.6 328.779 407.601 322.995 405.332C320.386 404.312 317.891 402.61 315.963 400.569C314.035 398.528 312.448 396.146 311.313 393.538C309.045 387.981 309.045 381.856 311.313 376.299C312.334 373.578 313.922 371.196 315.963 369.155C318.005 367.113 320.5 365.412 323.108 364.278C328.892 361.896 335.47 361.896 341.254 364.165C343.862 365.185 346.357 366.886 348.285 368.928C350.213 370.969 351.801 373.351 352.935 375.959C355.203 381.516 355.203 387.64 352.935 393.197ZM345.677 378.794C344.996 376.98 343.976 375.279 342.615 373.918C341.254 372.557 339.779 371.423 337.965 370.629C334.222 368.928 329.913 368.928 326.17 370.629C324.469 371.423 322.881 372.557 321.634 373.918C320.273 375.279 319.366 376.98 318.685 378.794C317.324 382.65 317.324 386.733 318.685 390.589C319.366 392.404 320.386 394.105 321.747 395.466C323.108 396.827 324.582 397.961 326.397 398.755C330.139 400.456 334.449 400.456 338.192 398.755C339.893 397.961 341.481 396.827 342.728 395.466C344.089 394.105 344.996 392.404 345.677 390.589C347.038 386.733 347.038 382.65 345.677 378.794Z" fill="black"/>
<path d="M395.69 369.948H371.194V381.856H392.855V388.661H371.194V406.126H363.822V363.144H395.804V369.948H395.69Z" fill="black"/>
</svg>
