<svg width="400" height="414" viewBox="0 0 400 414" fill="none" xmlns="http://www.w3.org/2000/svg">
<path d="M4.67807 360.51C3.18507 359.913 1.99067 359.017 1.1944 357.823C0.398134 356.628 0 355.235 0 353.742V352.945C0 352.846 0 352.746 0.0995334 352.647C0.199067 352.547 0.2986 352.547 0.398134 352.547H4.67807C4.7776 352.547 4.87714 352.547 4.97667 352.647C5.0762 352.746 5.0762 352.846 5.0762 352.945V353.543C5.0762 354.538 5.57387 355.334 6.46967 356.031C7.36547 356.728 8.6594 357.026 10.1524 357.026C11.4463 357.026 12.4417 356.728 13.1384 356.23C13.7356 355.633 14.1337 354.936 14.1337 354.14C14.1337 353.543 13.9347 353.045 13.5365 352.647C13.1384 352.249 12.6407 351.851 11.944 351.552C11.2473 351.253 10.1524 350.855 8.6594 350.258C6.96734 349.661 5.57387 349.064 4.37947 348.466C3.18507 347.869 2.28927 347.073 1.493 345.978C0.696734 344.983 0.2986 343.689 0.2986 342.196C0.2986 340.703 0.696734 339.409 1.493 338.314C2.28927 337.219 3.2846 336.323 4.67807 335.726C6.07154 335.129 7.66407 334.83 9.45567 334.83C11.3468 334.83 13.0389 335.129 14.5319 335.826C16.0249 336.522 17.1197 337.418 18.0155 338.613C18.8118 339.807 19.3095 341.2 19.3095 342.793V343.39C19.3095 343.49 19.3095 343.589 19.2099 343.689C19.1104 343.788 19.0109 343.788 18.9113 343.788H14.6314C14.5319 343.788 14.4323 343.788 14.3328 343.689C14.2333 343.589 14.2333 343.49 14.2333 343.39V343.092C14.2333 342.096 13.8351 341.2 12.9393 340.404C12.0435 339.707 10.9487 339.309 9.45567 339.309C8.26127 339.309 7.36547 339.608 6.66874 340.006C5.972 340.504 5.6734 341.2 5.6734 342.096C5.6734 342.693 5.87247 343.191 6.2706 343.689C6.66874 344.087 7.26594 344.485 7.96267 344.784C8.65941 345.082 9.85381 345.58 11.4463 346.177C13.2379 346.874 14.6314 347.372 15.6267 347.869C16.6221 348.367 17.5179 349.064 18.3141 350.059C19.1104 351.054 19.5085 352.348 19.5085 353.841C19.5085 356.13 18.6127 358.022 16.9207 359.415C15.2286 360.809 12.8398 361.406 9.95334 361.406C7.86314 361.505 6.17107 361.107 4.67807 360.51Z" fill="black"/>
<path d="M37.6237 343.49C38.8181 344.684 39.4153 346.376 39.4153 348.466V360.709C39.4153 360.809 39.4153 360.908 39.3157 361.008C39.2162 361.107 39.1167 361.107 39.0171 361.107H34.6377C34.5381 361.107 34.4386 361.107 34.3391 361.008C34.2395 360.908 34.2395 360.809 34.2395 360.709V349.561C34.2395 348.566 33.9409 347.77 33.4433 347.172C32.8461 346.575 32.1493 346.277 31.2535 346.277C30.3577 346.277 29.5615 346.575 29.0638 347.172C28.4666 347.77 28.2675 348.566 28.2675 349.561V360.709C28.2675 360.809 28.2675 360.908 28.168 361.008C28.0685 361.107 27.9689 361.107 27.8694 361.107H23.4899C23.3904 361.107 23.2909 361.107 23.1913 361.008C23.0918 360.908 23.0918 360.809 23.0918 360.709V335.527C23.0918 335.428 23.0918 335.328 23.1913 335.228C23.2909 335.129 23.3904 335.129 23.4899 335.129H27.8694C27.9689 335.129 28.0685 335.129 28.168 335.228C28.2675 335.328 28.2675 335.428 28.2675 335.527V343.788C28.2675 343.888 28.2675 343.888 28.3671 343.987H28.4666C29.4619 342.594 30.9549 341.798 33.0451 341.798C34.7372 341.698 36.3297 342.295 37.6237 343.49Z" fill="black"/>
<path d="M60.2181 352.746C60.2181 353.045 60.019 353.244 59.7204 353.244H48.1745C48.075 353.244 47.9755 353.344 48.075 353.443C48.1745 353.941 48.2741 354.439 48.4731 354.936C49.0703 356.33 50.4638 357.026 52.4545 357.026C54.047 357.026 55.3409 356.33 56.2367 355.135C56.3363 355.036 56.4358 354.936 56.5353 354.936C56.6349 354.936 56.7344 355.036 56.8339 355.036L59.5213 357.723C59.6209 357.823 59.7204 357.922 59.7204 358.022C59.7204 358.121 59.7204 358.221 59.6209 358.32C58.8246 359.316 57.7297 360.112 56.4358 360.709C55.1419 361.306 53.7484 361.505 52.1559 361.505C50.0657 361.505 48.1745 361.008 46.6815 360.012C45.1885 359.017 44.0937 357.723 43.4965 355.932C42.9988 354.737 42.7002 353.045 42.7002 351.054C42.7002 349.661 42.8993 348.467 43.2974 347.471C43.8946 345.68 44.8899 344.286 46.2834 343.291C47.6769 342.295 49.3689 341.698 51.3596 341.698C53.8479 341.698 55.8386 342.395 57.3316 343.888C58.8246 345.281 59.7204 347.272 60.1185 349.661C60.2181 350.557 60.2181 351.652 60.2181 352.746ZM48.2741 348.367C48.1745 348.666 48.075 349.064 47.9755 349.561C47.9755 349.661 48.075 349.76 48.1745 349.76H54.6442C54.7437 349.76 54.8433 349.661 54.7437 349.561C54.6442 348.865 54.5447 348.467 54.5447 348.566C54.3456 347.77 53.9475 347.272 53.3503 346.874C52.7531 346.476 52.0563 346.277 51.2601 346.277C49.7671 346.177 48.7717 346.974 48.2741 348.367Z" fill="black"/>
<path d="M63.6025 361.008C63.5029 360.908 63.5029 360.809 63.5029 360.709V335.527C63.5029 335.428 63.5029 335.328 63.6025 335.228C63.702 335.129 63.8015 335.129 63.9011 335.129H68.2805C68.3801 335.129 68.4796 335.129 68.5791 335.228C68.6787 335.328 68.6787 335.428 68.6787 335.527V360.709C68.6787 360.809 68.6787 360.908 68.5791 361.008C68.4796 361.107 68.3801 361.107 68.2805 361.107H63.9011C63.702 361.207 63.6025 361.107 63.6025 361.008Z" fill="black"/>
<path d="M72.6601 361.008C72.5605 360.908 72.5605 360.809 72.5605 360.709V335.527C72.5605 335.428 72.5605 335.328 72.6601 335.228C72.7596 335.129 72.8591 335.129 72.9587 335.129H77.3381C77.4377 335.129 77.5372 335.129 77.6367 335.228C77.7363 335.328 77.7363 335.428 77.7363 335.527V360.709C77.7363 360.809 77.7363 360.908 77.6367 361.008C77.5372 361.107 77.4377 361.107 77.3381 361.107H72.9587C72.8591 361.207 72.7596 361.107 72.6601 361.008Z" fill="black"/>
<path d="M107.396 339.409C107.297 339.508 107.197 339.508 107.098 339.508H94.8553C94.7557 339.508 94.6562 339.608 94.6562 339.708V345.48C94.6562 345.58 94.7557 345.68 94.8553 345.68H102.917C103.017 345.68 103.117 345.68 103.216 345.779C103.316 345.879 103.316 345.978 103.316 346.078V349.661C103.316 349.76 103.316 349.86 103.216 349.959C103.117 350.059 103.017 350.059 102.917 350.059H94.8553C94.7557 350.059 94.6562 350.159 94.6562 350.258V356.33C94.6562 356.429 94.7557 356.529 94.8553 356.529H107.098C107.197 356.529 107.297 356.529 107.396 356.628C107.496 356.728 107.496 356.827 107.496 356.927V360.51C107.496 360.61 107.496 360.709 107.396 360.809C107.297 360.908 107.197 360.908 107.098 360.908H89.8786C89.7791 360.908 89.6795 360.908 89.58 360.809C89.4805 360.709 89.4805 360.61 89.4805 360.51V335.328C89.4805 335.229 89.4805 335.129 89.58 335.029C89.6795 334.93 89.7791 334.93 89.8786 334.93H107.098C107.197 334.93 107.297 334.93 107.396 335.029C107.496 335.129 107.496 335.229 107.496 335.328V338.911C107.496 339.21 107.496 339.409 107.396 339.409Z" fill="black"/>
<path d="M109.785 361.008C109.686 360.908 109.785 360.809 109.885 360.609L115.857 351.651C115.857 351.552 115.857 351.452 115.857 351.452L109.885 342.494C109.885 342.395 109.785 342.295 109.785 342.196C109.785 341.997 109.885 341.897 110.183 341.897H114.862C115.061 341.897 115.26 341.997 115.359 342.196L118.743 347.272C118.843 347.372 118.942 347.372 119.042 347.272L122.426 342.196C122.526 341.997 122.725 341.897 122.924 341.897H127.9C128.1 341.897 128.199 341.997 128.199 342.096C128.199 342.196 128.199 342.295 128.1 342.494L122.128 351.452C122.128 351.552 122.128 351.552 122.128 351.651L128.1 360.609C128.199 360.709 128.199 360.809 128.199 360.908C128.199 361.107 128.1 361.207 127.9 361.207H123.222C123.023 361.207 122.824 361.107 122.725 360.908L119.341 355.832C119.241 355.732 119.142 355.732 119.142 355.832L115.757 360.908C115.658 361.107 115.459 361.207 115.26 361.207H110.283C109.885 361.207 109.785 361.107 109.785 361.008Z" fill="black"/>
<path d="M148.702 351.651C148.702 353.344 148.503 354.936 148.006 356.33C147.409 357.922 146.513 359.216 145.318 360.112C144.124 361.008 142.531 361.505 140.74 361.505C138.948 361.505 137.555 360.908 136.559 359.614C136.559 359.515 136.46 359.515 136.46 359.515C136.36 359.515 136.36 359.614 136.36 359.714V367.676C136.36 367.776 136.36 367.875 136.261 367.975C136.161 368.075 136.062 368.074 135.962 368.074H131.583C131.483 368.074 131.384 368.075 131.284 367.975C131.185 367.875 131.185 367.776 131.185 367.676V342.494C131.185 342.395 131.185 342.295 131.284 342.196C131.384 342.096 131.483 342.096 131.583 342.096H135.962C136.062 342.096 136.161 342.096 136.261 342.196C136.36 342.295 136.36 342.395 136.36 342.494V343.689C136.36 343.788 136.36 343.788 136.46 343.788C136.46 343.788 136.559 343.788 136.559 343.689C137.555 342.295 139.048 341.599 140.839 341.599C142.531 341.599 144.024 342.096 145.318 342.992C146.612 343.987 147.508 345.281 148.006 346.973C148.503 348.367 148.702 349.86 148.702 351.651ZM143.228 351.552C143.228 349.959 142.93 348.765 142.432 347.869C141.835 346.774 140.939 346.277 139.645 346.277C138.55 346.277 137.654 346.774 137.057 347.869C136.559 348.765 136.261 350.059 136.261 351.651C136.261 353.344 136.559 354.638 137.057 355.533C137.654 356.529 138.451 357.026 139.545 357.026C140.64 357.026 141.536 356.529 142.133 355.533C142.93 354.538 143.228 353.244 143.228 351.552Z" fill="black"/>
<path d="M169.108 352.746C169.108 353.045 168.909 353.244 168.61 353.244H157.064C156.965 353.244 156.865 353.344 156.965 353.443C157.064 353.941 157.164 354.439 157.363 354.936C157.96 356.33 159.353 357.026 161.344 357.026C162.937 357.026 164.231 356.33 165.126 355.135C165.226 355.036 165.325 354.936 165.425 354.936C165.525 354.936 165.624 355.036 165.724 355.036L168.411 357.723C168.511 357.823 168.61 357.922 168.61 358.022C168.61 358.121 168.61 358.221 168.511 358.32C167.714 359.316 166.619 360.112 165.325 360.709C164.032 361.306 162.638 361.505 161.046 361.505C158.955 361.505 157.064 361.008 155.571 360.012C154.078 359.017 152.983 357.723 152.386 355.932C151.888 354.737 151.59 353.045 151.59 351.054C151.59 349.661 151.789 348.467 152.187 347.471C152.784 345.68 153.78 344.286 155.173 343.291C156.567 342.295 158.259 341.698 160.249 341.698C162.738 341.698 164.728 342.395 166.221 343.888C167.714 345.281 168.61 347.272 169.008 349.661C169.108 350.557 169.108 351.652 169.108 352.746ZM157.164 348.367C157.064 348.666 156.965 349.064 156.865 349.561C156.865 349.661 156.965 349.76 157.064 349.76H163.534C163.733 349.76 163.733 349.661 163.733 349.561C163.633 348.865 163.534 348.467 163.534 348.566C163.335 347.77 162.937 347.272 162.339 346.874C161.742 346.476 161.046 346.277 160.249 346.277C158.657 346.177 157.661 346.974 157.164 348.367Z" fill="black"/>
<path d="M184.038 342.296C184.237 342.395 184.337 342.594 184.237 342.893L183.441 347.173C183.441 347.471 183.242 347.571 182.943 347.471C182.545 347.372 182.147 347.272 181.649 347.272C181.45 347.272 181.152 347.272 180.853 347.372C179.957 347.471 179.161 347.77 178.564 348.367C177.967 348.964 177.668 349.761 177.668 350.656V360.809C177.668 360.908 177.668 361.008 177.568 361.107C177.469 361.207 177.369 361.207 177.27 361.207H172.89C172.791 361.207 172.691 361.207 172.592 361.107C172.492 361.008 172.492 360.908 172.492 360.809V342.495C172.492 342.395 172.492 342.296 172.592 342.196C172.691 342.096 172.791 342.097 172.89 342.097H177.27C177.369 342.097 177.469 342.096 177.568 342.196C177.668 342.296 177.668 342.395 177.668 342.495V343.888C177.668 343.988 177.668 343.988 177.767 344.087H177.867C178.862 342.594 180.256 341.897 181.948 341.897C182.744 341.698 183.54 341.897 184.038 342.296Z" fill="black"/>
<path d="M187.322 339.011C186.724 338.414 186.525 337.717 186.525 336.921C186.525 336.025 186.824 335.328 187.322 334.83C187.819 334.333 188.616 334.034 189.412 334.034C190.208 334.034 191.004 334.333 191.502 334.83C192 335.328 192.298 336.124 192.298 336.921C192.298 337.717 192 338.513 191.502 339.011C190.905 339.608 190.208 339.807 189.412 339.807C188.616 339.807 187.919 339.608 187.322 339.011ZM186.924 361.008C186.824 360.908 186.824 360.809 186.824 360.709V342.395C186.824 342.295 186.824 342.196 186.924 342.096C187.023 341.997 187.123 341.997 187.222 341.997H191.602C191.701 341.997 191.801 341.997 191.9 342.096C192 342.196 192 342.295 192 342.395V360.709C192 360.809 192 360.908 191.9 361.008C191.801 361.107 191.701 361.107 191.602 361.107H187.222C187.123 361.207 187.023 361.107 186.924 361.008Z" fill="black"/>
<path d="M213.2 352.746C213.2 353.045 213.001 353.244 212.703 353.244H201.157C201.057 353.244 200.958 353.344 201.057 353.443C201.157 353.941 201.256 354.439 201.456 354.936C202.053 356.33 203.446 357.026 205.437 357.026C207.029 357.026 208.323 356.33 209.219 355.135C209.319 355.036 209.418 354.936 209.518 354.936C209.617 354.936 209.717 355.036 209.816 355.036L212.504 357.723C212.603 357.823 212.703 357.922 212.703 358.022C212.703 358.121 212.703 358.221 212.603 358.32C211.807 359.316 210.712 360.112 209.418 360.709C208.124 361.306 206.731 361.505 205.138 361.505C203.048 361.505 201.157 361.008 199.664 360.012C198.171 359.017 197.076 357.723 196.479 355.932C195.981 354.737 195.683 353.045 195.683 351.054C195.683 349.661 195.882 348.467 196.28 347.471C196.877 345.68 197.872 344.286 199.266 343.291C200.659 342.295 202.351 341.698 204.342 341.698C206.83 341.698 208.821 342.395 210.314 343.888C211.807 345.281 212.703 347.272 213.101 349.661C213.2 350.557 213.3 351.652 213.2 352.746ZM201.356 348.367C201.256 348.666 201.157 349.064 201.057 349.561C201.057 349.661 201.157 349.76 201.256 349.76H207.726C207.925 349.76 207.925 349.661 207.925 349.561C207.826 348.865 207.726 348.467 207.726 348.566C207.527 347.77 207.129 347.272 206.532 346.874C205.935 346.476 205.238 346.277 204.442 346.277C202.849 346.177 201.854 346.974 201.356 348.367Z" fill="black"/>
<path d="M231.316 343.49C232.51 344.684 233.107 346.376 233.107 348.467V360.709C233.107 360.809 233.108 360.908 233.008 361.008C232.908 361.107 232.809 361.107 232.709 361.107H228.33C228.23 361.107 228.131 361.107 228.031 361.008C227.932 360.908 227.932 360.809 227.932 360.709V349.561C227.932 348.566 227.633 347.77 227.135 347.173C226.538 346.575 225.842 346.277 224.946 346.277C224.05 346.277 223.254 346.575 222.756 347.173C222.159 347.77 221.96 348.566 221.96 349.561V360.709C221.96 360.809 221.96 360.908 221.86 361.008C221.761 361.107 221.661 361.107 221.562 361.107H216.983C216.884 361.107 216.784 361.107 216.684 361.008C216.585 360.908 216.585 360.809 216.585 360.709V342.395C216.585 342.295 216.585 342.196 216.684 342.096C216.784 341.997 216.884 341.997 216.983 341.997H221.363C221.462 341.997 221.562 341.997 221.661 342.096C221.761 342.196 221.761 342.295 221.761 342.395V343.689C221.761 343.788 221.761 343.788 221.86 343.888H221.96C222.955 342.495 224.448 341.698 226.538 341.698C228.429 341.698 230.121 342.295 231.316 343.49Z" fill="black"/>
<path d="M247.739 346.078C247.639 346.177 247.54 346.177 247.44 346.177H243.857C243.758 346.177 243.658 346.277 243.658 346.376V354.24C243.658 355.036 243.857 355.633 244.156 356.031C244.454 356.429 245.052 356.628 245.748 356.628H246.943C247.042 356.628 247.142 356.628 247.241 356.728C247.341 356.827 247.341 356.927 247.341 357.026V360.61C247.341 360.908 247.142 361.008 246.943 361.107C245.947 361.107 245.151 361.207 244.753 361.207C242.663 361.207 241.17 360.908 240.174 360.212C239.179 359.515 238.681 358.221 238.582 356.33V346.376C238.582 346.277 238.482 346.177 238.383 346.177H236.293C236.193 346.177 236.094 346.177 235.994 346.078C235.895 345.978 235.895 345.879 235.895 345.779V342.495C235.895 342.395 235.895 342.296 235.994 342.196C236.094 342.096 236.193 342.096 236.293 342.096H238.383C238.482 342.096 238.582 341.997 238.582 341.897V337.418C238.582 337.319 238.582 337.219 238.681 337.12C238.781 337.02 238.881 337.02 238.98 337.02H243.16C243.26 337.02 243.36 337.02 243.459 337.12C243.559 337.219 243.559 337.319 243.559 337.418V341.897C243.559 341.997 243.658 342.096 243.758 342.096H247.341C247.44 342.096 247.54 342.096 247.639 342.196C247.739 342.296 247.739 342.395 247.739 342.495V345.779C247.839 345.879 247.839 345.978 247.739 346.078Z" fill="black"/>
<path d="M263.067 342.495C264.361 343.092 265.357 343.788 266.053 344.784C266.75 345.779 267.148 346.874 267.148 348.068V360.709C267.148 360.809 267.148 360.908 267.049 361.008C266.949 361.107 266.85 361.107 266.75 361.107H262.371C262.271 361.107 262.171 361.107 262.072 361.008C261.972 360.908 261.972 360.809 261.972 360.709V359.515C261.972 359.415 261.972 359.415 261.873 359.316C261.773 359.316 261.773 359.316 261.674 359.415C260.678 360.809 258.986 361.505 256.598 361.505C254.706 361.505 253.114 361.008 251.92 360.112C250.725 359.216 250.128 357.823 250.128 355.932C250.128 354.04 250.825 352.547 252.119 351.453C253.413 350.358 255.403 349.86 257.892 349.86H261.674C261.773 349.86 261.873 349.76 261.873 349.661V348.865C261.873 348.068 261.574 347.372 261.176 346.974C260.678 346.476 259.982 346.277 258.986 346.277C258.19 346.277 257.593 346.376 257.095 346.675C256.598 346.974 256.299 347.372 256.1 347.869C256 348.168 255.901 348.267 255.602 348.267L251.123 347.67C250.825 347.67 250.725 347.471 250.725 347.372C250.825 346.376 251.223 345.381 252.019 344.585C252.716 343.788 253.711 343.092 254.906 342.594C256.1 342.096 257.493 341.897 258.986 341.897C260.28 341.698 261.773 341.997 263.067 342.495ZM260.678 356.728C261.375 356.131 261.773 355.434 261.773 354.538V353.244C261.773 353.145 261.674 353.045 261.574 353.045H258.887C257.792 353.045 256.896 353.244 256.299 353.642C255.702 354.04 255.304 354.638 255.304 355.434C255.304 356.131 255.503 356.628 256 357.026C256.498 357.425 257.095 357.624 257.892 357.624C258.986 357.524 259.882 357.225 260.678 356.728Z" fill="black"/>
<path d="M270.831 361.008C270.731 360.908 270.731 360.809 270.731 360.709V335.527C270.731 335.428 270.731 335.328 270.831 335.229C270.931 335.129 271.03 335.129 271.13 335.129H275.509C275.609 335.129 275.708 335.129 275.808 335.229C275.907 335.328 275.907 335.428 275.907 335.527V360.709C275.907 360.809 275.907 360.908 275.808 361.008C275.708 361.107 275.609 361.107 275.509 361.107H271.13C271.03 361.207 270.931 361.107 270.831 361.008Z" fill="black"/>
<path d="M305.667 339.409C305.567 339.508 305.468 339.508 305.368 339.508H293.126C293.026 339.508 292.927 339.608 292.927 339.708V345.48C292.927 345.58 293.026 345.68 293.126 345.68H301.188C301.288 345.68 301.387 345.68 301.487 345.779C301.586 345.879 301.586 345.978 301.586 346.078V349.661C301.586 349.76 301.586 349.86 301.487 349.959C301.387 350.059 301.288 350.059 301.188 350.059H293.126C293.026 350.059 292.927 350.159 292.927 350.258V356.33C292.927 356.429 293.026 356.529 293.126 356.529H305.368C305.468 356.529 305.567 356.529 305.667 356.628C305.767 356.728 305.767 356.827 305.767 356.927V360.51C305.767 360.61 305.767 360.709 305.667 360.809C305.567 360.908 305.468 360.908 305.368 360.908H288.149C288.05 360.908 287.95 360.908 287.851 360.809C287.751 360.709 287.751 360.61 287.751 360.51V335.328C287.751 335.229 287.751 335.129 287.851 335.029C287.95 334.93 288.05 334.93 288.149 334.93H305.368C305.468 334.93 305.567 334.93 305.667 335.029C305.767 335.129 305.767 335.229 305.767 335.328V338.911C305.767 339.21 305.667 339.409 305.667 339.409Z" fill="black"/>
<path d="M323.881 343.49C325.076 344.684 325.673 346.376 325.673 348.467V360.709C325.673 360.809 325.673 360.908 325.573 361.008C325.474 361.107 325.374 361.107 325.275 361.107H320.895C320.796 361.107 320.696 361.107 320.597 361.008C320.497 360.908 320.497 360.809 320.497 360.709V349.561C320.497 348.566 320.199 347.77 319.701 347.173C319.104 346.575 318.407 346.277 317.511 346.277C316.615 346.277 315.819 346.575 315.321 347.173C314.724 347.77 314.525 348.566 314.525 349.561V360.709C314.525 360.809 314.525 360.908 314.426 361.008C314.326 361.107 314.227 361.107 314.127 361.107H309.549C309.449 361.107 309.349 361.107 309.25 361.008C309.15 360.908 309.15 360.809 309.15 360.709V342.395C309.15 342.295 309.15 342.196 309.25 342.096C309.349 341.997 309.449 341.997 309.549 341.997H313.928C314.028 341.997 314.127 341.997 314.227 342.096C314.326 342.196 314.326 342.295 314.326 342.395V343.689C314.326 343.788 314.326 343.788 314.426 343.888H314.525C315.521 342.495 317.014 341.698 319.104 341.698C321.094 341.698 322.687 342.295 323.881 343.49Z" fill="black"/>
<path d="M346.476 352.746C346.476 353.045 346.277 353.244 345.978 353.244H334.432C334.233 353.244 334.233 353.344 334.233 353.443C334.333 353.941 334.432 354.439 334.631 354.936C335.228 356.33 336.622 357.026 338.613 357.026C340.205 357.026 341.499 356.33 342.395 355.135C342.494 355.036 342.594 354.936 342.693 354.936C342.793 354.936 342.893 355.036 342.992 355.036L345.679 357.723C345.779 357.823 345.879 357.922 345.879 358.022C345.879 358.121 345.779 358.221 345.679 358.32C344.883 359.316 343.788 360.112 342.494 360.709C341.2 361.306 339.807 361.505 338.214 361.505C336.124 361.505 334.233 361.008 332.74 360.012C331.247 359.017 330.152 357.723 329.555 355.932C329.057 354.737 328.759 353.045 328.759 351.054C328.759 349.661 328.958 348.467 329.356 347.471C329.953 345.68 330.949 344.286 332.342 343.291C333.735 342.295 335.428 341.698 337.418 341.698C339.907 341.698 341.897 342.395 343.39 343.888C344.883 345.281 345.779 347.272 346.177 349.661C346.476 350.557 346.476 351.652 346.476 352.746ZM334.532 348.367C334.432 348.666 334.333 349.064 334.233 349.561C334.233 349.661 334.333 349.76 334.432 349.76H340.902C341.101 349.76 341.101 349.661 341.101 349.561C341.001 348.865 340.902 348.467 340.902 348.566C340.703 347.77 340.305 347.272 339.707 346.874C339.11 346.476 338.414 346.277 337.617 346.277C336.025 346.177 335.029 346.974 334.532 348.367Z" fill="black"/>
<path d="M361.405 342.295C361.604 342.395 361.704 342.594 361.604 342.893L360.808 347.172C360.808 347.471 360.609 347.571 360.31 347.471C359.912 347.372 359.514 347.272 359.016 347.272C358.817 347.272 358.519 347.272 358.22 347.372C357.324 347.471 356.528 347.77 355.931 348.367C355.334 348.964 355.035 349.76 355.035 350.656V360.809C355.035 360.908 355.035 361.008 354.936 361.107C354.836 361.207 354.736 361.207 354.637 361.207H350.258C350.158 361.207 350.058 361.207 349.959 361.107C349.859 361.008 349.859 360.908 349.859 360.809V342.494C349.859 342.395 349.859 342.295 349.959 342.196C350.058 342.096 350.158 342.096 350.258 342.096H354.637C354.736 342.096 354.836 342.096 354.936 342.196C355.035 342.295 355.035 342.395 355.035 342.494V343.888C355.035 343.987 355.035 343.987 355.135 344.087H355.234C356.23 342.594 357.623 341.897 359.315 341.897C360.111 341.698 360.808 341.897 361.405 342.295Z" fill="black"/>
<path d="M374.943 342.096C375.042 341.997 375.142 341.997 375.241 341.997H379.621C379.72 341.997 379.82 341.997 379.919 342.096C380.019 342.196 380.019 342.296 380.019 342.395V359.415C380.019 362.7 379.123 364.989 377.232 366.383C375.341 367.776 372.952 368.473 369.966 368.473C369.07 368.473 368.174 368.373 367.079 368.274C366.781 368.274 366.681 368.075 366.681 367.776L366.88 363.894C366.88 363.596 367.08 363.397 367.378 363.496C368.274 363.695 369.07 363.695 369.866 363.695C371.459 363.695 372.653 363.397 373.549 362.7C374.445 362.003 374.843 360.908 374.843 359.316C374.843 359.216 374.843 359.216 374.744 359.216C374.644 359.216 374.644 359.216 374.644 359.316C373.748 360.311 372.355 360.809 370.464 360.809C368.871 360.809 367.378 360.411 365.985 359.614C364.591 358.818 363.695 357.524 363.098 355.832C362.7 354.737 362.501 353.244 362.501 351.353C362.501 349.462 362.7 347.869 363.198 346.575C363.695 345.082 364.591 343.888 365.885 342.893C367.08 341.997 368.572 341.499 370.165 341.499C372.056 341.499 373.549 342.096 374.544 343.191C374.544 343.291 374.644 343.291 374.644 343.291L374.744 343.191V342.296C374.843 342.296 374.843 342.196 374.943 342.096ZM374.843 351.453C374.843 350.656 374.843 350.059 374.744 349.661C374.744 349.263 374.644 348.865 374.445 348.467C374.246 347.77 373.848 347.272 373.35 346.874C372.852 346.476 372.156 346.277 371.459 346.277C370.762 346.277 370.065 346.476 369.568 346.874C369.07 347.272 368.672 347.869 368.373 348.467C368.075 349.163 367.876 350.258 367.876 351.453C367.876 352.846 367.975 353.841 368.274 354.439C368.473 355.135 368.871 355.633 369.468 356.031C370.066 356.429 370.663 356.628 371.459 356.628C372.255 356.628 372.952 356.429 373.45 356.031C373.947 355.633 374.345 355.135 374.544 354.439C374.744 353.742 374.843 352.747 374.843 351.453Z" fill="black"/>
<path d="M383.602 368.473C383.602 368.373 383.502 368.274 383.502 368.174V364.79C383.502 364.69 383.502 364.591 383.602 364.491C383.701 364.392 383.801 364.392 383.9 364.392C384.896 364.392 385.792 364.292 386.389 364.093C386.986 363.994 387.484 363.695 387.882 363.197C388.28 362.799 388.479 362.202 388.678 361.306C388.678 361.306 388.678 361.207 388.678 361.107L382.606 342.494C382.606 342.494 382.606 342.395 382.606 342.295C382.606 342.096 382.706 341.997 383.005 341.997H387.683C387.981 341.997 388.081 342.096 388.18 342.395L391.266 354.439C391.266 354.538 391.365 354.538 391.365 354.538C391.365 354.538 391.465 354.538 391.465 354.439L394.55 342.395C394.65 342.096 394.75 341.997 395.048 341.997H399.627C399.726 341.997 399.925 341.997 399.925 342.096C400.025 342.196 400.025 342.295 399.925 342.494L393.456 361.904C392.858 363.695 392.162 365.089 391.564 365.984C390.967 366.88 389.972 367.577 388.877 367.975C387.782 368.373 386.09 368.572 383.9 368.572H383.602C383.701 368.572 383.602 368.572 383.602 368.473Z" fill="black"/>
<path d="M54.1464 405.798C54.0469 405.698 54.0469 405.599 54.0469 405.499V380.218C54.0469 380.118 54.0469 380.019 54.1464 379.919C54.2459 379.82 54.3455 379.82 54.445 379.82H58.8245C58.924 379.82 59.0235 379.82 59.1231 379.919C59.2226 380.019 59.2226 380.118 59.2226 380.218V401.219C59.2226 401.319 59.3221 401.418 59.4217 401.418H71.6643C71.7638 401.418 71.8634 401.418 71.9629 401.518C72.0624 401.617 72.0624 401.717 72.0624 401.816V405.4C72.0624 405.499 72.0624 405.599 71.9629 405.698C71.8634 405.798 71.7638 405.798 71.6643 405.798H54.5445C54.3455 405.897 54.2459 405.897 54.1464 405.798Z" fill="black"/>
<path d="M92.1683 397.536C92.1683 397.835 91.9692 398.034 91.6706 398.034H80.1247C80.0252 398.034 79.9257 398.134 80.0252 398.233C80.1247 398.731 80.2243 399.229 80.4233 399.726C81.0205 401.12 82.414 401.816 84.4047 401.816C85.9972 401.816 87.2911 401.12 88.1869 399.925C88.2865 399.826 88.386 399.726 88.4855 399.726C88.5851 399.726 88.6846 399.826 88.7841 399.826L91.4715 402.513C91.5711 402.613 91.6706 402.712 91.6706 402.812C91.6706 402.911 91.6706 403.011 91.5711 403.11C90.7748 404.106 89.6799 404.902 88.386 405.499C87.0921 406.096 85.6986 406.295 84.1061 406.295C82.0159 406.295 80.1247 405.798 78.6317 404.802C77.1387 403.807 76.0439 402.513 75.4467 400.722C74.949 399.527 74.6504 397.835 74.6504 395.844C74.6504 394.451 74.8495 393.257 75.2476 392.261C75.8448 390.47 76.8401 389.076 78.2336 388.081C79.6271 387.085 81.3191 386.488 83.3098 386.488C85.7981 386.488 87.7888 387.185 89.2818 388.678C90.7748 390.071 91.6706 392.062 92.0687 394.451C92.1683 395.247 92.1683 396.342 92.1683 397.536ZM80.2243 393.157C80.1247 393.456 80.0252 393.854 79.9257 394.351C79.9257 394.451 80.0252 394.55 80.1247 394.55H86.5944C86.7935 394.55 86.7935 394.451 86.7935 394.351C86.6939 393.655 86.5944 393.257 86.5944 393.356C86.3953 392.56 85.9972 392.062 85.4 391.664C84.8028 391.266 84.1061 391.067 83.3098 391.067C81.7173 390.967 80.7219 391.664 80.2243 393.157Z" fill="black"/>
<path d="M107.197 387.285C108.491 387.882 109.486 388.579 110.183 389.574C110.88 390.569 111.278 391.664 111.278 392.859V405.499C111.278 405.599 111.278 405.698 111.178 405.798C111.079 405.897 110.979 405.897 110.88 405.897H106.5C106.401 405.897 106.301 405.897 106.202 405.798C106.102 405.698 106.102 405.599 106.102 405.499V404.305C106.102 404.205 106.102 404.205 106.003 404.106C105.903 404.106 105.903 404.106 105.804 404.205C104.808 405.599 103.116 406.296 100.727 406.296C98.8363 406.296 97.2438 405.798 96.0494 404.902C94.855 404.006 94.2578 402.613 94.2578 400.722C94.2578 398.831 94.9545 397.338 96.2485 396.243C97.5424 395.148 99.5331 394.65 102.021 394.65H105.804C105.903 394.65 106.003 394.551 106.003 394.451V393.655C106.003 392.859 105.704 392.162 105.306 391.764C104.808 391.266 104.012 391.067 103.116 391.067C102.32 391.067 101.723 391.166 101.225 391.465C100.727 391.764 100.429 392.162 100.23 392.659C100.13 392.958 100.031 393.058 99.7321 393.058L95.2531 392.46C94.9545 392.46 94.855 392.261 94.855 392.162C94.9546 391.166 95.3527 390.171 96.1489 389.375C96.8457 388.579 97.841 387.882 99.0354 387.384C100.23 386.887 101.623 386.687 103.116 386.687C104.51 386.488 105.903 386.687 107.197 387.285ZM104.808 401.418C105.505 400.821 105.903 400.124 105.903 399.229V397.935C105.903 397.835 105.804 397.736 105.704 397.736H103.017C101.922 397.736 101.026 397.935 100.429 398.333C99.8317 398.731 99.4336 399.328 99.4336 400.124C99.4336 400.821 99.6326 401.319 100.13 401.717C100.628 402.115 101.225 402.314 102.021 402.314C103.216 402.314 104.112 402.016 104.808 401.418Z" fill="black"/>
<path d="M126.606 386.986C126.805 387.086 126.905 387.285 126.805 387.583L126.009 391.863C126.009 392.162 125.81 392.261 125.512 392.162C125.113 392.062 124.715 391.963 124.218 391.963C124.019 391.963 123.72 391.963 123.421 392.062C122.526 392.162 121.729 392.46 121.132 393.058C120.535 393.655 120.236 394.451 120.236 395.347V405.499C120.236 405.599 120.236 405.698 120.137 405.798C120.037 405.897 119.938 405.897 119.838 405.897H115.459C115.359 405.897 115.26 405.897 115.16 405.798C115.061 405.698 115.061 405.599 115.061 405.499V387.185C115.061 387.086 115.061 386.986 115.16 386.887C115.26 386.787 115.359 386.787 115.459 386.787H119.838C119.938 386.787 120.037 386.787 120.137 386.887C120.236 386.986 120.236 387.086 120.236 387.185V388.579C120.236 388.678 120.236 388.678 120.336 388.778H120.435C121.431 387.285 122.824 386.588 124.516 386.588C125.312 386.488 126.009 386.687 126.606 386.986Z" fill="black"/>
<path d="M144.025 388.28C145.219 389.474 145.817 391.166 145.817 393.257V405.499C145.817 405.599 145.817 405.698 145.717 405.798C145.618 405.897 145.518 405.897 145.419 405.897H141.039C140.939 405.897 140.84 405.897 140.74 405.798C140.641 405.698 140.641 405.599 140.641 405.499V394.351C140.641 393.356 140.342 392.56 139.845 391.963C139.247 391.365 138.551 391.067 137.655 391.067C136.759 391.067 135.963 391.365 135.465 391.963C134.868 392.56 134.669 393.356 134.669 394.351V405.499C134.669 405.599 134.669 405.698 134.569 405.798C134.47 405.897 134.37 405.897 134.271 405.897H129.891C129.792 405.897 129.692 405.897 129.593 405.798C129.493 405.698 129.493 405.599 129.493 405.499V387.185C129.493 387.085 129.493 386.986 129.593 386.886C129.692 386.787 129.792 386.787 129.891 386.787H134.271C134.37 386.787 134.47 386.787 134.569 386.886C134.669 386.986 134.669 387.085 134.669 387.185V388.479C134.669 388.578 134.669 388.578 134.768 388.678H134.868C135.863 387.285 137.356 386.488 139.447 386.488C141.139 386.488 142.731 387.085 144.025 388.28Z" fill="black"/>
<path d="M150.295 383.701C149.698 383.104 149.499 382.407 149.499 381.611C149.499 380.715 149.798 380.019 150.295 379.521C150.793 379.023 151.589 378.725 152.386 378.725C153.281 378.725 153.978 379.023 154.476 379.521C154.973 380.019 155.272 380.815 155.272 381.611C155.272 382.407 154.973 383.204 154.476 383.701C153.878 384.298 153.182 384.498 152.386 384.498C151.589 384.597 150.892 384.298 150.295 383.701ZM149.897 405.798C149.798 405.698 149.798 405.599 149.798 405.499V387.185C149.798 387.085 149.798 386.986 149.897 386.886C149.997 386.787 150.096 386.787 150.196 386.787H154.575C154.675 386.787 154.774 386.787 154.874 386.886C154.973 386.986 154.973 387.085 154.973 387.185V405.499C154.973 405.599 154.973 405.698 154.874 405.798C154.774 405.897 154.675 405.897 154.575 405.897H150.196C150.096 405.897 149.997 405.897 149.897 405.798Z" fill="black"/>
<path d="M173.885 388.28C175.08 389.474 175.677 391.166 175.677 393.257V405.499C175.677 405.599 175.677 405.698 175.577 405.798C175.478 405.897 175.378 405.897 175.279 405.897H170.899C170.8 405.897 170.7 405.897 170.601 405.798C170.501 405.698 170.501 405.599 170.501 405.499V394.351C170.501 393.356 170.203 392.56 169.705 391.963C169.108 391.365 168.411 391.067 167.515 391.067C166.619 391.067 165.823 391.365 165.326 391.963C164.728 392.56 164.529 393.356 164.529 394.351V405.499C164.529 405.599 164.529 405.698 164.43 405.798C164.33 405.897 164.231 405.897 164.131 405.897H159.752C159.652 405.897 159.553 405.897 159.453 405.798C159.354 405.698 159.354 405.599 159.354 405.499V387.185C159.354 387.085 159.354 386.986 159.453 386.886C159.553 386.787 159.652 386.787 159.752 386.787H164.131C164.231 386.787 164.33 386.787 164.43 386.886C164.529 386.986 164.529 387.085 164.529 387.185V388.479C164.529 388.578 164.529 388.578 164.629 388.678H164.728C165.724 387.285 167.217 386.488 169.307 386.488C171.098 386.488 172.691 387.085 173.885 388.28Z" fill="black"/>
<path d="M191.303 386.887C191.402 386.787 191.502 386.787 191.602 386.787H195.981C196.081 386.787 196.18 386.787 196.28 386.887C196.379 386.986 196.379 387.086 196.379 387.185V404.205C196.379 407.49 195.483 409.779 193.592 411.173C191.701 412.566 189.312 413.263 186.326 413.263C185.43 413.263 184.535 413.163 183.44 413.064C183.141 413.064 183.042 412.865 183.042 412.566L183.241 408.684C183.241 408.386 183.44 408.187 183.738 408.286C184.634 408.485 185.43 408.485 186.227 408.485C187.819 408.485 189.014 408.187 189.909 407.49C190.805 406.793 191.203 405.698 191.203 404.106C191.203 404.006 191.203 404.006 191.104 404.006C191.004 404.006 191.004 404.006 190.905 404.106C190.009 405.101 188.616 405.599 186.724 405.599C185.132 405.599 183.639 405.201 182.245 404.404C180.852 403.608 179.956 402.314 179.359 400.622C178.961 399.527 178.762 398.034 178.762 396.143C178.762 394.252 178.961 392.659 179.458 391.366C179.956 389.873 180.852 388.678 182.146 387.683C183.34 386.787 184.833 386.289 186.426 386.289C188.317 386.289 189.81 386.886 190.805 387.981C190.805 388.081 190.905 388.081 191.004 388.081L191.104 387.981V387.185C191.203 387.086 191.203 386.986 191.303 386.887ZM191.203 396.143C191.203 395.347 191.203 394.75 191.104 394.352C191.004 393.953 191.004 393.555 190.805 393.157C190.606 392.46 190.208 391.963 189.71 391.565C189.213 391.166 188.516 390.967 187.819 390.967C187.023 390.967 186.426 391.166 185.928 391.565C185.43 391.963 185.032 392.56 184.734 393.157C184.435 393.854 184.236 394.949 184.236 396.143C184.236 397.537 184.336 398.532 184.634 399.129C184.833 399.826 185.231 400.324 185.829 400.722C186.426 401.12 187.023 401.319 187.819 401.319C188.616 401.319 189.312 401.12 189.81 400.722C190.308 400.324 190.706 399.826 190.905 399.129C191.104 398.532 191.203 397.437 191.203 396.143Z" fill="black"/>
<path d="M223.153 380.815C224.348 381.512 225.343 382.407 226.04 383.701C226.737 384.896 227.035 386.389 227.035 387.981C227.035 389.574 226.637 390.967 225.94 392.162C225.244 393.356 224.248 394.252 222.954 394.949C221.66 395.645 220.167 395.944 218.575 395.944H213.3C213.2 395.944 213.101 396.044 213.101 396.143V405.698C213.101 405.798 213.101 405.897 213.001 405.997C212.901 406.096 212.802 406.096 212.702 406.096H208.323C208.223 406.096 208.124 406.096 208.024 405.997C207.925 405.897 207.925 405.798 207.925 405.698V380.218C207.925 380.118 207.925 380.019 208.024 379.919C208.124 379.82 208.223 379.82 208.323 379.82H218.873C220.466 379.82 221.859 380.118 223.153 380.815ZM220.765 390.569C221.461 389.872 221.76 389.076 221.76 387.981C221.76 386.886 221.461 385.991 220.765 385.294C220.068 384.597 219.172 384.299 217.978 384.299H213.2C213.101 384.299 213.001 384.398 213.001 384.498V391.365C213.001 391.465 213.101 391.565 213.2 391.565H217.978C219.172 391.565 220.068 391.266 220.765 390.569Z" fill="black"/>
<path d="M241.567 386.986C241.766 387.085 241.866 387.284 241.766 387.583L240.97 391.863C240.97 392.162 240.771 392.261 240.472 392.162C240.074 392.062 239.676 391.962 239.179 391.962C238.979 391.962 238.681 391.962 238.382 392.062C237.486 392.162 236.69 392.46 236.093 393.057C235.496 393.655 235.197 394.451 235.197 395.347V405.499C235.197 405.599 235.197 405.698 235.098 405.798C234.998 405.897 234.899 405.897 234.799 405.897H230.42C230.32 405.897 230.221 405.897 230.121 405.798C230.021 405.698 230.021 405.599 230.021 405.499V387.185C230.021 387.085 230.021 386.986 230.121 386.886C230.221 386.787 230.32 386.787 230.42 386.787H234.799C234.899 386.787 234.998 386.787 235.098 386.886C235.197 386.986 235.197 387.085 235.197 387.185V388.578C235.197 388.678 235.197 388.678 235.297 388.777H235.396C236.392 387.284 237.785 386.588 239.477 386.588C240.373 386.488 241.07 386.687 241.567 386.986Z" fill="black"/>
<path d="M246.843 404.604C245.35 403.509 244.355 402.016 243.757 400.125C243.359 398.931 243.26 397.737 243.26 396.343C243.26 394.85 243.459 393.556 243.757 392.362C244.355 390.57 245.35 389.077 246.843 388.082C248.336 387.086 250.128 386.489 252.218 386.489C254.208 386.489 256 386.987 257.394 388.082C258.787 389.077 259.882 390.57 260.479 392.362C260.877 393.556 261.076 394.95 261.076 396.244C261.076 397.537 260.877 398.831 260.579 400.026C260.081 401.917 258.986 403.509 257.493 404.604C256 405.699 254.208 406.296 252.118 406.296C250.028 406.296 248.336 405.699 246.843 404.604ZM254.308 400.922C254.905 400.424 255.303 399.727 255.502 398.831C255.701 398.035 255.801 397.139 255.801 396.244C255.801 395.248 255.701 394.352 255.502 393.556C255.204 392.76 254.806 392.063 254.208 391.565C253.611 391.068 252.915 390.869 252.118 390.869C251.322 390.869 250.526 391.068 250.028 391.565C249.431 392.063 249.033 392.66 248.834 393.556C248.635 394.153 248.535 395.049 248.535 396.244C248.535 397.338 248.635 398.234 248.834 398.831C249.132 399.727 249.53 400.424 250.128 400.922C250.725 401.419 251.422 401.618 252.317 401.618C253.014 401.718 253.711 401.419 254.308 400.922Z" fill="black"/>
<path d="M276.305 386.887C276.404 386.787 276.504 386.787 276.603 386.787H280.983C281.082 386.787 281.182 386.787 281.282 386.887C281.381 386.986 281.381 387.086 281.381 387.185V404.205C281.381 407.49 280.485 409.779 278.594 411.173C276.703 412.566 274.314 413.263 271.328 413.263C270.432 413.263 269.537 413.163 268.442 413.064C268.143 413.064 268.044 412.865 268.044 412.566L268.143 408.684C268.143 408.386 268.342 408.187 268.641 408.286C269.537 408.485 270.333 408.485 271.129 408.485C272.722 408.485 273.916 408.187 274.812 407.49C275.708 406.793 276.106 405.698 276.106 404.106C276.106 404.006 276.106 404.006 276.006 404.006C275.907 404.006 275.907 404.006 275.907 404.106C274.911 405.101 273.617 405.599 271.726 405.599C270.134 405.599 268.641 405.201 267.247 404.404C265.854 403.608 264.958 402.314 264.361 400.622C263.963 399.527 263.764 398.034 263.764 396.143C263.764 394.252 263.963 392.659 264.46 391.366C264.958 389.873 265.854 388.678 267.148 387.683C268.442 386.687 269.835 386.289 271.428 386.289C273.319 386.289 274.812 386.886 275.807 387.981C275.807 388.081 275.907 388.081 275.907 388.081L276.006 387.981V387.185C276.205 387.086 276.205 386.986 276.305 386.887ZM276.205 396.143C276.205 395.347 276.205 394.75 276.106 394.352C276.006 393.953 276.006 393.555 275.807 393.157C275.608 392.46 275.21 391.963 274.712 391.565C274.215 391.166 273.518 390.967 272.821 390.967C272.124 390.967 271.428 391.166 270.93 391.565C270.432 391.963 270.034 392.56 269.736 393.157C269.338 393.854 269.238 394.949 269.238 396.143C269.238 397.537 269.338 398.532 269.636 399.129C269.835 399.826 270.233 400.324 270.831 400.722C271.428 401.12 272.025 401.319 272.821 401.319C273.617 401.319 274.314 401.12 274.812 400.722C275.31 400.324 275.708 399.826 275.907 399.129C276.106 398.532 276.205 397.437 276.205 396.143Z" fill="black"/>
<path d="M296.908 386.986C297.107 387.085 297.207 387.284 297.107 387.583L296.311 391.863C296.311 392.162 296.112 392.261 295.813 392.162C295.415 392.062 295.017 391.962 294.519 391.962C294.32 391.962 294.022 391.962 293.723 392.062C292.827 392.162 292.031 392.46 291.434 393.057C290.837 393.655 290.538 394.451 290.538 395.347V405.499C290.538 405.599 290.538 405.698 290.438 405.798C290.339 405.897 290.239 405.897 290.14 405.897H285.661C285.561 405.897 285.462 405.897 285.362 405.798C285.263 405.698 285.263 405.599 285.263 405.499V387.185C285.263 387.085 285.263 386.986 285.362 386.886C285.462 386.787 285.561 386.787 285.661 386.787H290.04C290.14 386.787 290.239 386.787 290.339 386.886C290.438 386.986 290.438 387.085 290.438 387.185V388.578C290.438 388.678 290.438 388.678 290.538 388.777H290.637C291.633 387.284 293.026 386.588 294.718 386.588C295.714 386.488 296.41 386.687 296.908 386.986Z" fill="black"/>
<path d="M311.24 387.284C312.534 387.881 313.529 388.578 314.226 389.573C314.923 390.569 315.321 391.664 315.321 392.858V405.499C315.321 405.598 315.321 405.698 315.222 405.797C315.122 405.897 315.022 405.897 314.923 405.897H310.543C310.444 405.897 310.344 405.897 310.245 405.797C310.145 405.698 310.145 405.598 310.145 405.499V404.304C310.145 404.205 310.145 404.205 310.046 404.105C310.046 404.105 309.946 404.105 309.946 404.205C308.951 405.598 307.259 406.295 304.87 406.295C302.979 406.295 301.386 405.797 300.192 404.902C298.998 404.006 298.4 402.612 298.4 400.721C298.4 398.83 299.097 397.337 300.391 396.242C301.685 395.147 303.676 394.65 306.164 394.65H309.946C310.046 394.65 310.145 394.55 310.145 394.451V393.654C310.145 392.858 309.847 392.161 309.449 391.763C308.951 391.265 308.254 391.066 307.259 391.066C306.463 391.066 305.865 391.166 305.368 391.465C304.87 391.763 304.571 392.161 304.372 392.659C304.273 392.958 304.173 393.057 303.875 393.057L299.396 392.46C299.097 392.46 298.998 392.261 298.998 392.161C299.097 391.166 299.495 390.171 300.292 389.374C300.988 388.578 301.984 387.881 303.178 387.384C304.372 386.886 305.766 386.687 307.259 386.687C308.553 386.488 309.946 386.687 311.24 387.284ZM308.951 401.418C309.747 400.821 310.046 400.124 310.046 399.228V397.934C310.046 397.835 309.946 397.735 309.847 397.735H307.159C306.064 397.735 305.169 397.934 304.571 398.332C303.974 398.731 303.576 399.328 303.576 400.124C303.576 400.821 303.775 401.318 304.273 401.717C304.771 402.115 305.368 402.314 306.164 402.314C307.259 402.314 308.155 402.015 308.951 401.418Z" fill="black"/>
<path d="M344.783 388.18C345.878 389.374 346.376 390.967 346.376 393.057V405.399C346.376 405.499 346.376 405.598 346.276 405.698C346.177 405.797 346.077 405.797 345.978 405.797H341.598C341.499 405.797 341.399 405.797 341.3 405.698C341.2 405.598 341.2 405.499 341.2 405.399V394.252C341.2 393.256 340.901 392.46 340.404 391.863C339.906 391.266 339.209 390.967 338.314 390.967C337.418 390.967 336.721 391.266 336.223 391.863C335.726 392.46 335.427 393.256 335.427 394.252V405.499C335.427 405.598 335.427 405.698 335.328 405.797C335.228 405.897 335.129 405.897 335.029 405.897H330.749C330.65 405.897 330.55 405.897 330.45 405.797C330.351 405.698 330.351 405.598 330.351 405.499V394.351C330.351 393.356 330.052 392.559 329.555 391.962C329.057 391.365 328.261 391.066 327.464 391.066C326.668 391.066 325.971 391.266 325.474 391.763C324.976 392.261 324.578 392.858 324.478 393.754V405.598C324.478 405.698 324.478 405.797 324.379 405.897C324.279 405.996 324.18 405.996 324.08 405.996H319.701C319.601 405.996 319.502 405.996 319.402 405.897C319.303 405.797 319.303 405.698 319.303 405.598V387.185C319.303 387.085 319.303 386.986 319.402 386.886C319.502 386.787 319.601 386.787 319.701 386.787H324.08C324.18 386.787 324.279 386.787 324.379 386.886C324.478 386.986 324.478 387.085 324.478 387.185V388.678C324.478 388.777 324.478 388.777 324.578 388.777C324.678 388.777 324.678 388.777 324.777 388.678C325.772 387.185 327.365 386.388 329.555 386.388C330.749 386.388 331.844 386.687 332.839 387.185C333.835 387.682 334.531 388.479 335.029 389.374C335.129 389.474 335.228 389.474 335.328 389.374C335.825 388.379 336.622 387.583 337.517 387.085C338.413 386.587 339.508 386.388 340.702 386.388C342.195 386.488 343.688 386.986 344.783 388.18Z" fill="black"/>
<path fill-rule="evenodd" clip-rule="evenodd" d="M182.444 286.756C186.824 291.633 193.094 294.32 199.664 294.221C206.233 294.32 212.504 291.633 216.883 286.855C226.239 286.457 299.297 286.656 299.297 286.656L306.363 226.638C306.363 226.638 351.253 194.986 354.936 191.303C376.535 93.3623 298.5 0 199.664 0C100.827 0 22.7929 93.3623 44.3916 191.204C47.9748 194.886 92.9639 226.538 92.9639 226.538L100.031 286.557C100.031 286.557 173.088 286.358 182.444 286.756ZM192.896 29.8599L199.764 203.048L206.532 29.7604C214.793 28.0683 236.093 30.1585 247.44 38.6189L214.296 203.645L259.484 45.3871C270.333 45.1881 292.23 63.5022 293.823 68.9766L227.932 209.418L301.985 81.0201C309.25 83.807 325.275 113.169 322.687 116.554L240.174 217.58L325.076 131.284C325.076 131.284 336.124 148.106 328.958 176.572L280.983 211.21L275.011 258.488H216.187C216.187 258.488 206.532 267.645 199.764 267.645C192.995 267.645 183.341 258.488 183.341 258.488H124.516L118.544 211.21L70.5694 176.572C63.3035 148.106 74.3517 131.284 74.3517 131.284L159.254 217.58L76.84 116.554C74.2521 113.07 90.277 83.7075 97.5429 81.0201L171.496 209.418L105.605 68.9766C107.297 63.6018 129.095 45.2876 139.944 45.3871L185.132 203.645L151.988 38.7184C163.335 30.1585 184.535 28.1679 192.896 29.8599Z" fill="black"/>
</svg>
