<svg width="400" height="203" viewBox="0 0 400 203" fill="none" xmlns="http://www.w3.org/2000/svg">
<path d="M327.013 63.4899L298.987 62.5601L326.88 66.9433L297.459 82.0853L326.282 70.3304L304.366 94.9692L329.138 73.3853L314.992 104.001L332.791 71.9907L332.857 107.388L335.182 74.4479L347.003 109.049L337.041 71.3929L351.917 85.8044L341.491 71.1273L374.431 88.5273L342.62 68.4044L366.196 69.6662L342.022 64.951L377.287 53.7273L341.69 61.7632L360.949 37.7884L338.901 60.3685L350.921 26.0335L336.244 58.5754L336.51 31.2136L333.322 58.9739L322.43 25.7014L330.134 59.1067L318.778 45.625L327.079 59.5716L292.014 43.2342L327.013 63.4899Z" fill="black"/>
<path d="M282.783 47.7503L275.942 43.4999L268.571 46.6877L270.497 38.851L265.184 32.8075L273.219 32.2762L277.271 25.303L280.326 32.8075L288.229 34.5343L282.052 39.7144L282.783 47.7503Z" fill="black"/>
<path d="M289.025 65.1504L284.709 64.0878L281.322 67.0763L280.99 62.5603L277.138 60.3023L281.322 58.5756L282.318 54.1924L285.174 57.6458L289.69 57.2473L287.299 61.0328L289.025 65.1504Z" fill="black"/>
<path d="M311.274 20.9198L307.222 21.5175L305.363 25.2366L303.503 21.5175L299.386 20.9862L302.374 18.0641L301.644 13.9465L305.296 15.8725L309.015 13.9465L308.285 17.9977L311.274 20.9198Z" fill="black"/>
<path d="M366.86 13.1496L359.024 15.0091L356.168 22.5801L351.918 15.6733L343.815 15.2748L349.062 9.16487L346.937 1.32824L354.441 4.44961L361.215 0L360.551 8.03587L366.86 13.1496Z" fill="black"/>
<path d="M371.975 33.0068L367.857 33.2724L365.798 36.7923L364.271 33.0068L360.286 32.1434L363.408 29.4869L363.009 25.4358L366.462 27.561L370.248 25.9671L369.252 29.8854L371.975 33.0068Z" fill="black"/>
<path d="M395.085 52.532L390.37 50.5396L386.119 53.3289L386.518 48.2152L382.6 44.961L387.581 43.832L389.44 39.0503L392.097 43.4335L397.144 43.7656L393.823 47.6175L395.085 52.532Z" fill="black"/>
<path d="M361.946 96.829L357.895 95.8992L354.774 98.755L354.442 94.571L350.789 92.5122L354.641 90.8519L355.504 86.7344L358.227 89.9221L362.345 89.4573L360.22 93.0435L361.946 96.829Z" fill="black"/>
<path d="M400 104.798L392.296 104.333L387.514 110.377L385.655 102.872L378.416 100.216L384.924 96.0983L385.256 88.3945L391.167 93.309L398.605 91.2502L395.75 98.4228L400 104.798Z" fill="black"/>
<path d="M281.056 88.9923L275.212 89.8557L272.622 95.1022L269.965 89.8557L264.188 88.9923L268.371 84.8748L267.375 79.0969L272.622 81.8198L277.802 79.0969L276.806 84.8748L281.056 88.9923Z" fill="black"/>
<path d="M299.851 102.806L296.132 104.4L295.335 108.318L292.678 105.33L288.693 105.794L290.752 102.275L289.092 98.622L293.01 99.5517L295.999 96.8289L296.331 100.814L299.851 102.806Z" fill="black"/>
<path d="M34.9999 87.4647C34.2029 89.5899 33.1403 91.383 31.6793 92.8441C30.2182 94.3052 28.4915 95.3678 26.4327 96.0319C24.3739 96.7624 22.0495 97.0945 19.5259 97.0945C14.4121 97.0945 10.4274 95.6998 7.50527 92.8441C4.58314 89.9884 3.12207 85.8044 3.12207 80.2258V58.4426H11.49V79.9602C11.49 83.0815 12.2205 85.4059 13.6816 86.9998C15.1427 88.5937 17.135 89.3907 19.7251 89.3907C22.3152 89.3907 24.3075 88.6601 25.7686 87.1327C27.2297 85.6052 27.9602 83.3472 27.9602 80.2922V58.4426H36.3281V79.8937C36.1953 82.8159 35.7968 85.3395 34.9999 87.4647Z" fill="black"/>
<path d="M75.0458 93.1762C73.9832 94.0396 72.8542 94.7037 71.5924 95.3014C70.3305 95.8991 69.0023 96.364 67.4748 96.6297C66.0137 96.9617 64.3534 97.0945 62.4939 97.0945C59.7046 97.0945 57.1145 96.5632 54.7237 95.5671C52.3329 94.5709 50.2741 93.1762 48.5474 91.3831C46.8206 89.6564 45.426 87.5312 44.4962 85.1404C43.5 82.7495 43.0352 80.2259 43.0352 77.503V77.3701C43.0352 74.6472 43.5 72.1236 44.4962 69.7327C45.4924 67.3419 46.8206 65.2831 48.5474 63.49C50.2741 61.6969 52.3328 60.3022 54.7901 59.2396C57.1809 58.177 59.9038 57.7122 62.826 57.7122C64.6191 57.7122 66.213 57.845 67.674 58.177C69.1351 58.4427 70.4634 58.8412 71.6588 59.3725C72.8542 59.9038 73.9832 60.5015 74.9794 61.232C75.9756 61.9625 76.9053 62.7595 77.8351 63.6228L72.5221 69.7327C71.0611 68.4045 69.5336 67.3419 68.0061 66.6114C66.4786 65.8808 64.7519 65.4824 62.826 65.4824C61.2321 65.4824 59.771 65.8144 58.3764 66.4121C57.0481 67.0099 55.8527 67.8732 54.8565 68.9358C53.8603 69.9984 53.1298 71.2602 52.5985 72.7213C52.0672 74.1824 51.8016 75.7098 51.8016 77.3037V77.4366C51.8016 79.0969 52.0672 80.6243 52.5985 82.019C53.1298 83.4801 53.8603 84.7419 54.8565 85.8045C55.7863 86.8671 56.9817 87.7304 58.3099 88.3946C59.6382 89.0587 61.1657 89.3243 62.7596 89.3243C64.9512 89.3243 66.7443 88.9258 68.2718 88.1289C69.7992 87.332 71.2603 86.2694 72.7214 84.8747L78.0343 90.2541C77.1046 91.3831 76.1084 92.3129 75.0458 93.1762Z" fill="black"/>
<path d="M100.947 96.497V93.3756C99.9508 94.5046 98.689 95.368 97.2943 96.0321C95.8997 96.6962 94.1729 97.0283 92.1142 97.0283C90.7195 97.0283 89.4577 96.829 88.2623 96.4306C87.0668 96.0321 86.0043 95.5008 85.0745 94.7039C84.1447 93.9733 83.4806 93.0436 82.9493 91.9145C82.418 90.7855 82.1523 89.5237 82.1523 88.0627V87.9298C82.1523 86.3359 82.418 84.9413 83.0157 83.8123C83.6134 82.6833 84.4104 81.6871 85.4065 80.9566C86.4691 80.226 87.6645 79.6283 89.1256 79.2298C90.5867 78.8314 92.1142 78.6321 93.9073 78.6321C95.3684 78.6321 96.6966 78.765 97.7592 78.9642C98.8882 79.1634 99.9508 79.4955 101.013 79.8275V79.3627C101.013 77.6359 100.482 76.3077 99.4195 75.3779C98.3569 74.4482 96.8294 74.0497 94.7706 74.0497C93.1768 74.0497 91.7821 74.1825 90.5867 74.4482C89.3913 74.7138 88.1294 75.1123 86.7348 75.6436L84.676 69.3344C86.2699 68.6703 87.9302 68.0726 89.6569 67.6741C91.3836 67.2092 93.5088 67.01 95.9661 67.01C100.482 67.01 103.803 68.139 105.861 70.3306C107.92 72.5222 108.983 75.6436 108.983 79.5619V96.4306H100.947V96.497ZM101.08 84.742C100.349 84.41 99.5523 84.1443 98.689 83.9451C97.8256 83.7459 96.8294 83.6794 95.8332 83.6794C94.0401 83.6794 92.6455 84.0115 91.6493 84.742C90.6531 85.4062 90.1218 86.4023 90.1218 87.7306V87.8634C90.1218 88.9924 90.5203 89.8558 91.3836 90.4535C92.247 91.0512 93.3096 91.3833 94.6378 91.3833C96.5638 91.3833 98.1577 90.9184 99.3531 89.9886C100.549 89.0588 101.146 87.797 101.146 86.2695V84.742H101.08Z" fill="black"/>
<path d="M116.421 96.4969V56.8489H124.656V96.4969H116.421Z" fill="black"/>
<path d="M160.652 96.8955C159.988 98.8214 158.992 100.415 157.597 101.677C156.269 102.939 154.542 103.802 152.55 104.4C150.491 104.998 148.167 105.263 145.444 105.263C143.053 105.263 140.795 104.998 138.603 104.466C136.412 103.935 134.419 103.205 132.56 102.208L135.415 96.0321C136.943 96.8955 138.47 97.4932 139.998 97.9581C141.525 98.423 143.252 98.6886 145.244 98.6886C148.1 98.6886 150.159 98.0245 151.487 96.6962C152.815 95.368 153.546 93.3756 153.546 90.7856V89.3909C152.284 90.852 150.956 92.0474 149.561 92.8443C148.1 93.7077 146.307 94.1062 144.049 94.1062C142.322 94.1062 140.728 93.7741 139.135 93.2428C137.607 92.6451 136.212 91.7817 135.017 90.5863C133.822 89.4573 132.892 87.9962 132.161 86.3359C131.431 84.6756 131.099 82.7497 131.099 80.5581V80.4253C131.099 78.2337 131.431 76.3077 132.161 74.6474C132.892 72.9871 133.822 71.526 135.017 70.397C136.212 69.268 137.607 68.3383 139.135 67.7406C140.662 67.1428 142.322 66.8772 143.983 66.8772C146.241 66.8772 148.1 67.2757 149.495 68.139C150.956 69.0024 152.218 69.9986 153.347 71.2604V67.4749H161.582V89.9886C161.648 92.6451 161.316 94.9695 160.652 96.8955ZM153.546 80.4253C153.546 79.4291 153.347 78.5657 153.015 77.7024C152.683 76.839 152.151 76.1749 151.554 75.5772C150.889 74.9795 150.159 74.5146 149.296 74.1825C148.432 73.8505 147.502 73.7176 146.44 73.7176C145.444 73.7176 144.514 73.8505 143.651 74.1825C142.787 74.5146 142.057 74.9795 141.393 75.5772C140.728 76.1749 140.264 76.9054 139.931 77.7024C139.599 78.5657 139.4 79.4291 139.4 80.4253V80.5581C139.4 82.6169 140.064 84.2108 141.393 85.4726C142.721 86.7344 144.381 87.3321 146.44 87.3321C147.436 87.3321 148.366 87.1993 149.296 86.8672C150.225 86.5352 150.889 86.0703 151.554 85.4726C152.218 84.8749 152.683 84.1443 153.015 83.3474C153.347 82.484 153.546 81.6207 153.546 80.6245V80.4253Z" fill="black"/>
<path d="M186.088 96.497V93.3756C185.091 94.5046 183.83 95.368 182.435 96.0321C181.04 96.6962 179.314 97.0283 177.255 97.0283C175.86 97.0283 174.598 96.829 173.403 96.4306C172.207 96.0321 171.145 95.5008 170.215 94.7039C169.285 93.9733 168.621 93.0436 168.09 91.9145C167.559 90.7855 167.293 89.5237 167.293 88.0627V87.9298C167.293 86.3359 167.559 84.9413 168.156 83.8123C168.754 82.6833 169.551 81.6871 170.547 80.9566C171.61 80.226 172.805 79.6283 174.266 79.2298C175.727 78.8314 177.255 78.6321 179.048 78.6321C180.509 78.6321 181.837 78.765 182.9 78.9642C184.029 79.1634 185.091 79.4955 186.154 79.8275V79.3627C186.154 77.6359 185.623 76.3077 184.56 75.3779C183.498 74.4482 181.97 74.0497 179.911 74.0497C178.317 74.0497 176.923 74.1825 175.727 74.4482C174.532 74.7138 173.27 75.1123 171.875 75.6436L169.817 69.3344C171.411 68.6703 173.071 68.0726 174.798 67.6741C176.524 67.2092 178.649 67.01 181.107 67.01C185.623 67.01 188.943 68.139 191.002 70.3306C193.061 72.5222 194.123 75.6436 194.123 79.5619V96.4306H186.088V96.497ZM186.22 84.742C185.49 84.41 184.693 84.1443 183.83 83.9451C182.966 83.7459 181.97 83.6794 180.974 83.6794C179.181 83.6794 177.786 84.0115 176.79 84.742C175.794 85.4062 175.262 86.4023 175.262 87.7306V87.8634C175.262 88.9924 175.661 89.8558 176.524 90.4535C177.388 91.0512 178.45 91.3833 179.778 91.3833C181.704 91.3833 183.298 90.9184 184.494 89.9886C185.689 89.0588 186.287 87.797 186.287 86.2695V84.742H186.22Z" fill="black"/>
<path d="M218.297 75.4443C215.575 75.4443 213.383 76.3076 211.789 77.9679C210.195 79.6282 209.398 82.2183 209.398 85.7382V96.4969H201.163V67.4084H209.398V73.2527C210.262 71.2603 211.391 69.6664 212.785 68.471C214.246 67.2756 216.172 66.7443 218.629 66.8107V75.4443H218.297V75.4443Z" fill="black"/>
<path d="M240.345 97.1611C239.814 98.6221 239.216 99.884 238.619 100.947C238.021 102.009 237.357 102.806 236.56 103.47C235.829 104.134 234.966 104.599 234.036 104.865C233.107 105.131 231.978 105.33 230.782 105.33C229.255 105.33 227.926 105.131 226.797 104.798C225.668 104.466 224.539 103.935 223.477 103.337L226.266 97.3603C226.797 97.6924 227.395 97.958 228.059 98.1573C228.723 98.3565 229.255 98.4893 229.852 98.4893C230.583 98.4893 231.114 98.3565 231.579 98.0908C231.978 97.8252 232.376 97.2939 232.774 96.6298L221.352 67.4084H230.118L236.759 87.1993L243.135 67.4084H251.702L240.345 97.1611Z" fill="black"/>
<path d="M44.364 166.495C40.5785 168.155 36.1953 168.952 31.3472 168.952C27.1633 168.952 23.3778 168.288 19.9243 166.894C16.4709 165.499 13.5488 163.573 11.0251 161.182C8.56786 158.725 6.64191 155.803 5.24726 152.482C3.8526 149.095 3.12207 145.442 3.12207 141.458V141.325C3.12207 137.473 3.8526 133.887 5.24726 130.566C6.64191 127.246 8.56786 124.323 11.0915 121.8C13.6152 119.276 16.5373 117.284 19.9907 115.823C23.3778 114.362 27.1633 113.631 31.2144 113.631C33.6052 113.631 35.7968 113.83 37.7228 114.096C39.7151 114.428 41.5083 114.893 43.1686 115.491C44.8289 116.088 46.4228 116.885 47.8838 117.815C49.3449 118.745 50.806 119.807 52.2006 120.936L44.7625 129.902C43.7663 129.039 42.7037 128.242 41.7075 127.578C40.7113 126.914 39.6487 126.382 38.5197 125.917C37.3907 125.452 36.2617 125.12 34.9335 124.855C33.6716 124.589 32.277 124.456 30.7495 124.456C28.6243 124.456 26.632 124.921 24.7724 125.785C22.9129 126.648 21.2526 127.91 19.8579 129.371C18.4633 130.898 17.3343 132.625 16.5373 134.684C15.7404 136.676 15.3419 138.868 15.3419 141.192V141.325C15.3419 143.782 15.7404 146.04 16.5373 148.099C17.3343 150.158 18.4633 151.951 19.9243 153.478C21.3854 155.006 23.1121 156.201 25.0381 157.065C27.0304 157.928 29.1556 158.326 31.5465 158.326C35.9297 158.326 39.6487 157.264 42.6373 155.072V147.368H30.9487V137.207H54.193V160.452C51.4037 162.842 48.1495 164.835 44.364 166.495Z" fill="black"/>
<path d="M64.4873 122.53V112.236H76.7071V122.597H64.4873V122.53ZM64.8194 168.089V127.113H76.4415V168.089H64.8194V168.089Z" fill="black"/>
<path d="M110.377 168.354H99.8178L83.6797 127.046H95.9659L105.131 154.541L114.362 127.046H126.449L110.377 168.354Z" fill="black"/>
<path d="M133.489 122.53V112.236H145.709V122.597H133.489V122.53ZM133.821 168.089V127.113H145.443V168.089H133.821V168.089Z" fill="black"/>
<path d="M182.302 168.089V145.243C182.302 142.52 181.704 140.395 180.443 139C179.247 137.606 177.454 136.875 175.262 136.875C173.004 136.875 171.278 137.606 169.949 139C168.621 140.395 168.023 142.454 168.023 145.243V168.089H156.401V127.113H168.023V132.957C168.688 132.094 169.418 131.23 170.215 130.433C171.012 129.636 171.875 128.906 172.872 128.308C173.868 127.71 174.93 127.179 176.059 126.847C177.255 126.515 178.583 126.316 180.044 126.316C184.494 126.316 187.881 127.644 190.338 130.367C192.729 133.09 193.991 136.809 193.991 141.524V168.089H182.302Z" fill="black"/>
<path d="M243.866 168.687C242.936 171.409 241.475 173.668 239.549 175.394C237.623 177.121 235.232 178.383 232.377 179.246C229.521 180.043 226.2 180.442 222.348 180.442C218.961 180.442 215.774 180.043 212.719 179.313C209.664 178.582 206.808 177.519 204.218 176.125L208.203 167.425C210.328 168.62 212.519 169.484 214.645 170.148C216.836 170.812 219.293 171.144 222.016 171.144C226.001 171.144 228.923 170.214 230.849 168.288C232.775 166.362 233.705 163.639 233.705 159.92V157.928C231.978 159.987 230.052 161.647 228.06 162.842C226.001 164.038 223.411 164.569 220.356 164.569C217.965 164.569 215.641 164.171 213.449 163.307C211.258 162.444 209.332 161.248 207.605 159.588C205.945 157.928 204.616 155.935 203.62 153.611C202.624 151.22 202.159 148.497 202.159 145.442V145.442C202.159 142.387 202.69 139.665 203.687 137.274C204.683 134.883 206.077 132.89 207.738 131.297C209.398 129.636 211.39 128.441 213.582 127.578C215.774 126.714 218.032 126.316 220.423 126.316C223.61 126.316 226.2 126.913 228.259 128.042C230.318 129.238 232.111 130.699 233.705 132.426V127.046H245.327V158.791C245.261 162.643 244.796 165.964 243.866 168.687ZM233.771 145.442C233.771 144.048 233.506 142.786 232.974 141.59C232.443 140.395 231.779 139.399 230.849 138.602C229.986 137.739 228.923 137.141 227.661 136.676C226.466 136.211 225.138 136.012 223.677 136.012C222.216 136.012 220.954 136.211 219.758 136.676C218.563 137.141 217.5 137.805 216.637 138.602C215.774 139.465 215.043 140.461 214.512 141.59C213.981 142.786 213.715 144.048 213.715 145.442V145.575C213.715 148.431 214.645 150.755 216.571 152.482C218.43 154.209 220.821 155.072 223.677 155.072C225.071 155.072 226.4 154.873 227.661 154.408C228.923 153.943 229.919 153.279 230.849 152.482C231.713 151.619 232.443 150.623 232.974 149.494C233.506 148.298 233.771 147.036 233.771 145.642V145.442V145.442Z" fill="black"/>
<path d="M304.168 151.818C302.774 155.072 300.848 157.928 298.324 160.319C295.8 162.71 292.812 164.636 289.292 165.964C285.772 167.358 281.987 168.023 277.803 168.023H256.949V114.494H277.803C281.987 114.494 285.838 115.159 289.292 116.553C292.812 117.881 295.8 119.807 298.324 122.198C300.848 124.589 302.774 127.445 304.168 130.633C305.563 133.887 306.227 137.407 306.227 141.126V141.258C306.227 145.044 305.563 148.564 304.168 151.818ZM293.941 141.258C293.941 138.934 293.542 136.742 292.745 134.75C291.948 132.758 290.886 131.031 289.425 129.636C288.03 128.242 286.303 127.113 284.311 126.316C282.319 125.519 280.127 125.12 277.736 125.12H268.638V157.397H277.736C280.127 157.397 282.319 156.998 284.311 156.268C286.303 155.537 287.964 154.408 289.425 152.947C290.819 151.552 291.948 149.826 292.745 147.9C293.542 145.974 293.941 143.782 293.941 141.391V141.258Z" fill="black"/>
<path d="M339.499 168.089V163.639C338.038 165.233 336.378 166.495 334.386 167.425C332.393 168.355 330.002 168.819 327.147 168.819C325.221 168.819 323.361 168.554 321.701 168.022C319.974 167.491 318.513 166.694 317.251 165.632C315.99 164.569 314.993 163.241 314.263 161.713C313.532 160.186 313.134 158.393 313.134 156.334V156.201C313.134 153.943 313.532 152.017 314.329 150.357C315.126 148.697 316.255 147.368 317.716 146.306C319.177 145.243 320.904 144.446 322.896 143.915C324.889 143.384 327.147 143.118 329.604 143.118C331.663 143.118 333.522 143.251 335.05 143.583C336.577 143.915 338.105 144.313 339.632 144.778V144.114C339.632 141.657 338.902 139.797 337.441 138.535C335.98 137.274 333.788 136.61 330.866 136.61C328.608 136.61 326.615 136.809 324.955 137.207C323.228 137.606 321.435 138.137 319.576 138.868L316.654 129.968C318.912 128.972 321.236 128.242 323.693 127.577C326.151 126.98 329.073 126.648 332.593 126.648C338.968 126.648 343.617 128.175 346.539 131.297C349.461 134.418 350.922 138.735 350.922 144.313V168.089H339.499V168.089ZM339.765 151.552C338.769 151.087 337.64 150.755 336.378 150.423C335.116 150.158 333.788 150.025 332.393 150.025C329.87 150.025 327.944 150.49 326.483 151.486C325.022 152.482 324.357 153.877 324.357 155.67V155.803C324.357 157.397 324.955 158.592 326.084 159.455C327.28 160.319 328.807 160.784 330.667 160.784C333.389 160.784 335.647 160.119 337.308 158.791C338.968 157.463 339.765 155.736 339.765 153.611V151.552Z" fill="black"/>
<path d="M384.062 169.019C383.265 171.078 382.468 172.871 381.605 174.332C380.741 175.793 379.812 176.988 378.749 177.918C377.686 178.848 376.491 179.512 375.163 179.91C373.834 180.309 372.307 180.508 370.58 180.508C368.455 180.508 366.529 180.242 364.935 179.711C363.275 179.18 361.747 178.516 360.286 177.652L364.205 169.218C365.002 169.683 365.799 170.081 366.662 170.347C367.525 170.679 368.389 170.812 369.119 170.812C370.115 170.812 370.912 170.613 371.51 170.214C372.108 169.816 372.639 169.152 373.17 168.089L357.099 126.914H369.385L378.749 154.807L387.715 126.914H399.802L384.062 169.019Z" fill="black"/>
<path d="M16.5366 199.967H14.5443L12.6183 195.65H3.78549L1.85954 199.967H0L7.43816 183.563H9.16487L16.5366 199.967ZM8.2351 185.688L4.51602 193.99H11.9542L8.2351 185.688Z" fill="black"/>
<path d="M32.8741 191.2C32.542 191.864 32.0771 192.396 31.4794 192.861C30.8817 193.326 30.2176 193.658 29.4207 193.857C28.6237 194.056 27.8268 194.189 26.9634 194.189H22.9787V199.967H21.1191V183.696H27.2291C28.1588 183.696 28.9558 183.829 29.7527 184.028C30.4832 184.294 31.1474 184.626 31.6787 185.024C32.21 185.489 32.6084 186.02 32.9405 186.684C33.2061 187.348 33.339 188.079 33.339 188.876C33.339 189.739 33.2061 190.536 32.8741 191.2ZM30.3504 186.286C29.5535 185.688 28.4909 185.423 27.1626 185.423H23.0451V192.595H27.0962C27.7604 192.595 28.3581 192.529 28.9558 192.329C29.4871 192.13 29.952 191.931 30.3504 191.599C30.7489 191.267 31.081 190.868 31.2802 190.47C31.4794 190.071 31.6123 189.54 31.6123 189.009C31.5458 187.747 31.1474 186.884 30.3504 186.286Z" fill="black"/>
<path d="M49.3447 199.967L44.6295 193.658H39.9806V199.967H38.1211V183.696H45.0944C46.0241 183.696 46.8211 183.829 47.5516 184.028C48.2821 184.227 48.8799 184.559 49.4112 185.024C49.9424 185.423 50.3409 185.954 50.6066 186.552C50.8722 187.149 51.005 187.813 51.005 188.544C51.005 189.208 50.8722 189.806 50.673 190.403C50.4737 190.935 50.1417 191.4 49.7432 191.798C49.3447 192.197 48.8799 192.529 48.3486 192.794C47.8173 193.06 47.2196 193.259 46.5554 193.326L51.5363 199.967H49.3447V199.967ZM48.0829 186.219C47.3524 185.622 46.3562 185.356 45.028 185.356H39.9806V191.997H45.028C45.6257 191.997 46.2234 191.931 46.6883 191.732C47.1531 191.532 47.618 191.333 48.0165 191.068C48.415 190.802 48.6806 190.403 48.8799 190.005C49.0791 189.606 49.2119 189.142 49.2119 188.61C49.1455 187.614 48.8134 186.751 48.0829 186.219Z" fill="black"/>
<path d="M58.3097 183.696V199.967H56.4502V183.696H58.3097Z" fill="black"/>
<path d="M64.4863 183.696H66.3459V198.306H75.5107V200.033H64.4863V183.696Z" fill="black"/>
<path d="M91.1175 185.755C90.4534 186.219 89.7893 186.95 89.1251 187.813L87.7969 186.817C88.1954 186.286 88.5274 185.755 88.9259 185.356C89.3244 184.891 89.7228 184.559 90.1877 184.294C90.6526 184.028 91.1839 183.762 91.7152 183.629C92.3129 183.497 92.9106 183.43 93.6412 183.43C94.3717 183.43 95.0358 183.563 95.6999 183.762C96.2977 184.028 96.8289 184.294 97.2938 184.758C97.7587 185.157 98.0908 185.688 98.3564 186.219C98.6221 186.817 98.7549 187.415 98.7549 188.079C98.7549 188.677 98.6885 189.208 98.4892 189.739C98.3564 190.204 98.0908 190.735 97.7587 191.2C97.4267 191.665 96.9618 192.197 96.4969 192.728C95.9656 193.259 95.3679 193.79 94.6373 194.455L90.2541 198.306H98.8877V199.967H87.5312V198.572L93.4419 193.326C94.0396 192.794 94.5709 192.263 95.0358 191.798C95.5007 191.333 95.8328 190.935 96.0984 190.536C96.3641 190.138 96.5633 189.739 96.6961 189.341C96.8289 188.942 96.8954 188.544 96.8954 188.145C96.8954 187.681 96.8289 187.216 96.6297 186.884C96.4305 186.552 96.2312 186.153 95.8992 185.887C95.5671 185.622 95.2351 185.423 94.8366 185.29C94.4381 185.157 94.0396 185.09 93.5747 185.09C92.5786 185.09 91.7816 185.29 91.1175 185.755Z" fill="black"/>
<path d="M104.467 183.696H113.831V185.423H106.061L105.729 190.603C106.194 190.403 106.725 190.204 107.19 190.071C107.655 189.939 108.252 189.872 108.917 189.872C109.713 189.872 110.444 190.005 111.108 190.204C111.772 190.403 112.37 190.735 112.901 191.2C113.433 191.599 113.831 192.13 114.097 192.794C114.362 193.392 114.495 194.122 114.495 194.919C114.495 195.716 114.362 196.447 114.097 197.111C113.831 197.775 113.433 198.306 112.901 198.838C112.37 199.303 111.772 199.701 111.042 199.9C110.311 200.166 109.514 200.299 108.717 200.299C107.522 200.299 106.459 200.033 105.463 199.568C104.467 199.103 103.604 198.439 102.873 197.709L104.068 196.381C104.799 197.111 105.53 197.642 106.26 198.041C106.991 198.439 107.854 198.639 108.651 198.639C109.249 198.639 109.78 198.572 110.245 198.373C110.71 198.174 111.175 197.974 111.507 197.642C111.839 197.31 112.104 196.912 112.304 196.513C112.503 196.048 112.569 195.584 112.569 195.052C112.569 194.521 112.503 194.056 112.304 193.658C112.104 193.259 111.839 192.861 111.507 192.595C111.175 192.263 110.71 192.064 110.245 191.864C109.78 191.665 109.182 191.599 108.584 191.599C107.854 191.599 107.256 191.665 106.725 191.864C106.194 192.064 105.662 192.263 105.197 192.529L103.936 191.732L104.467 183.696Z" fill="black"/>
<path d="M119.675 201.162C119.941 200.83 120.007 200.432 120.007 199.967H119.144V197.51H121.269V199.635C121.269 200.564 121.07 201.295 120.671 201.76C120.273 202.225 119.609 202.623 118.745 202.822L118.479 202.026C119.011 201.76 119.409 201.494 119.675 201.162Z" fill="black"/>
<path d="M137.606 185.755C136.942 186.219 136.278 186.95 135.613 187.813L134.285 186.817C134.684 186.286 135.016 185.755 135.414 185.356C135.813 184.891 136.211 184.559 136.676 184.294C137.141 184.028 137.672 183.762 138.203 183.629C138.801 183.497 139.399 183.43 140.129 183.43C140.86 183.43 141.524 183.563 142.188 183.762C142.786 184.028 143.317 184.294 143.782 184.758C144.247 185.157 144.579 185.688 144.845 186.219C145.11 186.817 145.243 187.415 145.243 188.079C145.243 188.677 145.177 189.208 144.978 189.739C144.845 190.204 144.579 190.735 144.247 191.2C143.915 191.665 143.45 192.197 142.985 192.728C142.454 193.259 141.856 193.79 141.126 194.455L136.742 198.306H145.376V199.967H134.02V198.572L139.93 193.326C140.528 192.794 141.059 192.263 141.524 191.798C141.989 191.333 142.321 190.935 142.587 190.536C142.852 190.138 143.052 189.739 143.184 189.341C143.317 188.942 143.384 188.544 143.384 188.145C143.384 187.681 143.317 187.216 143.118 186.884C142.919 186.552 142.72 186.153 142.387 185.887C142.055 185.622 141.723 185.423 141.325 185.29C140.926 185.157 140.528 185.09 140.063 185.09C139.067 185.09 138.27 185.29 137.606 185.755Z" fill="black"/>
<path d="M162.842 195.052C162.51 196.048 162.045 196.978 161.447 197.709C160.85 198.506 160.119 199.103 159.256 199.568C158.392 200.033 157.463 200.232 156.4 200.232C155.337 200.232 154.408 200.033 153.544 199.568C152.681 199.103 151.95 198.506 151.353 197.775C150.755 196.978 150.29 196.115 149.958 195.119C149.626 194.123 149.493 192.994 149.493 191.865C149.493 190.735 149.626 189.606 149.958 188.61C150.29 187.614 150.755 186.684 151.353 185.954C151.95 185.157 152.681 184.559 153.544 184.094C154.408 183.629 155.337 183.43 156.4 183.43C157.463 183.43 158.392 183.629 159.256 184.094C160.119 184.559 160.85 185.157 161.447 185.887C162.045 186.618 162.51 187.548 162.842 188.544C163.174 189.54 163.307 190.669 163.307 191.798C163.307 192.927 163.174 193.99 162.842 195.052ZM161.115 189.274C160.85 188.477 160.518 187.747 160.119 187.149C159.654 186.552 159.189 186.02 158.525 185.688C157.927 185.29 157.197 185.157 156.466 185.157C155.736 185.157 155.005 185.356 154.408 185.688C153.81 186.02 153.279 186.552 152.88 187.149C152.482 187.747 152.15 188.477 151.884 189.274C151.618 190.071 151.552 190.935 151.552 191.865C151.552 192.794 151.685 193.658 151.884 194.455C152.083 195.252 152.482 195.982 152.88 196.646C153.345 197.244 153.81 197.775 154.474 198.107C155.072 198.439 155.802 198.639 156.533 198.639C157.263 198.639 157.994 198.439 158.592 198.107C159.189 197.775 159.721 197.244 160.119 196.646C160.518 196.048 160.85 195.318 161.115 194.521C161.315 193.724 161.447 192.861 161.447 191.931C161.447 191.001 161.315 190.071 161.115 189.274Z" fill="black"/>
<path d="M170.745 183.563H172.14V199.967H170.281V185.489L167.226 186.419L166.761 184.958L170.745 183.563Z" fill="black"/>
<path d="M188.942 194.986C188.61 196.048 188.146 196.978 187.548 197.775C186.95 198.572 186.22 199.17 185.423 199.635C184.559 200.1 183.696 200.299 182.633 200.299C181.571 200.299 180.641 200.1 179.844 199.701C179.047 199.303 178.317 198.838 177.586 198.24L178.649 196.845C179.313 197.443 179.977 197.842 180.575 198.174C181.239 198.439 181.903 198.572 182.633 198.572C183.364 198.572 184.028 198.373 184.626 198.041C185.223 197.709 185.755 197.177 186.153 196.58C186.552 195.982 186.884 195.185 187.149 194.322C187.349 193.458 187.481 192.462 187.481 191.466C187.016 192.197 186.419 192.794 185.688 193.326C184.958 193.857 184.028 194.123 182.899 194.123C182.036 194.123 181.305 193.99 180.575 193.724C179.844 193.458 179.246 193.126 178.781 192.661C178.317 192.197 177.918 191.665 177.586 191.068C177.254 190.47 177.188 189.739 177.188 189.009C177.188 188.212 177.32 187.481 177.586 186.817C177.852 186.153 178.25 185.555 178.781 185.024C179.313 184.493 179.91 184.094 180.641 183.829C181.371 183.563 182.168 183.43 183.032 183.43C183.962 183.43 184.758 183.563 185.489 183.895C186.22 184.161 186.817 184.626 187.349 185.157C187.681 185.489 187.946 185.821 188.212 186.219C188.478 186.618 188.677 187.083 188.81 187.548C189.009 188.079 189.142 188.61 189.208 189.274C189.275 189.939 189.341 190.669 189.341 191.466C189.474 192.661 189.275 193.857 188.942 194.986ZM186.95 187.282C186.751 186.817 186.485 186.419 186.087 186.087C185.755 185.755 185.29 185.489 184.758 185.29C184.227 185.09 183.696 185.024 183.098 185.024C182.5 185.024 181.969 185.157 181.438 185.356C180.907 185.555 180.508 185.821 180.176 186.219C179.844 186.552 179.578 186.95 179.379 187.415C179.18 187.88 179.113 188.345 179.113 188.876C179.113 189.407 179.18 189.872 179.379 190.337C179.578 190.802 179.844 191.134 180.176 191.466C180.508 191.798 180.973 192.064 181.438 192.197C181.903 192.329 182.5 192.462 183.098 192.462C183.696 192.462 184.294 192.329 184.758 192.13C185.29 191.931 185.688 191.665 186.02 191.333C186.352 191.001 186.618 190.603 186.817 190.138C187.016 189.673 187.083 189.208 187.083 188.743C187.216 188.212 187.149 187.747 186.95 187.282Z" fill="black"/>
</svg>
